M48
; DRILL file {KiCad (7.0.0)} date Thu Sep 28 17:21:42 2023
; FORMAT={-:-/ absolute / metric / decimal}
; #@! TF.CreationDate,2023-09-28T17:21:42-04:00
; #@! TF.GenerationSoftware,Kicad,Pcbnew,(7.0.0)
; #@! TF.FileFunction,Plated,1,4,PTH
FMAT,2
METRIC
; #@! TA.AperFunction,Plated,PTH,ComponentDrill
T1C0.200
; #@! TA.AperFunction,Plated,PTH,ViaDrill
T2C0.305
; #@! TA.AperFunction,Plated,PTH,ViaDrill
T3C0.400
; #@! TA.AperFunction,Plated,PTH,ComponentDrill
T4C0.600
; #@! TA.AperFunction,Plated,PTH,ViaDrill
T5C0.762
; #@! TA.AperFunction,Plated,PTH,ComponentDrill
T6C1.300
%
G90
G05
T1
X123.579Y-102.995
X123.579Y-104.269
X123.579Y-105.544
X123.579Y-106.819
X123.579Y-108.094
X124.854Y-102.995
X124.854Y-104.269
X124.854Y-105.544
X124.854Y-106.819
X124.854Y-108.094
X126.129Y-102.995
X126.129Y-104.269
X126.129Y-105.544
X126.129Y-106.819
X126.129Y-108.094
X127.404Y-102.995
X127.404Y-104.269
X127.404Y-105.544
X127.404Y-106.819
X127.404Y-108.094
X128.679Y-102.995
X128.679Y-104.269
X128.679Y-105.544
X128.679Y-106.819
X128.679Y-108.094
T2
X83.82Y-114.3
X83.82Y-115.316
X83.82Y-116.332
X83.82Y-117.348
X83.82Y-118.364
X83.82Y-119.38
X83.82Y-120.396
X83.82Y-121.412
X83.82Y-122.428
X83.82Y-123.444
X83.82Y-124.46
X83.82Y-125.476
X88.29Y-114.605
X88.316Y-117.577
X88.341Y-116.053
X88.341Y-119.075
X88.341Y-122.047
X88.367Y-123.52
X88.392Y-120.548
X88.392Y-125.019
X89.256Y-109.042
X90.723Y-107.391
X92.202Y-108.915
X93.269Y-117.146
X93.269Y-117.806
X93.269Y-118.466
X93.269Y-119.126
X93.269Y-119.786
X93.269Y-120.446
X93.269Y-121.106
X93.303Y-116.487
X93.472Y-125.984
X93.645Y-122.771
X94.539Y-125.959
X95.121Y-107.414
X96.012Y-116.078
X96.012Y-116.84
X96.012Y-117.602
X96.012Y-118.364
X96.012Y-119.126
X96.012Y-119.888
X96.012Y-120.65
X96.012Y-121.412
X96.427Y-106.883
X96.647Y-108.915
X96.774Y-116.078
X96.774Y-121.412
X97.028Y-103.632
X97.536Y-116.078
X97.536Y-121.412
X97.765Y-102.235
X98.298Y-116.078
X98.298Y-121.412
X98.501Y-100.94
X98.552Y-103.632
X98.857Y-109.459
X98.908Y-111.059
X99.06Y-116.078
X99.06Y-121.412
X99.556Y-124.13
X99.822Y-116.078
X99.822Y-121.412
X99.822Y-126.213
X100.584Y-116.078
X100.584Y-121.412
X101.117Y-108.89
X101.346Y-116.078
X101.346Y-116.84
X101.346Y-117.602
X101.346Y-118.364
X101.346Y-119.126
X101.346Y-119.888
X101.346Y-120.65
X101.346Y-121.412
X102.296Y-123.713
X103.937Y-123.215
X104.436Y-119.503
X104.47Y-117.513
X104.47Y-116.193
X104.47Y-120.218
X104.47Y-116.853
X104.473Y-118.844
X104.481Y-118.173
X105.943Y-121.539
X106.883Y-108.941
X107.188Y-105.156
X107.188Y-123.444
X107.188Y-124.968
X107.95Y-114.3
X108.077Y-111.633
X108.102Y-118.77
X108.204Y-105.156
X108.839Y-111.633
X109.22Y-114.3
X109.423Y-110.719
X109.423Y-112.649
X109.601Y-118.821
X110.287Y-104.242
X110.49Y-114.3
X111.1Y-118.872
X111.76Y-114.3
X112.573Y-118.897
X113.03Y-114.3
X113.284Y-111.633
X114.046Y-111.633
X114.071Y-118.872
X114.148Y-108.966
X114.3Y-114.3
X114.656Y-110.744
X114.681Y-112.649
X114.986Y-104.267
X115.57Y-114.3
X115.57Y-118.872
X116.84Y-114.3
X117.069Y-118.897
X117.78Y-108.56
X118.11Y-114.3
X118.694Y-118.161
X119.38Y-97.536
X119.38Y-98.552
X119.38Y-99.568
X119.38Y-100.584
X119.38Y-114.3
X120.599Y-106.299
X121.141Y-105.775
X121.387Y-113.335
X121.655Y-103.439
X121.666Y-102.768
X121.666Y-108.255
X121.67Y-104.136
X121.717Y-104.795
X121.717Y-105.455
X122.809Y-110.033
X123.876Y-101.143
X123.952Y-114.3
X123.952Y-115.57
X123.952Y-116.84
X123.952Y-118.11
X124.968Y-118.872
X125.73Y-109.931
X125.959Y-98.4
X127.635Y-113.335
X127.879Y-112.408
X129.388Y-109.55
X130.048Y-98.552
X130.581Y-104.812
X130.607Y-102.591
X130.607Y-104.115
X130.637Y-103.255
X130.81Y-114.3
X130.81Y-115.57
X130.81Y-116.84
X130.81Y-118.11
X130.81Y-119.38
X130.835Y-109.499
X132.12Y-100.699
X133.604Y-103.124
X133.604Y-133.096
X134.62Y-103.124
X134.62Y-133.096
X135.636Y-103.124
X135.636Y-133.096
X135.712Y-118.872
X136.316Y-114.32
X136.652Y-133.096
X136.954Y-116.939
X137.566Y-115.443
X137.607Y-114.141
X137.668Y-133.096
X139.192Y-105.156
X139.192Y-106.172
X139.192Y-107.188
X139.192Y-108.204
X140.716Y-110.236
X140.716Y-111.252
X140.716Y-118.872
X140.716Y-119.888
X141.732Y-110.236
X141.732Y-111.252
X141.732Y-118.872
X141.732Y-119.888
X142.748Y-110.236
X142.748Y-111.252
X142.748Y-118.872
X142.748Y-119.888
X145.862Y-114.065
X145.862Y-114.776
X146.558Y-116.84
X146.812Y-113.538
X146.812Y-114.3
X147.574Y-116.84
X147.574Y-117.602
X147.828Y-114.808
X147.879Y-107.925
X148.285Y-120.726
X148.336Y-101.6
X148.59Y-117.602
X148.59Y-118.618
X148.59Y-119.634
X148.844Y-114.808
X149.606Y-115.57
X150.114Y-111.379
X150.139Y-114.783
X150.368Y-105.156
X151.384Y-105.156
X152.4Y-105.156
X152.578Y-101.879
X153.848Y-109.931
X155.448Y-104.648
X155.448Y-105.664
X155.448Y-106.68
X156.54Y-108.179
X166.421Y-114.91
X168.25Y-114.351
X168.25Y-115.392
X168.25Y-116.332
T3
X155.053Y-122.279
X155.053Y-123.549
X155.053Y-124.819
X156.323Y-122.279
X156.323Y-123.549
X156.323Y-124.819
X157.974Y-130.915
X158.863Y-119.231
X158.863Y-120.501
X159.244Y-130.915
X160.133Y-107.801
X160.133Y-119.231
X160.133Y-120.501
X160.514Y-130.915
X161.047Y-111.636
X161.149Y-107.801
X161.632Y-115.319
X161.784Y-130.915
X162.165Y-107.801
X162.419Y-114.278
X163.003Y-110.265
X163.181Y-107.801
X163.308Y-114.278
X164.197Y-114.278
X165.467Y-108.791
X166.635Y-107.696
T5
X153.783Y-127.105
X155.815Y-127.105
X157.847Y-127.105
T6
X115.0Y-123.0
X115.0Y-131.0
X116.5Y-125.5
X116.5Y-128.5
X118.0Y-123.0
X118.0Y-131.0
X119.5Y-125.5
X119.5Y-128.5
X121.0Y-123.0
X121.0Y-131.0
X122.5Y-125.5
X122.5Y-128.5
X124.0Y-123.0
X124.0Y-131.0
X125.5Y-125.5
X125.5Y-128.5
X127.0Y-123.0
X127.0Y-131.0
X128.5Y-125.5
X128.5Y-128.5
X130.0Y-123.0
X130.0Y-131.0
X131.5Y-125.5
X131.5Y-128.5
X133.0Y-123.0
X133.0Y-131.0
X134.5Y-125.5
X134.5Y-128.5
X136.0Y-123.0
X136.0Y-131.0
X137.5Y-125.5
X137.5Y-128.5
X139.0Y-123.0
X139.0Y-131.0
T4
X108.326Y-99.709G85X108.326Y-98.409
G05
X108.326Y-103.384G85X108.326Y-102.384
G05
X116.966Y-99.709G85X116.966Y-98.409
G05
X116.966Y-103.384G85X116.966Y-102.384
G05
T0
M30
