G04 #@! TF.GenerationSoftware,KiCad,Pcbnew,(7.0.0)*
G04 #@! TF.CreationDate,2023-09-28T17:21:21-04:00*
G04 #@! TF.ProjectId,Brytec_InputModuleRev2,42727974-6563-45f4-996e-7075744d6f64,rev?*
G04 #@! TF.SameCoordinates,Original*
G04 #@! TF.FileFunction,Legend,Bot*
G04 #@! TF.FilePolarity,Positive*
%FSLAX46Y46*%
G04 Gerber Fmt 4.6, Leading zero omitted, Abs format (unit mm)*
G04 Created by KiCad (PCBNEW (7.0.0)) date 2023-09-28 17:21:21*
%MOMM*%
%LPD*%
G01*
G04 APERTURE LIST*
G04 Aperture macros list*
%AMRoundRect*
0 Rectangle with rounded corners*
0 $1 Rounding radius*
0 $2 $3 $4 $5 $6 $7 $8 $9 X,Y pos of 4 corners*
0 Add a 4 corners polygon primitive as box body*
4,1,4,$2,$3,$4,$5,$6,$7,$8,$9,$2,$3,0*
0 Add four circle primitives for the rounded corners*
1,1,$1+$1,$2,$3*
1,1,$1+$1,$4,$5*
1,1,$1+$1,$6,$7*
1,1,$1+$1,$8,$9*
0 Add four rect primitives between the rounded corners*
20,1,$1+$1,$2,$3,$4,$5,0*
20,1,$1+$1,$4,$5,$6,$7,0*
20,1,$1+$1,$6,$7,$8,$9,0*
20,1,$1+$1,$8,$9,$2,$3,0*%
G04 Aperture macros list end*
%ADD10C,0.150000*%
%ADD11C,0.010000*%
%ADD12C,3.300000*%
%ADD13RoundRect,0.102000X-0.975000X-0.975000X0.975000X-0.975000X0.975000X0.975000X-0.975000X0.975000X0*%
%ADD14C,2.154000*%
%ADD15C,0.600000*%
%ADD16O,0.850000X0.600000*%
%ADD17O,1.300000X2.300000*%
%ADD18O,1.300000X2.600000*%
%ADD19C,0.990600*%
G04 APERTURE END LIST*
D10*
X158157388Y-106220530D02*
X158157388Y-105220530D01*
X157681198Y-105553864D02*
X157681198Y-106220530D01*
X157681198Y-105649102D02*
X157633579Y-105601483D01*
X157633579Y-105601483D02*
X157538341Y-105553864D01*
X157538341Y-105553864D02*
X157395484Y-105553864D01*
X157395484Y-105553864D02*
X157300246Y-105601483D01*
X157300246Y-105601483D02*
X157252627Y-105696721D01*
X157252627Y-105696721D02*
X157252627Y-106220530D01*
X156776436Y-105553864D02*
X156776436Y-106553864D01*
X156776436Y-105601483D02*
X156681198Y-105553864D01*
X156681198Y-105553864D02*
X156490722Y-105553864D01*
X156490722Y-105553864D02*
X156395484Y-105601483D01*
X156395484Y-105601483D02*
X156347865Y-105649102D01*
X156347865Y-105649102D02*
X156300246Y-105744340D01*
X156300246Y-105744340D02*
X156300246Y-106030054D01*
X156300246Y-106030054D02*
X156347865Y-106125292D01*
X156347865Y-106125292D02*
X156395484Y-106172911D01*
X156395484Y-106172911D02*
X156490722Y-106220530D01*
X156490722Y-106220530D02*
X156681198Y-106220530D01*
X156681198Y-106220530D02*
X156776436Y-106172911D01*
X155443103Y-105553864D02*
X155443103Y-106220530D01*
X155871674Y-105553864D02*
X155871674Y-106077673D01*
X155871674Y-106077673D02*
X155824055Y-106172911D01*
X155824055Y-106172911D02*
X155728817Y-106220530D01*
X155728817Y-106220530D02*
X155585960Y-106220530D01*
X155585960Y-106220530D02*
X155490722Y-106172911D01*
X155490722Y-106172911D02*
X155443103Y-106125292D01*
X155109769Y-105553864D02*
X154728817Y-105553864D01*
X154966912Y-105220530D02*
X154966912Y-106077673D01*
X154966912Y-106077673D02*
X154919293Y-106172911D01*
X154919293Y-106172911D02*
X154824055Y-106220530D01*
X154824055Y-106220530D02*
X154728817Y-106220530D01*
X153795483Y-106220530D02*
X153795483Y-105220530D01*
X153795483Y-105220530D02*
X153462150Y-105934816D01*
X153462150Y-105934816D02*
X153128817Y-105220530D01*
X153128817Y-105220530D02*
X153128817Y-106220530D01*
X152509769Y-106220530D02*
X152605007Y-106172911D01*
X152605007Y-106172911D02*
X152652626Y-106125292D01*
X152652626Y-106125292D02*
X152700245Y-106030054D01*
X152700245Y-106030054D02*
X152700245Y-105744340D01*
X152700245Y-105744340D02*
X152652626Y-105649102D01*
X152652626Y-105649102D02*
X152605007Y-105601483D01*
X152605007Y-105601483D02*
X152509769Y-105553864D01*
X152509769Y-105553864D02*
X152366912Y-105553864D01*
X152366912Y-105553864D02*
X152271674Y-105601483D01*
X152271674Y-105601483D02*
X152224055Y-105649102D01*
X152224055Y-105649102D02*
X152176436Y-105744340D01*
X152176436Y-105744340D02*
X152176436Y-106030054D01*
X152176436Y-106030054D02*
X152224055Y-106125292D01*
X152224055Y-106125292D02*
X152271674Y-106172911D01*
X152271674Y-106172911D02*
X152366912Y-106220530D01*
X152366912Y-106220530D02*
X152509769Y-106220530D01*
X151319293Y-106220530D02*
X151319293Y-105220530D01*
X151319293Y-106172911D02*
X151414531Y-106220530D01*
X151414531Y-106220530D02*
X151605007Y-106220530D01*
X151605007Y-106220530D02*
X151700245Y-106172911D01*
X151700245Y-106172911D02*
X151747864Y-106125292D01*
X151747864Y-106125292D02*
X151795483Y-106030054D01*
X151795483Y-106030054D02*
X151795483Y-105744340D01*
X151795483Y-105744340D02*
X151747864Y-105649102D01*
X151747864Y-105649102D02*
X151700245Y-105601483D01*
X151700245Y-105601483D02*
X151605007Y-105553864D01*
X151605007Y-105553864D02*
X151414531Y-105553864D01*
X151414531Y-105553864D02*
X151319293Y-105601483D01*
X150414531Y-105553864D02*
X150414531Y-106220530D01*
X150843102Y-105553864D02*
X150843102Y-106077673D01*
X150843102Y-106077673D02*
X150795483Y-106172911D01*
X150795483Y-106172911D02*
X150700245Y-106220530D01*
X150700245Y-106220530D02*
X150557388Y-106220530D01*
X150557388Y-106220530D02*
X150462150Y-106172911D01*
X150462150Y-106172911D02*
X150414531Y-106125292D01*
X149795483Y-106220530D02*
X149890721Y-106172911D01*
X149890721Y-106172911D02*
X149938340Y-106077673D01*
X149938340Y-106077673D02*
X149938340Y-105220530D01*
X149033578Y-106172911D02*
X149128816Y-106220530D01*
X149128816Y-106220530D02*
X149319292Y-106220530D01*
X149319292Y-106220530D02*
X149414530Y-106172911D01*
X149414530Y-106172911D02*
X149462149Y-106077673D01*
X149462149Y-106077673D02*
X149462149Y-105696721D01*
X149462149Y-105696721D02*
X149414530Y-105601483D01*
X149414530Y-105601483D02*
X149319292Y-105553864D01*
X149319292Y-105553864D02*
X149128816Y-105553864D01*
X149128816Y-105553864D02*
X149033578Y-105601483D01*
X149033578Y-105601483D02*
X148985959Y-105696721D01*
X148985959Y-105696721D02*
X148985959Y-105791959D01*
X148985959Y-105791959D02*
X149462149Y-105887197D01*
X147957387Y-105839578D02*
X147195483Y-105839578D01*
X145547864Y-106220530D02*
X145881197Y-105744340D01*
X146119292Y-106220530D02*
X146119292Y-105220530D01*
X146119292Y-105220530D02*
X145738340Y-105220530D01*
X145738340Y-105220530D02*
X145643102Y-105268150D01*
X145643102Y-105268150D02*
X145595483Y-105315769D01*
X145595483Y-105315769D02*
X145547864Y-105411007D01*
X145547864Y-105411007D02*
X145547864Y-105553864D01*
X145547864Y-105553864D02*
X145595483Y-105649102D01*
X145595483Y-105649102D02*
X145643102Y-105696721D01*
X145643102Y-105696721D02*
X145738340Y-105744340D01*
X145738340Y-105744340D02*
X146119292Y-105744340D01*
X144738340Y-106172911D02*
X144833578Y-106220530D01*
X144833578Y-106220530D02*
X145024054Y-106220530D01*
X145024054Y-106220530D02*
X145119292Y-106172911D01*
X145119292Y-106172911D02*
X145166911Y-106077673D01*
X145166911Y-106077673D02*
X145166911Y-105696721D01*
X145166911Y-105696721D02*
X145119292Y-105601483D01*
X145119292Y-105601483D02*
X145024054Y-105553864D01*
X145024054Y-105553864D02*
X144833578Y-105553864D01*
X144833578Y-105553864D02*
X144738340Y-105601483D01*
X144738340Y-105601483D02*
X144690721Y-105696721D01*
X144690721Y-105696721D02*
X144690721Y-105791959D01*
X144690721Y-105791959D02*
X145166911Y-105887197D01*
X144357387Y-105553864D02*
X144119292Y-106220530D01*
X144119292Y-106220530D02*
X143881197Y-105553864D01*
X142947863Y-105315769D02*
X142900244Y-105268150D01*
X142900244Y-105268150D02*
X142805006Y-105220530D01*
X142805006Y-105220530D02*
X142566911Y-105220530D01*
X142566911Y-105220530D02*
X142471673Y-105268150D01*
X142471673Y-105268150D02*
X142424054Y-105315769D01*
X142424054Y-105315769D02*
X142376435Y-105411007D01*
X142376435Y-105411007D02*
X142376435Y-105506245D01*
X142376435Y-105506245D02*
X142424054Y-105649102D01*
X142424054Y-105649102D02*
X142995482Y-106220530D01*
X142995482Y-106220530D02*
X142376435Y-106220530D01*
X158205007Y-106935769D02*
X158157388Y-106888150D01*
X158157388Y-106888150D02*
X158062150Y-106840530D01*
X158062150Y-106840530D02*
X157824055Y-106840530D01*
X157824055Y-106840530D02*
X157728817Y-106888150D01*
X157728817Y-106888150D02*
X157681198Y-106935769D01*
X157681198Y-106935769D02*
X157633579Y-107031007D01*
X157633579Y-107031007D02*
X157633579Y-107126245D01*
X157633579Y-107126245D02*
X157681198Y-107269102D01*
X157681198Y-107269102D02*
X158252626Y-107840530D01*
X158252626Y-107840530D02*
X157633579Y-107840530D01*
X157014531Y-106840530D02*
X156919293Y-106840530D01*
X156919293Y-106840530D02*
X156824055Y-106888150D01*
X156824055Y-106888150D02*
X156776436Y-106935769D01*
X156776436Y-106935769D02*
X156728817Y-107031007D01*
X156728817Y-107031007D02*
X156681198Y-107221483D01*
X156681198Y-107221483D02*
X156681198Y-107459578D01*
X156681198Y-107459578D02*
X156728817Y-107650054D01*
X156728817Y-107650054D02*
X156776436Y-107745292D01*
X156776436Y-107745292D02*
X156824055Y-107792911D01*
X156824055Y-107792911D02*
X156919293Y-107840530D01*
X156919293Y-107840530D02*
X157014531Y-107840530D01*
X157014531Y-107840530D02*
X157109769Y-107792911D01*
X157109769Y-107792911D02*
X157157388Y-107745292D01*
X157157388Y-107745292D02*
X157205007Y-107650054D01*
X157205007Y-107650054D02*
X157252626Y-107459578D01*
X157252626Y-107459578D02*
X157252626Y-107221483D01*
X157252626Y-107221483D02*
X157205007Y-107031007D01*
X157205007Y-107031007D02*
X157157388Y-106935769D01*
X157157388Y-106935769D02*
X157109769Y-106888150D01*
X157109769Y-106888150D02*
X157014531Y-106840530D01*
X156300245Y-106935769D02*
X156252626Y-106888150D01*
X156252626Y-106888150D02*
X156157388Y-106840530D01*
X156157388Y-106840530D02*
X155919293Y-106840530D01*
X155919293Y-106840530D02*
X155824055Y-106888150D01*
X155824055Y-106888150D02*
X155776436Y-106935769D01*
X155776436Y-106935769D02*
X155728817Y-107031007D01*
X155728817Y-107031007D02*
X155728817Y-107126245D01*
X155728817Y-107126245D02*
X155776436Y-107269102D01*
X155776436Y-107269102D02*
X156347864Y-107840530D01*
X156347864Y-107840530D02*
X155728817Y-107840530D01*
X155395483Y-106840530D02*
X154776436Y-106840530D01*
X154776436Y-106840530D02*
X155109769Y-107221483D01*
X155109769Y-107221483D02*
X154966912Y-107221483D01*
X154966912Y-107221483D02*
X154871674Y-107269102D01*
X154871674Y-107269102D02*
X154824055Y-107316721D01*
X154824055Y-107316721D02*
X154776436Y-107411959D01*
X154776436Y-107411959D02*
X154776436Y-107650054D01*
X154776436Y-107650054D02*
X154824055Y-107745292D01*
X154824055Y-107745292D02*
X154871674Y-107792911D01*
X154871674Y-107792911D02*
X154966912Y-107840530D01*
X154966912Y-107840530D02*
X155252626Y-107840530D01*
X155252626Y-107840530D02*
X155347864Y-107792911D01*
X155347864Y-107792911D02*
X155395483Y-107745292D01*
G36*
X148934808Y-99212599D02*
G01*
X148932834Y-99220433D01*
X148919288Y-99273666D01*
X148894642Y-99370221D01*
X148859999Y-99505795D01*
X148816458Y-99676084D01*
X148765120Y-99876784D01*
X148707086Y-100103592D01*
X148643457Y-100352204D01*
X148575334Y-100618316D01*
X148503817Y-100897625D01*
X148090209Y-102512801D01*
X148276358Y-103386825D01*
X148314829Y-103567526D01*
X148355027Y-103756483D01*
X148390646Y-103924080D01*
X148420485Y-104064651D01*
X148443341Y-104172532D01*
X148458012Y-104242059D01*
X148463295Y-104267567D01*
X148458469Y-104268277D01*
X148413706Y-104269494D01*
X148326987Y-104270176D01*
X148204437Y-104270324D01*
X148052180Y-104269939D01*
X147876337Y-104269020D01*
X147683034Y-104267567D01*
X146901984Y-104260850D01*
X146717517Y-103376137D01*
X146533049Y-102491425D01*
X145382361Y-100848837D01*
X145326795Y-100769512D01*
X145148168Y-100514430D01*
X144978485Y-100272005D01*
X144819994Y-100045455D01*
X144674940Y-99837993D01*
X144545569Y-99652836D01*
X144434127Y-99493200D01*
X144342860Y-99362299D01*
X144274015Y-99263349D01*
X144229837Y-99199565D01*
X144212573Y-99174164D01*
X144214680Y-99166461D01*
X144237415Y-99159269D01*
X144285924Y-99153840D01*
X144364377Y-99150048D01*
X144476944Y-99147770D01*
X144627793Y-99146880D01*
X144821094Y-99147253D01*
X145061016Y-99148764D01*
X145928560Y-99155450D01*
X146369392Y-99980950D01*
X146457773Y-100147600D01*
X146560817Y-100344754D01*
X146657302Y-100532325D01*
X146743690Y-100703302D01*
X146816445Y-100850672D01*
X146872028Y-100967425D01*
X146906904Y-101046547D01*
X147003584Y-101286645D01*
X147021117Y-101135447D01*
X147032564Y-101038409D01*
X147049473Y-100898233D01*
X147069682Y-100733011D01*
X147092327Y-100549605D01*
X147116544Y-100354873D01*
X147141470Y-100155678D01*
X147166241Y-99958879D01*
X147189993Y-99771337D01*
X147211861Y-99599913D01*
X147230983Y-99451466D01*
X147246494Y-99332858D01*
X147257530Y-99250949D01*
X147263229Y-99212600D01*
X147276634Y-99142750D01*
X148114413Y-99142750D01*
X148952192Y-99142749D01*
X148934808Y-99212599D01*
G37*
D11*
X148934808Y-99212599D02*
X148932834Y-99220433D01*
X148919288Y-99273666D01*
X148894642Y-99370221D01*
X148859999Y-99505795D01*
X148816458Y-99676084D01*
X148765120Y-99876784D01*
X148707086Y-100103592D01*
X148643457Y-100352204D01*
X148575334Y-100618316D01*
X148503817Y-100897625D01*
X148090209Y-102512801D01*
X148276358Y-103386825D01*
X148314829Y-103567526D01*
X148355027Y-103756483D01*
X148390646Y-103924080D01*
X148420485Y-104064651D01*
X148443341Y-104172532D01*
X148458012Y-104242059D01*
X148463295Y-104267567D01*
X148458469Y-104268277D01*
X148413706Y-104269494D01*
X148326987Y-104270176D01*
X148204437Y-104270324D01*
X148052180Y-104269939D01*
X147876337Y-104269020D01*
X147683034Y-104267567D01*
X146901984Y-104260850D01*
X146717517Y-103376137D01*
X146533049Y-102491425D01*
X145382361Y-100848837D01*
X145326795Y-100769512D01*
X145148168Y-100514430D01*
X144978485Y-100272005D01*
X144819994Y-100045455D01*
X144674940Y-99837993D01*
X144545569Y-99652836D01*
X144434127Y-99493200D01*
X144342860Y-99362299D01*
X144274015Y-99263349D01*
X144229837Y-99199565D01*
X144212573Y-99174164D01*
X144214680Y-99166461D01*
X144237415Y-99159269D01*
X144285924Y-99153840D01*
X144364377Y-99150048D01*
X144476944Y-99147770D01*
X144627793Y-99146880D01*
X144821094Y-99147253D01*
X145061016Y-99148764D01*
X145928560Y-99155450D01*
X146369392Y-99980950D01*
X146457773Y-100147600D01*
X146560817Y-100344754D01*
X146657302Y-100532325D01*
X146743690Y-100703302D01*
X146816445Y-100850672D01*
X146872028Y-100967425D01*
X146906904Y-101046547D01*
X147003584Y-101286645D01*
X147021117Y-101135447D01*
X147032564Y-101038409D01*
X147049473Y-100898233D01*
X147069682Y-100733011D01*
X147092327Y-100549605D01*
X147116544Y-100354873D01*
X147141470Y-100155678D01*
X147166241Y-99958879D01*
X147189993Y-99771337D01*
X147211861Y-99599913D01*
X147230983Y-99451466D01*
X147246494Y-99332858D01*
X147257530Y-99250949D01*
X147263229Y-99212600D01*
X147276634Y-99142750D01*
X148114413Y-99142750D01*
X148952192Y-99142749D01*
X148934808Y-99212599D01*
G36*
X153264100Y-101354008D02*
G01*
X153326568Y-101649525D01*
X153374712Y-101877286D01*
X153446940Y-102219023D01*
X153515864Y-102545177D01*
X153580764Y-102852337D01*
X153640921Y-103137091D01*
X153695612Y-103396027D01*
X153744118Y-103625733D01*
X153785718Y-103822798D01*
X153819692Y-103983808D01*
X153845319Y-104105354D01*
X153861878Y-104184021D01*
X153868650Y-104216400D01*
X153880207Y-104273550D01*
X152328486Y-104273550D01*
X152298526Y-104127500D01*
X152296321Y-104116795D01*
X152281128Y-104043822D01*
X152257438Y-103930745D01*
X152226879Y-103785303D01*
X152191077Y-103615232D01*
X152151660Y-103428268D01*
X152110254Y-103232150D01*
X151951941Y-102482850D01*
X151837287Y-102486647D01*
X151823559Y-102487295D01*
X151675923Y-102520626D01*
X151545788Y-102598980D01*
X151438025Y-102718414D01*
X151357505Y-102874987D01*
X151345510Y-102913255D01*
X151322182Y-103006589D01*
X151294024Y-103135297D01*
X151262864Y-103290502D01*
X151230531Y-103463328D01*
X151198854Y-103644900D01*
X151093250Y-104273550D01*
X150273967Y-104273550D01*
X150166291Y-104273365D01*
X149972324Y-104272029D01*
X149800993Y-104269532D01*
X149657932Y-104266028D01*
X149548772Y-104261672D01*
X149479145Y-104256620D01*
X149454684Y-104251026D01*
X149456916Y-104228579D01*
X149469243Y-104156961D01*
X149490796Y-104048520D01*
X149519800Y-103910998D01*
X149554482Y-103752135D01*
X149593068Y-103579674D01*
X149633783Y-103401354D01*
X149674854Y-103224918D01*
X149714506Y-103058107D01*
X149750965Y-102908661D01*
X149782457Y-102784323D01*
X149807208Y-102692834D01*
X149823444Y-102641935D01*
X149876947Y-102525241D01*
X149998990Y-102336849D01*
X150152969Y-102184739D01*
X150343684Y-102063573D01*
X150457984Y-102005267D01*
X150246218Y-101949156D01*
X150184542Y-101931869D01*
X149892865Y-101821054D01*
X149632940Y-101670619D01*
X149404649Y-101480499D01*
X149328755Y-101401220D01*
X149170231Y-101194205D01*
X149059380Y-100975472D01*
X148994143Y-100740270D01*
X148987337Y-100659781D01*
X150627816Y-100659781D01*
X150629825Y-100809008D01*
X150669738Y-100956204D01*
X150745585Y-101093104D01*
X150855400Y-101211445D01*
X150997217Y-101302964D01*
X151024213Y-101315231D01*
X151091482Y-101338762D01*
X151170714Y-101354741D01*
X151274851Y-101365315D01*
X151416834Y-101372635D01*
X151433092Y-101373251D01*
X151564838Y-101376534D01*
X151652103Y-101374651D01*
X151700410Y-101367257D01*
X151715284Y-101354008D01*
X151712187Y-101334173D01*
X151699599Y-101271035D01*
X151679162Y-101174080D01*
X151652860Y-101052249D01*
X151622677Y-100914484D01*
X151590598Y-100769727D01*
X151558606Y-100626918D01*
X151528686Y-100494999D01*
X151502821Y-100382912D01*
X151482996Y-100299599D01*
X151471195Y-100254000D01*
X151458090Y-100232275D01*
X151425830Y-100218149D01*
X151364280Y-100211381D01*
X151262723Y-100209691D01*
X151243453Y-100209775D01*
X151082131Y-100218496D01*
X150957422Y-100243966D01*
X150857989Y-100289637D01*
X150772496Y-100358961D01*
X150745372Y-100388286D01*
X150665675Y-100516786D01*
X150627816Y-100659781D01*
X148987337Y-100659781D01*
X148972460Y-100483850D01*
X148972538Y-100463699D01*
X148997285Y-100206382D01*
X149065859Y-99974498D01*
X149177845Y-99768538D01*
X149332827Y-99588990D01*
X149530388Y-99436346D01*
X149770113Y-99311094D01*
X150051584Y-99213725D01*
X150084193Y-99204943D01*
X150130921Y-99193639D01*
X150179961Y-99184215D01*
X150236163Y-99176458D01*
X150304374Y-99170154D01*
X150389443Y-99165090D01*
X150496220Y-99161052D01*
X150629552Y-99157826D01*
X150794289Y-99155199D01*
X150995279Y-99152956D01*
X151237371Y-99150884D01*
X151525414Y-99148770D01*
X152796044Y-99139801D01*
X153264100Y-101354008D01*
G37*
X153264100Y-101354008D02*
X153326568Y-101649525D01*
X153374712Y-101877286D01*
X153446940Y-102219023D01*
X153515864Y-102545177D01*
X153580764Y-102852337D01*
X153640921Y-103137091D01*
X153695612Y-103396027D01*
X153744118Y-103625733D01*
X153785718Y-103822798D01*
X153819692Y-103983808D01*
X153845319Y-104105354D01*
X153861878Y-104184021D01*
X153868650Y-104216400D01*
X153880207Y-104273550D01*
X152328486Y-104273550D01*
X152298526Y-104127500D01*
X152296321Y-104116795D01*
X152281128Y-104043822D01*
X152257438Y-103930745D01*
X152226879Y-103785303D01*
X152191077Y-103615232D01*
X152151660Y-103428268D01*
X152110254Y-103232150D01*
X151951941Y-102482850D01*
X151837287Y-102486647D01*
X151823559Y-102487295D01*
X151675923Y-102520626D01*
X151545788Y-102598980D01*
X151438025Y-102718414D01*
X151357505Y-102874987D01*
X151345510Y-102913255D01*
X151322182Y-103006589D01*
X151294024Y-103135297D01*
X151262864Y-103290502D01*
X151230531Y-103463328D01*
X151198854Y-103644900D01*
X151093250Y-104273550D01*
X150273967Y-104273550D01*
X150166291Y-104273365D01*
X149972324Y-104272029D01*
X149800993Y-104269532D01*
X149657932Y-104266028D01*
X149548772Y-104261672D01*
X149479145Y-104256620D01*
X149454684Y-104251026D01*
X149456916Y-104228579D01*
X149469243Y-104156961D01*
X149490796Y-104048520D01*
X149519800Y-103910998D01*
X149554482Y-103752135D01*
X149593068Y-103579674D01*
X149633783Y-103401354D01*
X149674854Y-103224918D01*
X149714506Y-103058107D01*
X149750965Y-102908661D01*
X149782457Y-102784323D01*
X149807208Y-102692834D01*
X149823444Y-102641935D01*
X149876947Y-102525241D01*
X149998990Y-102336849D01*
X150152969Y-102184739D01*
X150343684Y-102063573D01*
X150457984Y-102005267D01*
X150246218Y-101949156D01*
X150184542Y-101931869D01*
X149892865Y-101821054D01*
X149632940Y-101670619D01*
X149404649Y-101480499D01*
X149328755Y-101401220D01*
X149170231Y-101194205D01*
X149059380Y-100975472D01*
X148994143Y-100740270D01*
X148987337Y-100659781D01*
X150627816Y-100659781D01*
X150629825Y-100809008D01*
X150669738Y-100956204D01*
X150745585Y-101093104D01*
X150855400Y-101211445D01*
X150997217Y-101302964D01*
X151024213Y-101315231D01*
X151091482Y-101338762D01*
X151170714Y-101354741D01*
X151274851Y-101365315D01*
X151416834Y-101372635D01*
X151433092Y-101373251D01*
X151564838Y-101376534D01*
X151652103Y-101374651D01*
X151700410Y-101367257D01*
X151715284Y-101354008D01*
X151712187Y-101334173D01*
X151699599Y-101271035D01*
X151679162Y-101174080D01*
X151652860Y-101052249D01*
X151622677Y-100914484D01*
X151590598Y-100769727D01*
X151558606Y-100626918D01*
X151528686Y-100494999D01*
X151502821Y-100382912D01*
X151482996Y-100299599D01*
X151471195Y-100254000D01*
X151458090Y-100232275D01*
X151425830Y-100218149D01*
X151364280Y-100211381D01*
X151262723Y-100209691D01*
X151243453Y-100209775D01*
X151082131Y-100218496D01*
X150957422Y-100243966D01*
X150857989Y-100289637D01*
X150772496Y-100358961D01*
X150745372Y-100388286D01*
X150665675Y-100516786D01*
X150627816Y-100659781D01*
X148987337Y-100659781D01*
X148972460Y-100483850D01*
X148972538Y-100463699D01*
X148997285Y-100206382D01*
X149065859Y-99974498D01*
X149177845Y-99768538D01*
X149332827Y-99588990D01*
X149530388Y-99436346D01*
X149770113Y-99311094D01*
X150051584Y-99213725D01*
X150084193Y-99204943D01*
X150130921Y-99193639D01*
X150179961Y-99184215D01*
X150236163Y-99176458D01*
X150304374Y-99170154D01*
X150389443Y-99165090D01*
X150496220Y-99161052D01*
X150629552Y-99157826D01*
X150794289Y-99155199D01*
X150995279Y-99152956D01*
X151237371Y-99150884D01*
X151525414Y-99148770D01*
X152796044Y-99139801D01*
X153264100Y-101354008D01*
G36*
X157781884Y-101155718D02*
G01*
X157815207Y-101313604D01*
X157887686Y-101657350D01*
X157919109Y-101806445D01*
X157990786Y-102146473D01*
X158059479Y-102472260D01*
X158124439Y-102780261D01*
X158184918Y-103066927D01*
X158215950Y-103213965D01*
X158240166Y-103328712D01*
X158289436Y-103562070D01*
X158331977Y-103763452D01*
X158367042Y-103929314D01*
X158393882Y-104056106D01*
X158411747Y-104140284D01*
X158419889Y-104178300D01*
X158440885Y-104273550D01*
X157077668Y-104273550D01*
X157055717Y-104273547D01*
X156772575Y-104272971D01*
X156504546Y-104271455D01*
X156256726Y-104269084D01*
X156034216Y-104265943D01*
X155842111Y-104262115D01*
X155685512Y-104257687D01*
X155569515Y-104252741D01*
X155499218Y-104247363D01*
X155457457Y-104242054D01*
X155116911Y-104180233D01*
X154807325Y-104089993D01*
X154531777Y-103972855D01*
X154293342Y-103830345D01*
X154095100Y-103663986D01*
X153940126Y-103475302D01*
X153869806Y-103356708D01*
X153777310Y-103137227D01*
X153723835Y-102909462D01*
X153709284Y-102685407D01*
X155351093Y-102685407D01*
X155382045Y-102827668D01*
X155454515Y-102958828D01*
X155564912Y-103071323D01*
X155709647Y-103157587D01*
X155759443Y-103177704D01*
X155817426Y-103194973D01*
X155885965Y-103207267D01*
X155975123Y-103215866D01*
X156094959Y-103222052D01*
X156255534Y-103227106D01*
X156316784Y-103228544D01*
X156462946Y-103229998D01*
X156573637Y-103227946D01*
X156643776Y-103222547D01*
X156668284Y-103213965D01*
X156667387Y-103206498D01*
X156658085Y-103157316D01*
X156640419Y-103072228D01*
X156616537Y-102960933D01*
X156588583Y-102833131D01*
X156558707Y-102698521D01*
X156529053Y-102566803D01*
X156501770Y-102447677D01*
X156479003Y-102350843D01*
X156462900Y-102286000D01*
X156437726Y-102190750D01*
X156076755Y-102191307D01*
X155969760Y-102192469D01*
X155798888Y-102201392D01*
X155667239Y-102221656D01*
X155567497Y-102256286D01*
X155492346Y-102308306D01*
X155434470Y-102380741D01*
X155386553Y-102476613D01*
X155365247Y-102539610D01*
X155351093Y-102685407D01*
X153709284Y-102685407D01*
X153708976Y-102680666D01*
X153732332Y-102458090D01*
X153793500Y-102248986D01*
X153892075Y-102060605D01*
X154027656Y-101900198D01*
X154140868Y-101810820D01*
X154288468Y-101723171D01*
X154442693Y-101655110D01*
X154584163Y-101616515D01*
X154587567Y-101615965D01*
X154666733Y-101597944D01*
X154696420Y-101578695D01*
X154676219Y-101559634D01*
X154605717Y-101542177D01*
X154476090Y-101510352D01*
X154321136Y-101456112D01*
X154164237Y-101387896D01*
X154025389Y-101313579D01*
X153858646Y-101194084D01*
X153691536Y-101022030D01*
X153566912Y-100825372D01*
X153486676Y-100608144D01*
X153483326Y-100585073D01*
X155096577Y-100585073D01*
X155104761Y-100731595D01*
X155133977Y-100810655D01*
X155204800Y-100911056D01*
X155303340Y-101003293D01*
X155418079Y-101074749D01*
X155422581Y-101076883D01*
X155480943Y-101100732D01*
X155545117Y-101117690D01*
X155626350Y-101129424D01*
X155735889Y-101137599D01*
X155884982Y-101143880D01*
X156231979Y-101155718D01*
X156158833Y-100815984D01*
X156156230Y-100803890D01*
X156126124Y-100663263D01*
X156097310Y-100527484D01*
X156072944Y-100411485D01*
X156056181Y-100330200D01*
X156026675Y-100184149D01*
X155756930Y-100184291D01*
X155590119Y-100188041D01*
X155456035Y-100201270D01*
X155353515Y-100226361D01*
X155272993Y-100265694D01*
X155204905Y-100321649D01*
X155187772Y-100340338D01*
X155125335Y-100450198D01*
X155096577Y-100585073D01*
X153483326Y-100585073D01*
X153452728Y-100374382D01*
X153466970Y-100128121D01*
X153490004Y-100012993D01*
X153563778Y-99806871D01*
X153676142Y-99630472D01*
X153828927Y-99481796D01*
X154023967Y-99358846D01*
X154263094Y-99259622D01*
X154331498Y-99238135D01*
X154416733Y-99215990D01*
X154510154Y-99197441D01*
X154616495Y-99182190D01*
X154740491Y-99169938D01*
X154886875Y-99160389D01*
X155060381Y-99153245D01*
X155265743Y-99148206D01*
X155507695Y-99144976D01*
X155790972Y-99143256D01*
X156120306Y-99142750D01*
X156190964Y-99142754D01*
X156462026Y-99142902D01*
X156687509Y-99143376D01*
X156871642Y-99144325D01*
X157018654Y-99145902D01*
X157132774Y-99148257D01*
X157218230Y-99151541D01*
X157279252Y-99155907D01*
X157320068Y-99161504D01*
X157344907Y-99168484D01*
X157357998Y-99176999D01*
X157363570Y-99187200D01*
X157365486Y-99195198D01*
X157376968Y-99247347D01*
X157397845Y-99344186D01*
X157427385Y-99482265D01*
X157464856Y-99658131D01*
X157509524Y-99868335D01*
X157560658Y-100109423D01*
X157617526Y-100377946D01*
X157679395Y-100670451D01*
X157745533Y-100983487D01*
X157781884Y-101155718D01*
G37*
X157781884Y-101155718D02*
X157815207Y-101313604D01*
X157887686Y-101657350D01*
X157919109Y-101806445D01*
X157990786Y-102146473D01*
X158059479Y-102472260D01*
X158124439Y-102780261D01*
X158184918Y-103066927D01*
X158215950Y-103213965D01*
X158240166Y-103328712D01*
X158289436Y-103562070D01*
X158331977Y-103763452D01*
X158367042Y-103929314D01*
X158393882Y-104056106D01*
X158411747Y-104140284D01*
X158419889Y-104178300D01*
X158440885Y-104273550D01*
X157077668Y-104273550D01*
X157055717Y-104273547D01*
X156772575Y-104272971D01*
X156504546Y-104271455D01*
X156256726Y-104269084D01*
X156034216Y-104265943D01*
X155842111Y-104262115D01*
X155685512Y-104257687D01*
X155569515Y-104252741D01*
X155499218Y-104247363D01*
X155457457Y-104242054D01*
X155116911Y-104180233D01*
X154807325Y-104089993D01*
X154531777Y-103972855D01*
X154293342Y-103830345D01*
X154095100Y-103663986D01*
X153940126Y-103475302D01*
X153869806Y-103356708D01*
X153777310Y-103137227D01*
X153723835Y-102909462D01*
X153709284Y-102685407D01*
X155351093Y-102685407D01*
X155382045Y-102827668D01*
X155454515Y-102958828D01*
X155564912Y-103071323D01*
X155709647Y-103157587D01*
X155759443Y-103177704D01*
X155817426Y-103194973D01*
X155885965Y-103207267D01*
X155975123Y-103215866D01*
X156094959Y-103222052D01*
X156255534Y-103227106D01*
X156316784Y-103228544D01*
X156462946Y-103229998D01*
X156573637Y-103227946D01*
X156643776Y-103222547D01*
X156668284Y-103213965D01*
X156667387Y-103206498D01*
X156658085Y-103157316D01*
X156640419Y-103072228D01*
X156616537Y-102960933D01*
X156588583Y-102833131D01*
X156558707Y-102698521D01*
X156529053Y-102566803D01*
X156501770Y-102447677D01*
X156479003Y-102350843D01*
X156462900Y-102286000D01*
X156437726Y-102190750D01*
X156076755Y-102191307D01*
X155969760Y-102192469D01*
X155798888Y-102201392D01*
X155667239Y-102221656D01*
X155567497Y-102256286D01*
X155492346Y-102308306D01*
X155434470Y-102380741D01*
X155386553Y-102476613D01*
X155365247Y-102539610D01*
X155351093Y-102685407D01*
X153709284Y-102685407D01*
X153708976Y-102680666D01*
X153732332Y-102458090D01*
X153793500Y-102248986D01*
X153892075Y-102060605D01*
X154027656Y-101900198D01*
X154140868Y-101810820D01*
X154288468Y-101723171D01*
X154442693Y-101655110D01*
X154584163Y-101616515D01*
X154587567Y-101615965D01*
X154666733Y-101597944D01*
X154696420Y-101578695D01*
X154676219Y-101559634D01*
X154605717Y-101542177D01*
X154476090Y-101510352D01*
X154321136Y-101456112D01*
X154164237Y-101387896D01*
X154025389Y-101313579D01*
X153858646Y-101194084D01*
X153691536Y-101022030D01*
X153566912Y-100825372D01*
X153486676Y-100608144D01*
X153483326Y-100585073D01*
X155096577Y-100585073D01*
X155104761Y-100731595D01*
X155133977Y-100810655D01*
X155204800Y-100911056D01*
X155303340Y-101003293D01*
X155418079Y-101074749D01*
X155422581Y-101076883D01*
X155480943Y-101100732D01*
X155545117Y-101117690D01*
X155626350Y-101129424D01*
X155735889Y-101137599D01*
X155884982Y-101143880D01*
X156231979Y-101155718D01*
X156158833Y-100815984D01*
X156156230Y-100803890D01*
X156126124Y-100663263D01*
X156097310Y-100527484D01*
X156072944Y-100411485D01*
X156056181Y-100330200D01*
X156026675Y-100184149D01*
X155756930Y-100184291D01*
X155590119Y-100188041D01*
X155456035Y-100201270D01*
X155353515Y-100226361D01*
X155272993Y-100265694D01*
X155204905Y-100321649D01*
X155187772Y-100340338D01*
X155125335Y-100450198D01*
X155096577Y-100585073D01*
X153483326Y-100585073D01*
X153452728Y-100374382D01*
X153466970Y-100128121D01*
X153490004Y-100012993D01*
X153563778Y-99806871D01*
X153676142Y-99630472D01*
X153828927Y-99481796D01*
X154023967Y-99358846D01*
X154263094Y-99259622D01*
X154331498Y-99238135D01*
X154416733Y-99215990D01*
X154510154Y-99197441D01*
X154616495Y-99182190D01*
X154740491Y-99169938D01*
X154886875Y-99160389D01*
X155060381Y-99153245D01*
X155265743Y-99148206D01*
X155507695Y-99144976D01*
X155790972Y-99143256D01*
X156120306Y-99142750D01*
X156190964Y-99142754D01*
X156462026Y-99142902D01*
X156687509Y-99143376D01*
X156871642Y-99144325D01*
X157018654Y-99145902D01*
X157132774Y-99148257D01*
X157218230Y-99151541D01*
X157279252Y-99155907D01*
X157320068Y-99161504D01*
X157344907Y-99168484D01*
X157357998Y-99176999D01*
X157363570Y-99187200D01*
X157365486Y-99195198D01*
X157376968Y-99247347D01*
X157397845Y-99344186D01*
X157427385Y-99482265D01*
X157464856Y-99658131D01*
X157509524Y-99868335D01*
X157560658Y-100109423D01*
X157617526Y-100377946D01*
X157679395Y-100670451D01*
X157745533Y-100983487D01*
X157781884Y-101155718D01*
G36*
X144267782Y-100076001D02*
G01*
X144284413Y-100154338D01*
X144302198Y-100237334D01*
X144311458Y-100279400D01*
X144324852Y-100336550D01*
X143613168Y-100336550D01*
X143435735Y-100336747D01*
X143262311Y-100337677D01*
X143130056Y-100339627D01*
X143033688Y-100342879D01*
X142967928Y-100347717D01*
X142927494Y-100354422D01*
X142907107Y-100363276D01*
X142901484Y-100374560D01*
X142905057Y-100395529D01*
X142918162Y-100462410D01*
X142939963Y-100570401D01*
X142969480Y-100714818D01*
X143005734Y-100890980D01*
X143047746Y-101094206D01*
X143094537Y-101319814D01*
X143145127Y-101563122D01*
X143198538Y-101819448D01*
X143253789Y-102084112D01*
X143309903Y-102352430D01*
X143365899Y-102619722D01*
X143420798Y-102881306D01*
X143473622Y-103132500D01*
X143523390Y-103368623D01*
X143569124Y-103584992D01*
X143609845Y-103776927D01*
X143644573Y-103939745D01*
X143672330Y-104068766D01*
X143692135Y-104159306D01*
X143703010Y-104206685D01*
X143719792Y-104273550D01*
X142942338Y-104273550D01*
X142858005Y-104273483D01*
X142671829Y-104272837D01*
X142505720Y-104271579D01*
X142365824Y-104269798D01*
X142258289Y-104267583D01*
X142189260Y-104265024D01*
X142164884Y-104262210D01*
X142163415Y-104252986D01*
X142153050Y-104200135D01*
X142133585Y-104104826D01*
X142105998Y-103971667D01*
X142071268Y-103805267D01*
X142030373Y-103610234D01*
X141984291Y-103391176D01*
X141933999Y-103152702D01*
X141880478Y-102899421D01*
X141824703Y-102635941D01*
X141767655Y-102366869D01*
X141710310Y-102096816D01*
X141653648Y-101830389D01*
X141598645Y-101572196D01*
X141546281Y-101326847D01*
X141497534Y-101098949D01*
X141453382Y-100893110D01*
X141414802Y-100713941D01*
X141382774Y-100566048D01*
X141358275Y-100454040D01*
X141342284Y-100382527D01*
X141335779Y-100356115D01*
X141334492Y-100355227D01*
X141298931Y-100350248D01*
X141220222Y-100345783D01*
X141104898Y-100342006D01*
X140959496Y-100339091D01*
X140790551Y-100337214D01*
X140604596Y-100336550D01*
X139885506Y-100336550D01*
X139828298Y-100063500D01*
X139805927Y-99957008D01*
X139771592Y-99794201D01*
X139735370Y-99623007D01*
X139702159Y-99466600D01*
X139688643Y-99403100D01*
X139929503Y-99403100D01*
X139929762Y-99407258D01*
X139936768Y-99452807D01*
X139951904Y-99535489D01*
X139973246Y-99645091D01*
X139998871Y-99771400D01*
X140068420Y-100107950D01*
X140796399Y-100107949D01*
X141524377Y-100107949D01*
X141537520Y-100165099D01*
X141537975Y-100167129D01*
X141546740Y-100207952D01*
X141564994Y-100293930D01*
X141591904Y-100421116D01*
X141626637Y-100585560D01*
X141668362Y-100783316D01*
X141716246Y-101010437D01*
X141769455Y-101262973D01*
X141827158Y-101536977D01*
X141888521Y-101828502D01*
X141952712Y-102133600D01*
X142354760Y-104044950D01*
X142894822Y-104044950D01*
X142953679Y-104044912D01*
X143107185Y-104044435D01*
X143239321Y-104043478D01*
X143342730Y-104042129D01*
X143410053Y-104040474D01*
X143433934Y-104038600D01*
X143433408Y-104036017D01*
X143425112Y-103996429D01*
X143407357Y-103912048D01*
X143380938Y-103786640D01*
X143346650Y-103623972D01*
X143305286Y-103427810D01*
X143257641Y-103201923D01*
X143204509Y-102950077D01*
X143146685Y-102676038D01*
X143084963Y-102383573D01*
X143020138Y-102076450D01*
X142607293Y-100120650D01*
X143327476Y-100113907D01*
X143450792Y-100112704D01*
X143634999Y-100110510D01*
X143776738Y-100107939D01*
X143881354Y-100104609D01*
X143954192Y-100100133D01*
X144000599Y-100094129D01*
X144025921Y-100086213D01*
X144035502Y-100076001D01*
X144034690Y-100063107D01*
X144031420Y-100050522D01*
X144018396Y-99993850D01*
X143999309Y-99906644D01*
X143976562Y-99800360D01*
X143952561Y-99686450D01*
X143929709Y-99576369D01*
X143910409Y-99481572D01*
X143897066Y-99413512D01*
X143892084Y-99383645D01*
X143890358Y-99383130D01*
X143852947Y-99381215D01*
X143769593Y-99379399D01*
X143644147Y-99377708D01*
X143480460Y-99376164D01*
X143282381Y-99374793D01*
X143053762Y-99373617D01*
X142798452Y-99372661D01*
X142520303Y-99371948D01*
X142223163Y-99371503D01*
X141910884Y-99371350D01*
X141649334Y-99371419D01*
X141304328Y-99371795D01*
X141005433Y-99372538D01*
X140749857Y-99373692D01*
X140534806Y-99375301D01*
X140357487Y-99377412D01*
X140215105Y-99380068D01*
X140104869Y-99383315D01*
X140023984Y-99387197D01*
X139969657Y-99391758D01*
X139939094Y-99397044D01*
X139929503Y-99403100D01*
X139688643Y-99403100D01*
X139633228Y-99142750D01*
X144068917Y-99142750D01*
X144082311Y-99199900D01*
X144082548Y-99200920D01*
X144092290Y-99245295D01*
X144110462Y-99330150D01*
X144135196Y-99446690D01*
X144164626Y-99586122D01*
X144196885Y-99739650D01*
X144198575Y-99747713D01*
X144230734Y-99900732D01*
X144259969Y-100039206D01*
X144267782Y-100076001D01*
G37*
X144267782Y-100076001D02*
X144284413Y-100154338D01*
X144302198Y-100237334D01*
X144311458Y-100279400D01*
X144324852Y-100336550D01*
X143613168Y-100336550D01*
X143435735Y-100336747D01*
X143262311Y-100337677D01*
X143130056Y-100339627D01*
X143033688Y-100342879D01*
X142967928Y-100347717D01*
X142927494Y-100354422D01*
X142907107Y-100363276D01*
X142901484Y-100374560D01*
X142905057Y-100395529D01*
X142918162Y-100462410D01*
X142939963Y-100570401D01*
X142969480Y-100714818D01*
X143005734Y-100890980D01*
X143047746Y-101094206D01*
X143094537Y-101319814D01*
X143145127Y-101563122D01*
X143198538Y-101819448D01*
X143253789Y-102084112D01*
X143309903Y-102352430D01*
X143365899Y-102619722D01*
X143420798Y-102881306D01*
X143473622Y-103132500D01*
X143523390Y-103368623D01*
X143569124Y-103584992D01*
X143609845Y-103776927D01*
X143644573Y-103939745D01*
X143672330Y-104068766D01*
X143692135Y-104159306D01*
X143703010Y-104206685D01*
X143719792Y-104273550D01*
X142942338Y-104273550D01*
X142858005Y-104273483D01*
X142671829Y-104272837D01*
X142505720Y-104271579D01*
X142365824Y-104269798D01*
X142258289Y-104267583D01*
X142189260Y-104265024D01*
X142164884Y-104262210D01*
X142163415Y-104252986D01*
X142153050Y-104200135D01*
X142133585Y-104104826D01*
X142105998Y-103971667D01*
X142071268Y-103805267D01*
X142030373Y-103610234D01*
X141984291Y-103391176D01*
X141933999Y-103152702D01*
X141880478Y-102899421D01*
X141824703Y-102635941D01*
X141767655Y-102366869D01*
X141710310Y-102096816D01*
X141653648Y-101830389D01*
X141598645Y-101572196D01*
X141546281Y-101326847D01*
X141497534Y-101098949D01*
X141453382Y-100893110D01*
X141414802Y-100713941D01*
X141382774Y-100566048D01*
X141358275Y-100454040D01*
X141342284Y-100382527D01*
X141335779Y-100356115D01*
X141334492Y-100355227D01*
X141298931Y-100350248D01*
X141220222Y-100345783D01*
X141104898Y-100342006D01*
X140959496Y-100339091D01*
X140790551Y-100337214D01*
X140604596Y-100336550D01*
X139885506Y-100336550D01*
X139828298Y-100063500D01*
X139805927Y-99957008D01*
X139771592Y-99794201D01*
X139735370Y-99623007D01*
X139702159Y-99466600D01*
X139688643Y-99403100D01*
X139929503Y-99403100D01*
X139929762Y-99407258D01*
X139936768Y-99452807D01*
X139951904Y-99535489D01*
X139973246Y-99645091D01*
X139998871Y-99771400D01*
X140068420Y-100107950D01*
X140796399Y-100107949D01*
X141524377Y-100107949D01*
X141537520Y-100165099D01*
X141537975Y-100167129D01*
X141546740Y-100207952D01*
X141564994Y-100293930D01*
X141591904Y-100421116D01*
X141626637Y-100585560D01*
X141668362Y-100783316D01*
X141716246Y-101010437D01*
X141769455Y-101262973D01*
X141827158Y-101536977D01*
X141888521Y-101828502D01*
X141952712Y-102133600D01*
X142354760Y-104044950D01*
X142894822Y-104044950D01*
X142953679Y-104044912D01*
X143107185Y-104044435D01*
X143239321Y-104043478D01*
X143342730Y-104042129D01*
X143410053Y-104040474D01*
X143433934Y-104038600D01*
X143433408Y-104036017D01*
X143425112Y-103996429D01*
X143407357Y-103912048D01*
X143380938Y-103786640D01*
X143346650Y-103623972D01*
X143305286Y-103427810D01*
X143257641Y-103201923D01*
X143204509Y-102950077D01*
X143146685Y-102676038D01*
X143084963Y-102383573D01*
X143020138Y-102076450D01*
X142607293Y-100120650D01*
X143327476Y-100113907D01*
X143450792Y-100112704D01*
X143634999Y-100110510D01*
X143776738Y-100107939D01*
X143881354Y-100104609D01*
X143954192Y-100100133D01*
X144000599Y-100094129D01*
X144025921Y-100086213D01*
X144035502Y-100076001D01*
X144034690Y-100063107D01*
X144031420Y-100050522D01*
X144018396Y-99993850D01*
X143999309Y-99906644D01*
X143976562Y-99800360D01*
X143952561Y-99686450D01*
X143929709Y-99576369D01*
X143910409Y-99481572D01*
X143897066Y-99413512D01*
X143892084Y-99383645D01*
X143890358Y-99383130D01*
X143852947Y-99381215D01*
X143769593Y-99379399D01*
X143644147Y-99377708D01*
X143480460Y-99376164D01*
X143282381Y-99374793D01*
X143053762Y-99373617D01*
X142798452Y-99372661D01*
X142520303Y-99371948D01*
X142223163Y-99371503D01*
X141910884Y-99371350D01*
X141649334Y-99371419D01*
X141304328Y-99371795D01*
X141005433Y-99372538D01*
X140749857Y-99373692D01*
X140534806Y-99375301D01*
X140357487Y-99377412D01*
X140215105Y-99380068D01*
X140104869Y-99383315D01*
X140023984Y-99387197D01*
X139969657Y-99391758D01*
X139939094Y-99397044D01*
X139929503Y-99403100D01*
X139688643Y-99403100D01*
X139633228Y-99142750D01*
X144068917Y-99142750D01*
X144082311Y-99199900D01*
X144082548Y-99200920D01*
X144092290Y-99245295D01*
X144110462Y-99330150D01*
X144135196Y-99446690D01*
X144164626Y-99586122D01*
X144196885Y-99739650D01*
X144198575Y-99747713D01*
X144230734Y-99900732D01*
X144259969Y-100039206D01*
X144267782Y-100076001D01*
G36*
X136577265Y-102231415D02*
G01*
X136577012Y-102252399D01*
X136555496Y-102568956D01*
X136506890Y-102849558D01*
X136428865Y-103100665D01*
X136319093Y-103328737D01*
X136175242Y-103540234D01*
X135994984Y-103741615D01*
X135900897Y-103829934D01*
X135675054Y-104001656D01*
X135425610Y-104137279D01*
X135145960Y-104240042D01*
X134829502Y-104313183D01*
X134820458Y-104314696D01*
X134718681Y-104325764D01*
X134581284Y-104333450D01*
X134419063Y-104337853D01*
X134242810Y-104339075D01*
X134063321Y-104337218D01*
X133891390Y-104332382D01*
X133737810Y-104324668D01*
X133613377Y-104314178D01*
X133528884Y-104301011D01*
X133519985Y-104298885D01*
X133433813Y-104277681D01*
X133323192Y-104249756D01*
X133209764Y-104220567D01*
X133004943Y-104167271D01*
X132856996Y-103483094D01*
X132853419Y-103466531D01*
X132815591Y-103288497D01*
X132782500Y-103127620D01*
X132755396Y-102990390D01*
X132735530Y-102883293D01*
X132724152Y-102812819D01*
X132722514Y-102785453D01*
X132748619Y-102787096D01*
X132808500Y-102805220D01*
X132888272Y-102836087D01*
X133020071Y-102887609D01*
X133313567Y-102975069D01*
X133603188Y-103025254D01*
X133881879Y-103037639D01*
X134142583Y-103011700D01*
X134378245Y-102946911D01*
X134523089Y-102872024D01*
X134669767Y-102754447D01*
X134791361Y-102612033D01*
X134875014Y-102457450D01*
X134904009Y-102368975D01*
X134941731Y-102155832D01*
X134946091Y-101921946D01*
X134918041Y-101678470D01*
X134858529Y-101436558D01*
X134768508Y-101207362D01*
X134720183Y-101119031D01*
X134597608Y-100950181D01*
X134445627Y-100790520D01*
X134277478Y-100653164D01*
X134106398Y-100551233D01*
X134078468Y-100538380D01*
X133836674Y-100455459D01*
X133568681Y-100407864D01*
X133283559Y-100395499D01*
X132990377Y-100418270D01*
X132698207Y-100476082D01*
X132416119Y-100568842D01*
X132360533Y-100588834D01*
X132294442Y-100604391D01*
X132260447Y-100600464D01*
X132254976Y-100588048D01*
X132238747Y-100532627D01*
X132215227Y-100440680D01*
X132186141Y-100320021D01*
X132153213Y-100178466D01*
X132118166Y-100023830D01*
X132082727Y-99863927D01*
X132048619Y-99706574D01*
X132017566Y-99559584D01*
X131993950Y-99443800D01*
X132233484Y-99443800D01*
X132236157Y-99466464D01*
X132247964Y-99532059D01*
X132267185Y-99627945D01*
X132291612Y-99744116D01*
X132319037Y-99870567D01*
X132347254Y-99997292D01*
X132374054Y-100114285D01*
X132397230Y-100211540D01*
X132414574Y-100279051D01*
X132423880Y-100306812D01*
X132435573Y-100307573D01*
X132484227Y-100297652D01*
X132555689Y-100276846D01*
X132702334Y-100235927D01*
X132890175Y-100201450D01*
X133102206Y-100181622D01*
X133351084Y-100174820D01*
X133424059Y-100175039D01*
X133614618Y-100182082D01*
X133775848Y-100201309D01*
X133923401Y-100236082D01*
X134072930Y-100289762D01*
X134240084Y-100365708D01*
X134305512Y-100399746D01*
X134526205Y-100549694D01*
X134722507Y-100739009D01*
X134889421Y-100961330D01*
X135021952Y-101210296D01*
X135115103Y-101479550D01*
X135120726Y-101501881D01*
X135163371Y-101745190D01*
X135175872Y-101993427D01*
X135158999Y-102234615D01*
X135113518Y-102456773D01*
X135040197Y-102647924D01*
X134964867Y-102769855D01*
X134822423Y-102927305D01*
X134646044Y-103061293D01*
X134444706Y-103165358D01*
X134227384Y-103233039D01*
X134110836Y-103251704D01*
X133907909Y-103264531D01*
X133688609Y-103259551D01*
X133471434Y-103237428D01*
X133274884Y-103198826D01*
X133208092Y-103181903D01*
X133116383Y-103160075D01*
X133051841Y-103146546D01*
X133025418Y-103143735D01*
X133025167Y-103146264D01*
X133030630Y-103183768D01*
X133044478Y-103258325D01*
X133064677Y-103360140D01*
X133089193Y-103479418D01*
X133115992Y-103606364D01*
X133143042Y-103731182D01*
X133168307Y-103844078D01*
X133189755Y-103935257D01*
X133192495Y-103944276D01*
X133211333Y-103970950D01*
X133251918Y-103994061D01*
X133323656Y-104017861D01*
X133435951Y-104046605D01*
X133536723Y-104066146D01*
X133702958Y-104087186D01*
X133896105Y-104102708D01*
X134103311Y-104112355D01*
X134311720Y-104115768D01*
X134508475Y-104112591D01*
X134680724Y-104102464D01*
X134815609Y-104085030D01*
X134976455Y-104049526D01*
X135279087Y-103950471D01*
X135545166Y-103816181D01*
X135774603Y-103646744D01*
X135967308Y-103442244D01*
X136123194Y-103202770D01*
X136242170Y-102928407D01*
X136324148Y-102619242D01*
X136335251Y-102541848D01*
X136345504Y-102399911D01*
X136349743Y-102231415D01*
X136348152Y-102050274D01*
X136340916Y-101870399D01*
X136328219Y-101705703D01*
X136310246Y-101570099D01*
X136307950Y-101557254D01*
X136219654Y-101198399D01*
X136089748Y-100860848D01*
X135920811Y-100548723D01*
X135715425Y-100266144D01*
X135476171Y-100017234D01*
X135205629Y-99806114D01*
X134941887Y-99651597D01*
X134624196Y-99514037D01*
X134272513Y-99408186D01*
X133882956Y-99332654D01*
X133839005Y-99326569D01*
X133601158Y-99305198D01*
X133334214Y-99296978D01*
X133053933Y-99301389D01*
X132776070Y-99317911D01*
X132516385Y-99346025D01*
X132290634Y-99385209D01*
X132255828Y-99401312D01*
X132233484Y-99443800D01*
X131993950Y-99443800D01*
X131991293Y-99430773D01*
X131971525Y-99327957D01*
X131959986Y-99258950D01*
X131958399Y-99231568D01*
X131969730Y-99226661D01*
X132022090Y-99212015D01*
X132106073Y-99191994D01*
X132210152Y-99169443D01*
X132402486Y-99133722D01*
X132825599Y-99082211D01*
X133253196Y-99064999D01*
X133674587Y-99081861D01*
X134079080Y-99132570D01*
X134455984Y-99216902D01*
X134556401Y-99246822D01*
X134920059Y-99386173D01*
X135251824Y-99563934D01*
X135550204Y-99778059D01*
X135813704Y-100026502D01*
X136040830Y-100307217D01*
X136230089Y-100618159D01*
X136379986Y-100957283D01*
X136489029Y-101322543D01*
X136555722Y-101711894D01*
X136578572Y-102123289D01*
X136577265Y-102231415D01*
G37*
X136577265Y-102231415D02*
X136577012Y-102252399D01*
X136555496Y-102568956D01*
X136506890Y-102849558D01*
X136428865Y-103100665D01*
X136319093Y-103328737D01*
X136175242Y-103540234D01*
X135994984Y-103741615D01*
X135900897Y-103829934D01*
X135675054Y-104001656D01*
X135425610Y-104137279D01*
X135145960Y-104240042D01*
X134829502Y-104313183D01*
X134820458Y-104314696D01*
X134718681Y-104325764D01*
X134581284Y-104333450D01*
X134419063Y-104337853D01*
X134242810Y-104339075D01*
X134063321Y-104337218D01*
X133891390Y-104332382D01*
X133737810Y-104324668D01*
X133613377Y-104314178D01*
X133528884Y-104301011D01*
X133519985Y-104298885D01*
X133433813Y-104277681D01*
X133323192Y-104249756D01*
X133209764Y-104220567D01*
X133004943Y-104167271D01*
X132856996Y-103483094D01*
X132853419Y-103466531D01*
X132815591Y-103288497D01*
X132782500Y-103127620D01*
X132755396Y-102990390D01*
X132735530Y-102883293D01*
X132724152Y-102812819D01*
X132722514Y-102785453D01*
X132748619Y-102787096D01*
X132808500Y-102805220D01*
X132888272Y-102836087D01*
X133020071Y-102887609D01*
X133313567Y-102975069D01*
X133603188Y-103025254D01*
X133881879Y-103037639D01*
X134142583Y-103011700D01*
X134378245Y-102946911D01*
X134523089Y-102872024D01*
X134669767Y-102754447D01*
X134791361Y-102612033D01*
X134875014Y-102457450D01*
X134904009Y-102368975D01*
X134941731Y-102155832D01*
X134946091Y-101921946D01*
X134918041Y-101678470D01*
X134858529Y-101436558D01*
X134768508Y-101207362D01*
X134720183Y-101119031D01*
X134597608Y-100950181D01*
X134445627Y-100790520D01*
X134277478Y-100653164D01*
X134106398Y-100551233D01*
X134078468Y-100538380D01*
X133836674Y-100455459D01*
X133568681Y-100407864D01*
X133283559Y-100395499D01*
X132990377Y-100418270D01*
X132698207Y-100476082D01*
X132416119Y-100568842D01*
X132360533Y-100588834D01*
X132294442Y-100604391D01*
X132260447Y-100600464D01*
X132254976Y-100588048D01*
X132238747Y-100532627D01*
X132215227Y-100440680D01*
X132186141Y-100320021D01*
X132153213Y-100178466D01*
X132118166Y-100023830D01*
X132082727Y-99863927D01*
X132048619Y-99706574D01*
X132017566Y-99559584D01*
X131993950Y-99443800D01*
X132233484Y-99443800D01*
X132236157Y-99466464D01*
X132247964Y-99532059D01*
X132267185Y-99627945D01*
X132291612Y-99744116D01*
X132319037Y-99870567D01*
X132347254Y-99997292D01*
X132374054Y-100114285D01*
X132397230Y-100211540D01*
X132414574Y-100279051D01*
X132423880Y-100306812D01*
X132435573Y-100307573D01*
X132484227Y-100297652D01*
X132555689Y-100276846D01*
X132702334Y-100235927D01*
X132890175Y-100201450D01*
X133102206Y-100181622D01*
X133351084Y-100174820D01*
X133424059Y-100175039D01*
X133614618Y-100182082D01*
X133775848Y-100201309D01*
X133923401Y-100236082D01*
X134072930Y-100289762D01*
X134240084Y-100365708D01*
X134305512Y-100399746D01*
X134526205Y-100549694D01*
X134722507Y-100739009D01*
X134889421Y-100961330D01*
X135021952Y-101210296D01*
X135115103Y-101479550D01*
X135120726Y-101501881D01*
X135163371Y-101745190D01*
X135175872Y-101993427D01*
X135158999Y-102234615D01*
X135113518Y-102456773D01*
X135040197Y-102647924D01*
X134964867Y-102769855D01*
X134822423Y-102927305D01*
X134646044Y-103061293D01*
X134444706Y-103165358D01*
X134227384Y-103233039D01*
X134110836Y-103251704D01*
X133907909Y-103264531D01*
X133688609Y-103259551D01*
X133471434Y-103237428D01*
X133274884Y-103198826D01*
X133208092Y-103181903D01*
X133116383Y-103160075D01*
X133051841Y-103146546D01*
X133025418Y-103143735D01*
X133025167Y-103146264D01*
X133030630Y-103183768D01*
X133044478Y-103258325D01*
X133064677Y-103360140D01*
X133089193Y-103479418D01*
X133115992Y-103606364D01*
X133143042Y-103731182D01*
X133168307Y-103844078D01*
X133189755Y-103935257D01*
X133192495Y-103944276D01*
X133211333Y-103970950D01*
X133251918Y-103994061D01*
X133323656Y-104017861D01*
X133435951Y-104046605D01*
X133536723Y-104066146D01*
X133702958Y-104087186D01*
X133896105Y-104102708D01*
X134103311Y-104112355D01*
X134311720Y-104115768D01*
X134508475Y-104112591D01*
X134680724Y-104102464D01*
X134815609Y-104085030D01*
X134976455Y-104049526D01*
X135279087Y-103950471D01*
X135545166Y-103816181D01*
X135774603Y-103646744D01*
X135967308Y-103442244D01*
X136123194Y-103202770D01*
X136242170Y-102928407D01*
X136324148Y-102619242D01*
X136335251Y-102541848D01*
X136345504Y-102399911D01*
X136349743Y-102231415D01*
X136348152Y-102050274D01*
X136340916Y-101870399D01*
X136328219Y-101705703D01*
X136310246Y-101570099D01*
X136307950Y-101557254D01*
X136219654Y-101198399D01*
X136089748Y-100860848D01*
X135920811Y-100548723D01*
X135715425Y-100266144D01*
X135476171Y-100017234D01*
X135205629Y-99806114D01*
X134941887Y-99651597D01*
X134624196Y-99514037D01*
X134272513Y-99408186D01*
X133882956Y-99332654D01*
X133839005Y-99326569D01*
X133601158Y-99305198D01*
X133334214Y-99296978D01*
X133053933Y-99301389D01*
X132776070Y-99317911D01*
X132516385Y-99346025D01*
X132290634Y-99385209D01*
X132255828Y-99401312D01*
X132233484Y-99443800D01*
X131993950Y-99443800D01*
X131991293Y-99430773D01*
X131971525Y-99327957D01*
X131959986Y-99258950D01*
X131958399Y-99231568D01*
X131969730Y-99226661D01*
X132022090Y-99212015D01*
X132106073Y-99191994D01*
X132210152Y-99169443D01*
X132402486Y-99133722D01*
X132825599Y-99082211D01*
X133253196Y-99064999D01*
X133674587Y-99081861D01*
X134079080Y-99132570D01*
X134455984Y-99216902D01*
X134556401Y-99246822D01*
X134920059Y-99386173D01*
X135251824Y-99563934D01*
X135550204Y-99778059D01*
X135813704Y-100026502D01*
X136040830Y-100307217D01*
X136230089Y-100618159D01*
X136379986Y-100957283D01*
X136489029Y-101322543D01*
X136555722Y-101711894D01*
X136578572Y-102123289D01*
X136577265Y-102231415D01*
G36*
X140399975Y-104008239D02*
G01*
X140410030Y-104055605D01*
X140427982Y-104139854D01*
X140436206Y-104177954D01*
X140457685Y-104273550D01*
X137147980Y-104273550D01*
X137027057Y-103695700D01*
X137006703Y-103598131D01*
X136974435Y-103442095D01*
X136946837Y-103306937D01*
X136925364Y-103199864D01*
X136911470Y-103128082D01*
X136906609Y-103098800D01*
X136923598Y-103095081D01*
X136985858Y-103090920D01*
X137088330Y-103087234D01*
X137225223Y-103084148D01*
X137390748Y-103081788D01*
X137579116Y-103080280D01*
X137784535Y-103079750D01*
X138661986Y-103079750D01*
X138646184Y-102997200D01*
X138635289Y-102943941D01*
X138615649Y-102852006D01*
X138590430Y-102736244D01*
X138562483Y-102609850D01*
X138494584Y-102305050D01*
X136945184Y-102291606D01*
X136832762Y-101752228D01*
X136820784Y-101694742D01*
X136787889Y-101536662D01*
X136758588Y-101395569D01*
X136734580Y-101279650D01*
X136717559Y-101197089D01*
X136709222Y-101156071D01*
X136698104Y-101099292D01*
X138242506Y-101085850D01*
X138088002Y-100349250D01*
X137260818Y-100342558D01*
X136433633Y-100335867D01*
X136314376Y-99771058D01*
X136296633Y-99686654D01*
X136264122Y-99529905D01*
X136240931Y-99415800D01*
X136476660Y-99415800D01*
X136476762Y-99417711D01*
X136483513Y-99462657D01*
X136499100Y-99545027D01*
X136521338Y-99653749D01*
X136548044Y-99777750D01*
X136618052Y-100095250D01*
X137445130Y-100101942D01*
X138272207Y-100108635D01*
X138328662Y-100381342D01*
X138353047Y-100498989D01*
X138386842Y-100661756D01*
X138422441Y-100832980D01*
X138455259Y-100990600D01*
X138525401Y-101327150D01*
X137754343Y-101327150D01*
X137675463Y-101327249D01*
X137489686Y-101328313D01*
X137323856Y-101330417D01*
X137184144Y-101333411D01*
X137076719Y-101337141D01*
X137007753Y-101341454D01*
X136983415Y-101346200D01*
X136983827Y-101350530D01*
X136991492Y-101394201D01*
X137006958Y-101472633D01*
X137027760Y-101574150D01*
X137051433Y-101687074D01*
X137075511Y-101799728D01*
X137097529Y-101900435D01*
X137115022Y-101977518D01*
X137125524Y-102019300D01*
X137130494Y-102029480D01*
X137144207Y-102039986D01*
X137171195Y-102048108D01*
X137216819Y-102054150D01*
X137286439Y-102058413D01*
X137385416Y-102061202D01*
X137519111Y-102062819D01*
X137692884Y-102063567D01*
X137912096Y-102063750D01*
X137992602Y-102063809D01*
X138178509Y-102064429D01*
X138344438Y-102065651D01*
X138484225Y-102067386D01*
X138591704Y-102069546D01*
X138660712Y-102072044D01*
X138685084Y-102074791D01*
X138687582Y-102088775D01*
X138699146Y-102146283D01*
X138718819Y-102241699D01*
X138745160Y-102368088D01*
X138776729Y-102518517D01*
X138812084Y-102686049D01*
X138837135Y-102804658D01*
X138869995Y-102960962D01*
X138898060Y-103095314D01*
X138919891Y-103200778D01*
X138934046Y-103270421D01*
X138939084Y-103297308D01*
X138922354Y-103299454D01*
X138860385Y-103301868D01*
X138758180Y-103304007D01*
X138621527Y-103305797D01*
X138456218Y-103307167D01*
X138268040Y-103308042D01*
X138062784Y-103308350D01*
X137942422Y-103308530D01*
X137729775Y-103309845D01*
X137545924Y-103312336D01*
X137395269Y-103315886D01*
X137282211Y-103320378D01*
X137211149Y-103325694D01*
X137186484Y-103331717D01*
X137186610Y-103333820D01*
X137193194Y-103373303D01*
X137207977Y-103448827D01*
X137228459Y-103548635D01*
X137252139Y-103660973D01*
X137276513Y-103774084D01*
X137299082Y-103876212D01*
X137317343Y-103955603D01*
X137328796Y-104000500D01*
X137328949Y-104000991D01*
X137334608Y-104010504D01*
X137347603Y-104018541D01*
X137371884Y-104025227D01*
X137411404Y-104030684D01*
X137470114Y-104035036D01*
X137551964Y-104038408D01*
X137660907Y-104040921D01*
X137800892Y-104042701D01*
X137975873Y-104043870D01*
X138189800Y-104044552D01*
X138446624Y-104044871D01*
X138750296Y-104044950D01*
X139041272Y-104044821D01*
X139303993Y-104044344D01*
X139523180Y-104043420D01*
X139702575Y-104041952D01*
X139845917Y-104039842D01*
X139956945Y-104036992D01*
X140039401Y-104033305D01*
X140097022Y-104028684D01*
X140133550Y-104023031D01*
X140152724Y-104016249D01*
X140158284Y-104008239D01*
X140158209Y-104007228D01*
X140151847Y-103971795D01*
X140135773Y-103890636D01*
X140110725Y-103767297D01*
X140077439Y-103605322D01*
X140036651Y-103408255D01*
X139989100Y-103179640D01*
X139935523Y-102923022D01*
X139876655Y-102641945D01*
X139813235Y-102339953D01*
X139745999Y-102020591D01*
X139675684Y-101687404D01*
X139666343Y-101643190D01*
X139596456Y-101312200D01*
X139529736Y-100995886D01*
X139466920Y-100697748D01*
X139408741Y-100421290D01*
X139355935Y-100170013D01*
X139309237Y-99947421D01*
X139269382Y-99757016D01*
X139237104Y-99602300D01*
X139213139Y-99486776D01*
X139198221Y-99413947D01*
X139193084Y-99387314D01*
X139186867Y-99385787D01*
X139138653Y-99382849D01*
X139046606Y-99380126D01*
X138915375Y-99377672D01*
X138749609Y-99375541D01*
X138553959Y-99373789D01*
X138333071Y-99372470D01*
X138091597Y-99371639D01*
X137834184Y-99371350D01*
X137567156Y-99371409D01*
X137311285Y-99371697D01*
X137098697Y-99372343D01*
X136925415Y-99373478D01*
X136787458Y-99375233D01*
X136680848Y-99377737D01*
X136601607Y-99381121D01*
X136545754Y-99385515D01*
X136509313Y-99391050D01*
X136488302Y-99397855D01*
X136478744Y-99406062D01*
X136476660Y-99415800D01*
X136240931Y-99415800D01*
X136236258Y-99392809D01*
X136214536Y-99282873D01*
X136200452Y-99207601D01*
X136195502Y-99174500D01*
X136197144Y-99171610D01*
X136215526Y-99165289D01*
X136256791Y-99159897D01*
X136324041Y-99155371D01*
X136420376Y-99151650D01*
X136548900Y-99148672D01*
X136712713Y-99146375D01*
X136914918Y-99144696D01*
X137158617Y-99143573D01*
X137446910Y-99142945D01*
X137782901Y-99142749D01*
X139369917Y-99142749D01*
X139383360Y-99199899D01*
X139385076Y-99207639D01*
X139396293Y-99259895D01*
X139416946Y-99356919D01*
X139446296Y-99495226D01*
X139483606Y-99671331D01*
X139528140Y-99881750D01*
X139579161Y-100122997D01*
X139635931Y-100391589D01*
X139697714Y-100684040D01*
X139763772Y-100996866D01*
X139833368Y-101326583D01*
X139905765Y-101669704D01*
X139934876Y-101807690D01*
X140006517Y-102147179D01*
X140075201Y-102472539D01*
X140140178Y-102780213D01*
X140200694Y-103066643D01*
X140255997Y-103328271D01*
X140305334Y-103561539D01*
X140347954Y-103762889D01*
X140383103Y-103928764D01*
X140399975Y-104008239D01*
G37*
X140399975Y-104008239D02*
X140410030Y-104055605D01*
X140427982Y-104139854D01*
X140436206Y-104177954D01*
X140457685Y-104273550D01*
X137147980Y-104273550D01*
X137027057Y-103695700D01*
X137006703Y-103598131D01*
X136974435Y-103442095D01*
X136946837Y-103306937D01*
X136925364Y-103199864D01*
X136911470Y-103128082D01*
X136906609Y-103098800D01*
X136923598Y-103095081D01*
X136985858Y-103090920D01*
X137088330Y-103087234D01*
X137225223Y-103084148D01*
X137390748Y-103081788D01*
X137579116Y-103080280D01*
X137784535Y-103079750D01*
X138661986Y-103079750D01*
X138646184Y-102997200D01*
X138635289Y-102943941D01*
X138615649Y-102852006D01*
X138590430Y-102736244D01*
X138562483Y-102609850D01*
X138494584Y-102305050D01*
X136945184Y-102291606D01*
X136832762Y-101752228D01*
X136820784Y-101694742D01*
X136787889Y-101536662D01*
X136758588Y-101395569D01*
X136734580Y-101279650D01*
X136717559Y-101197089D01*
X136709222Y-101156071D01*
X136698104Y-101099292D01*
X138242506Y-101085850D01*
X138088002Y-100349250D01*
X137260818Y-100342558D01*
X136433633Y-100335867D01*
X136314376Y-99771058D01*
X136296633Y-99686654D01*
X136264122Y-99529905D01*
X136240931Y-99415800D01*
X136476660Y-99415800D01*
X136476762Y-99417711D01*
X136483513Y-99462657D01*
X136499100Y-99545027D01*
X136521338Y-99653749D01*
X136548044Y-99777750D01*
X136618052Y-100095250D01*
X137445130Y-100101942D01*
X138272207Y-100108635D01*
X138328662Y-100381342D01*
X138353047Y-100498989D01*
X138386842Y-100661756D01*
X138422441Y-100832980D01*
X138455259Y-100990600D01*
X138525401Y-101327150D01*
X137754343Y-101327150D01*
X137675463Y-101327249D01*
X137489686Y-101328313D01*
X137323856Y-101330417D01*
X137184144Y-101333411D01*
X137076719Y-101337141D01*
X137007753Y-101341454D01*
X136983415Y-101346200D01*
X136983827Y-101350530D01*
X136991492Y-101394201D01*
X137006958Y-101472633D01*
X137027760Y-101574150D01*
X137051433Y-101687074D01*
X137075511Y-101799728D01*
X137097529Y-101900435D01*
X137115022Y-101977518D01*
X137125524Y-102019300D01*
X137130494Y-102029480D01*
X137144207Y-102039986D01*
X137171195Y-102048108D01*
X137216819Y-102054150D01*
X137286439Y-102058413D01*
X137385416Y-102061202D01*
X137519111Y-102062819D01*
X137692884Y-102063567D01*
X137912096Y-102063750D01*
X137992602Y-102063809D01*
X138178509Y-102064429D01*
X138344438Y-102065651D01*
X138484225Y-102067386D01*
X138591704Y-102069546D01*
X138660712Y-102072044D01*
X138685084Y-102074791D01*
X138687582Y-102088775D01*
X138699146Y-102146283D01*
X138718819Y-102241699D01*
X138745160Y-102368088D01*
X138776729Y-102518517D01*
X138812084Y-102686049D01*
X138837135Y-102804658D01*
X138869995Y-102960962D01*
X138898060Y-103095314D01*
X138919891Y-103200778D01*
X138934046Y-103270421D01*
X138939084Y-103297308D01*
X138922354Y-103299454D01*
X138860385Y-103301868D01*
X138758180Y-103304007D01*
X138621527Y-103305797D01*
X138456218Y-103307167D01*
X138268040Y-103308042D01*
X138062784Y-103308350D01*
X137942422Y-103308530D01*
X137729775Y-103309845D01*
X137545924Y-103312336D01*
X137395269Y-103315886D01*
X137282211Y-103320378D01*
X137211149Y-103325694D01*
X137186484Y-103331717D01*
X137186610Y-103333820D01*
X137193194Y-103373303D01*
X137207977Y-103448827D01*
X137228459Y-103548635D01*
X137252139Y-103660973D01*
X137276513Y-103774084D01*
X137299082Y-103876212D01*
X137317343Y-103955603D01*
X137328796Y-104000500D01*
X137328949Y-104000991D01*
X137334608Y-104010504D01*
X137347603Y-104018541D01*
X137371884Y-104025227D01*
X137411404Y-104030684D01*
X137470114Y-104035036D01*
X137551964Y-104038408D01*
X137660907Y-104040921D01*
X137800892Y-104042701D01*
X137975873Y-104043870D01*
X138189800Y-104044552D01*
X138446624Y-104044871D01*
X138750296Y-104044950D01*
X139041272Y-104044821D01*
X139303993Y-104044344D01*
X139523180Y-104043420D01*
X139702575Y-104041952D01*
X139845917Y-104039842D01*
X139956945Y-104036992D01*
X140039401Y-104033305D01*
X140097022Y-104028684D01*
X140133550Y-104023031D01*
X140152724Y-104016249D01*
X140158284Y-104008239D01*
X140158209Y-104007228D01*
X140151847Y-103971795D01*
X140135773Y-103890636D01*
X140110725Y-103767297D01*
X140077439Y-103605322D01*
X140036651Y-103408255D01*
X139989100Y-103179640D01*
X139935523Y-102923022D01*
X139876655Y-102641945D01*
X139813235Y-102339953D01*
X139745999Y-102020591D01*
X139675684Y-101687404D01*
X139666343Y-101643190D01*
X139596456Y-101312200D01*
X139529736Y-100995886D01*
X139466920Y-100697748D01*
X139408741Y-100421290D01*
X139355935Y-100170013D01*
X139309237Y-99947421D01*
X139269382Y-99757016D01*
X139237104Y-99602300D01*
X139213139Y-99486776D01*
X139198221Y-99413947D01*
X139193084Y-99387314D01*
X139186867Y-99385787D01*
X139138653Y-99382849D01*
X139046606Y-99380126D01*
X138915375Y-99377672D01*
X138749609Y-99375541D01*
X138553959Y-99373789D01*
X138333071Y-99372470D01*
X138091597Y-99371639D01*
X137834184Y-99371350D01*
X137567156Y-99371409D01*
X137311285Y-99371697D01*
X137098697Y-99372343D01*
X136925415Y-99373478D01*
X136787458Y-99375233D01*
X136680848Y-99377737D01*
X136601607Y-99381121D01*
X136545754Y-99385515D01*
X136509313Y-99391050D01*
X136488302Y-99397855D01*
X136478744Y-99406062D01*
X136476660Y-99415800D01*
X136240931Y-99415800D01*
X136236258Y-99392809D01*
X136214536Y-99282873D01*
X136200452Y-99207601D01*
X136195502Y-99174500D01*
X136197144Y-99171610D01*
X136215526Y-99165289D01*
X136256791Y-99159897D01*
X136324041Y-99155371D01*
X136420376Y-99151650D01*
X136548900Y-99148672D01*
X136712713Y-99146375D01*
X136914918Y-99144696D01*
X137158617Y-99143573D01*
X137446910Y-99142945D01*
X137782901Y-99142749D01*
X139369917Y-99142749D01*
X139383360Y-99199899D01*
X139385076Y-99207639D01*
X139396293Y-99259895D01*
X139416946Y-99356919D01*
X139446296Y-99495226D01*
X139483606Y-99671331D01*
X139528140Y-99881750D01*
X139579161Y-100122997D01*
X139635931Y-100391589D01*
X139697714Y-100684040D01*
X139763772Y-100996866D01*
X139833368Y-101326583D01*
X139905765Y-101669704D01*
X139934876Y-101807690D01*
X140006517Y-102147179D01*
X140075201Y-102472539D01*
X140140178Y-102780213D01*
X140200694Y-103066643D01*
X140255997Y-103328271D01*
X140305334Y-103561539D01*
X140347954Y-103762889D01*
X140383103Y-103928764D01*
X140399975Y-104008239D01*
%LPC*%
D12*
X107750000Y-137500000D03*
X146250000Y-137500000D03*
D13*
X115000000Y-123000000D03*
D14*
X118000000Y-123000000D03*
X121000000Y-123000000D03*
X124000000Y-123000000D03*
X127000000Y-123000000D03*
X130000000Y-123000000D03*
X133000000Y-123000000D03*
X136000000Y-123000000D03*
X139000000Y-123000000D03*
X116500000Y-125500000D03*
X119500000Y-125500000D03*
X122500000Y-125500000D03*
X125500000Y-125500000D03*
X128500000Y-125500000D03*
X131500000Y-125500000D03*
X134500000Y-125500000D03*
X137500000Y-125500000D03*
X116500000Y-128500000D03*
X119500000Y-128500000D03*
X122500000Y-128500000D03*
X125500000Y-128500000D03*
X128500000Y-128500000D03*
X131500000Y-128500000D03*
X134500000Y-128500000D03*
X137500000Y-128500000D03*
X115000000Y-131000000D03*
X118000000Y-131000000D03*
X121000000Y-131000000D03*
X124000000Y-131000000D03*
X127000000Y-131000000D03*
X130000000Y-131000000D03*
X133000000Y-131000000D03*
X136000000Y-131000000D03*
X139000000Y-131000000D03*
D15*
X115646200Y-102158800D03*
D16*
X109646199Y-102158799D03*
D17*
X116966199Y-102883799D03*
D18*
X116966199Y-99058799D03*
D17*
X108326199Y-102883799D03*
D18*
X108326199Y-99058799D03*
D19*
X100330000Y-99669600D03*
X101346000Y-104749600D03*
X99314000Y-104749600D03*
M02*
