G04 #@! TF.GenerationSoftware,KiCad,Pcbnew,(7.0.0)*
G04 #@! TF.CreationDate,2023-09-28T17:21:21-04:00*
G04 #@! TF.ProjectId,Brytec_InputModuleRev2,42727974-6563-45f4-996e-7075744d6f64,rev?*
G04 #@! TF.SameCoordinates,Original*
G04 #@! TF.FileFunction,Legend,Top*
G04 #@! TF.FilePolarity,Positive*
%FSLAX46Y46*%
G04 Gerber Fmt 4.6, Leading zero omitted, Abs format (unit mm)*
G04 Created by KiCad (PCBNEW (7.0.0)) date 2023-09-28 17:21:21*
%MOMM*%
%LPD*%
G01*
G04 APERTURE LIST*
G04 Aperture macros list*
%AMRoundRect*
0 Rectangle with rounded corners*
0 $1 Rounding radius*
0 $2 $3 $4 $5 $6 $7 $8 $9 X,Y pos of 4 corners*
0 Add a 4 corners polygon primitive as box body*
4,1,4,$2,$3,$4,$5,$6,$7,$8,$9,$2,$3,0*
0 Add four circle primitives for the rounded corners*
1,1,$1+$1,$2,$3*
1,1,$1+$1,$4,$5*
1,1,$1+$1,$6,$7*
1,1,$1+$1,$8,$9*
0 Add four rect primitives between the rounded corners*
20,1,$1+$1,$2,$3,$4,$5,0*
20,1,$1+$1,$4,$5,$6,$7,0*
20,1,$1+$1,$6,$7,$8,$9,0*
20,1,$1+$1,$8,$9,$2,$3,0*%
G04 Aperture macros list end*
%ADD10C,0.150000*%
%ADD11C,0.120000*%
%ADD12C,0.100000*%
%ADD13C,0.127000*%
%ADD14C,0.400000*%
%ADD15C,0.200000*%
%ADD16C,0.152400*%
%ADD17RoundRect,0.237500X0.237500X-0.300000X0.237500X0.300000X-0.237500X0.300000X-0.237500X-0.300000X0*%
%ADD18R,1.800000X1.000000*%
%ADD19RoundRect,0.237500X-0.250000X-0.237500X0.250000X-0.237500X0.250000X0.237500X-0.250000X0.237500X0*%
%ADD20RoundRect,0.237500X0.300000X0.237500X-0.300000X0.237500X-0.300000X-0.237500X0.300000X-0.237500X0*%
%ADD21RoundRect,0.250000X-0.475000X0.337500X-0.475000X-0.337500X0.475000X-0.337500X0.475000X0.337500X0*%
%ADD22RoundRect,0.070000X-0.650000X-0.300000X0.650000X-0.300000X0.650000X0.300000X-0.650000X0.300000X0*%
%ADD23RoundRect,0.237500X0.250000X0.237500X-0.250000X0.237500X-0.250000X-0.237500X0.250000X-0.237500X0*%
%ADD24RoundRect,0.237500X0.237500X-0.250000X0.237500X0.250000X-0.237500X0.250000X-0.237500X-0.250000X0*%
%ADD25R,0.350000X0.650000*%
%ADD26R,2.400000X1.550000*%
%ADD27RoundRect,0.150000X0.150000X-0.512500X0.150000X0.512500X-0.150000X0.512500X-0.150000X-0.512500X0*%
%ADD28R,1.300000X1.600000*%
%ADD29R,1.700000X0.800000*%
%ADD30RoundRect,0.237500X-0.300000X-0.237500X0.300000X-0.237500X0.300000X0.237500X-0.300000X0.237500X0*%
%ADD31C,3.300000*%
%ADD32RoundRect,0.102000X-0.975000X-0.975000X0.975000X-0.975000X0.975000X0.975000X-0.975000X0.975000X0*%
%ADD33C,2.154000*%
%ADD34RoundRect,0.150000X-0.150000X0.625000X-0.150000X-0.625000X0.150000X-0.625000X0.150000X0.625000X0*%
%ADD35RoundRect,0.012800X-0.317200X-0.147200X0.317200X-0.147200X0.317200X0.147200X-0.317200X0.147200X0*%
%ADD36RoundRect,0.237500X-0.237500X0.250000X-0.237500X-0.250000X0.237500X-0.250000X0.237500X0.250000X0*%
%ADD37C,0.600000*%
%ADD38R,1.000000X2.000000*%
%ADD39O,0.850000X0.600000*%
%ADD40R,0.520000X1.000000*%
%ADD41R,0.270000X1.000000*%
%ADD42O,1.300000X2.300000*%
%ADD43O,1.300000X2.600000*%
%ADD44R,1.320000X0.450000*%
%ADD45R,2.770000X6.400000*%
%ADD46R,0.650000X1.560000*%
%ADD47R,0.279400X1.346200*%
%ADD48R,1.346200X0.279400*%
%ADD49R,4.140200X4.140200*%
%ADD50C,0.990600*%
%ADD51C,0.787400*%
%ADD52RoundRect,0.237500X-0.287500X-0.237500X0.287500X-0.237500X0.287500X0.237500X-0.287500X0.237500X0*%
%ADD53RoundRect,0.237500X-0.237500X0.300000X-0.237500X-0.300000X0.237500X-0.300000X0.237500X0.300000X0*%
%ADD54RoundRect,0.062500X0.375000X0.062500X-0.375000X0.062500X-0.375000X-0.062500X0.375000X-0.062500X0*%
%ADD55RoundRect,0.062500X0.062500X0.375000X-0.062500X0.375000X-0.062500X-0.375000X0.062500X-0.375000X0*%
%ADD56R,5.600000X5.600000*%
%ADD57R,1.200000X3.300000*%
%ADD58RoundRect,0.250000X0.337500X0.475000X-0.337500X0.475000X-0.337500X-0.475000X0.337500X-0.475000X0*%
G04 APERTURE END LIST*
D10*
X120160142Y-115095257D02*
X120207761Y-115142876D01*
X120207761Y-115142876D02*
X120255380Y-115285733D01*
X120255380Y-115285733D02*
X120255380Y-115380971D01*
X120255380Y-115380971D02*
X120207761Y-115523828D01*
X120207761Y-115523828D02*
X120112523Y-115619066D01*
X120112523Y-115619066D02*
X120017285Y-115666685D01*
X120017285Y-115666685D02*
X119826809Y-115714304D01*
X119826809Y-115714304D02*
X119683952Y-115714304D01*
X119683952Y-115714304D02*
X119493476Y-115666685D01*
X119493476Y-115666685D02*
X119398238Y-115619066D01*
X119398238Y-115619066D02*
X119303000Y-115523828D01*
X119303000Y-115523828D02*
X119255380Y-115380971D01*
X119255380Y-115380971D02*
X119255380Y-115285733D01*
X119255380Y-115285733D02*
X119303000Y-115142876D01*
X119303000Y-115142876D02*
X119350619Y-115095257D01*
X119255380Y-114761923D02*
X119255380Y-114142876D01*
X119255380Y-114142876D02*
X119636333Y-114476209D01*
X119636333Y-114476209D02*
X119636333Y-114333352D01*
X119636333Y-114333352D02*
X119683952Y-114238114D01*
X119683952Y-114238114D02*
X119731571Y-114190495D01*
X119731571Y-114190495D02*
X119826809Y-114142876D01*
X119826809Y-114142876D02*
X120064904Y-114142876D01*
X120064904Y-114142876D02*
X120160142Y-114190495D01*
X120160142Y-114190495D02*
X120207761Y-114238114D01*
X120207761Y-114238114D02*
X120255380Y-114333352D01*
X120255380Y-114333352D02*
X120255380Y-114619066D01*
X120255380Y-114619066D02*
X120207761Y-114714304D01*
X120207761Y-114714304D02*
X120160142Y-114761923D01*
X119255380Y-113238114D02*
X119255380Y-113714304D01*
X119255380Y-113714304D02*
X119731571Y-113761923D01*
X119731571Y-113761923D02*
X119683952Y-113714304D01*
X119683952Y-113714304D02*
X119636333Y-113619066D01*
X119636333Y-113619066D02*
X119636333Y-113380971D01*
X119636333Y-113380971D02*
X119683952Y-113285733D01*
X119683952Y-113285733D02*
X119731571Y-113238114D01*
X119731571Y-113238114D02*
X119826809Y-113190495D01*
X119826809Y-113190495D02*
X120064904Y-113190495D01*
X120064904Y-113190495D02*
X120160142Y-113238114D01*
X120160142Y-113238114D02*
X120207761Y-113285733D01*
X120207761Y-113285733D02*
X120255380Y-113380971D01*
X120255380Y-113380971D02*
X120255380Y-113619066D01*
X120255380Y-113619066D02*
X120207761Y-113714304D01*
X120207761Y-113714304D02*
X120160142Y-113761923D01*
X131596790Y-108222990D02*
X132072980Y-108222990D01*
X131072980Y-108556323D02*
X131596790Y-108222990D01*
X131596790Y-108222990D02*
X131072980Y-107889657D01*
X131168219Y-107603942D02*
X131120600Y-107556323D01*
X131120600Y-107556323D02*
X131072980Y-107461085D01*
X131072980Y-107461085D02*
X131072980Y-107222990D01*
X131072980Y-107222990D02*
X131120600Y-107127752D01*
X131120600Y-107127752D02*
X131168219Y-107080133D01*
X131168219Y-107080133D02*
X131263457Y-107032514D01*
X131263457Y-107032514D02*
X131358695Y-107032514D01*
X131358695Y-107032514D02*
X131501552Y-107080133D01*
X131501552Y-107080133D02*
X132072980Y-107651561D01*
X132072980Y-107651561D02*
X132072980Y-107032514D01*
X155934142Y-116804180D02*
X155600809Y-116327990D01*
X155362714Y-116804180D02*
X155362714Y-115804180D01*
X155362714Y-115804180D02*
X155743666Y-115804180D01*
X155743666Y-115804180D02*
X155838904Y-115851800D01*
X155838904Y-115851800D02*
X155886523Y-115899419D01*
X155886523Y-115899419D02*
X155934142Y-115994657D01*
X155934142Y-115994657D02*
X155934142Y-116137514D01*
X155934142Y-116137514D02*
X155886523Y-116232752D01*
X155886523Y-116232752D02*
X155838904Y-116280371D01*
X155838904Y-116280371D02*
X155743666Y-116327990D01*
X155743666Y-116327990D02*
X155362714Y-116327990D01*
X156886523Y-116804180D02*
X156315095Y-116804180D01*
X156600809Y-116804180D02*
X156600809Y-115804180D01*
X156600809Y-115804180D02*
X156505571Y-115947038D01*
X156505571Y-115947038D02*
X156410333Y-116042276D01*
X156410333Y-116042276D02*
X156315095Y-116089895D01*
X157791285Y-115804180D02*
X157315095Y-115804180D01*
X157315095Y-115804180D02*
X157267476Y-116280371D01*
X157267476Y-116280371D02*
X157315095Y-116232752D01*
X157315095Y-116232752D02*
X157410333Y-116185133D01*
X157410333Y-116185133D02*
X157648428Y-116185133D01*
X157648428Y-116185133D02*
X157743666Y-116232752D01*
X157743666Y-116232752D02*
X157791285Y-116280371D01*
X157791285Y-116280371D02*
X157838904Y-116375609D01*
X157838904Y-116375609D02*
X157838904Y-116613704D01*
X157838904Y-116613704D02*
X157791285Y-116708942D01*
X157791285Y-116708942D02*
X157743666Y-116756561D01*
X157743666Y-116756561D02*
X157648428Y-116804180D01*
X157648428Y-116804180D02*
X157410333Y-116804180D01*
X157410333Y-116804180D02*
X157315095Y-116756561D01*
X157315095Y-116756561D02*
X157267476Y-116708942D01*
X149166942Y-120708657D02*
X149214561Y-120756276D01*
X149214561Y-120756276D02*
X149262180Y-120899133D01*
X149262180Y-120899133D02*
X149262180Y-120994371D01*
X149262180Y-120994371D02*
X149214561Y-121137228D01*
X149214561Y-121137228D02*
X149119323Y-121232466D01*
X149119323Y-121232466D02*
X149024085Y-121280085D01*
X149024085Y-121280085D02*
X148833609Y-121327704D01*
X148833609Y-121327704D02*
X148690752Y-121327704D01*
X148690752Y-121327704D02*
X148500276Y-121280085D01*
X148500276Y-121280085D02*
X148405038Y-121232466D01*
X148405038Y-121232466D02*
X148309800Y-121137228D01*
X148309800Y-121137228D02*
X148262180Y-120994371D01*
X148262180Y-120994371D02*
X148262180Y-120899133D01*
X148262180Y-120899133D02*
X148309800Y-120756276D01*
X148309800Y-120756276D02*
X148357419Y-120708657D01*
X148595514Y-119851514D02*
X149262180Y-119851514D01*
X148214561Y-120089609D02*
X148928847Y-120327704D01*
X148928847Y-120327704D02*
X148928847Y-119708657D01*
X148262180Y-118851514D02*
X148262180Y-119327704D01*
X148262180Y-119327704D02*
X148738371Y-119375323D01*
X148738371Y-119375323D02*
X148690752Y-119327704D01*
X148690752Y-119327704D02*
X148643133Y-119232466D01*
X148643133Y-119232466D02*
X148643133Y-118994371D01*
X148643133Y-118994371D02*
X148690752Y-118899133D01*
X148690752Y-118899133D02*
X148738371Y-118851514D01*
X148738371Y-118851514D02*
X148833609Y-118803895D01*
X148833609Y-118803895D02*
X149071704Y-118803895D01*
X149071704Y-118803895D02*
X149166942Y-118851514D01*
X149166942Y-118851514D02*
X149214561Y-118899133D01*
X149214561Y-118899133D02*
X149262180Y-118994371D01*
X149262180Y-118994371D02*
X149262180Y-119232466D01*
X149262180Y-119232466D02*
X149214561Y-119327704D01*
X149214561Y-119327704D02*
X149166942Y-119375323D01*
X92041742Y-122623942D02*
X91994123Y-122671561D01*
X91994123Y-122671561D02*
X91851266Y-122719180D01*
X91851266Y-122719180D02*
X91756028Y-122719180D01*
X91756028Y-122719180D02*
X91613171Y-122671561D01*
X91613171Y-122671561D02*
X91517933Y-122576323D01*
X91517933Y-122576323D02*
X91470314Y-122481085D01*
X91470314Y-122481085D02*
X91422695Y-122290609D01*
X91422695Y-122290609D02*
X91422695Y-122147752D01*
X91422695Y-122147752D02*
X91470314Y-121957276D01*
X91470314Y-121957276D02*
X91517933Y-121862038D01*
X91517933Y-121862038D02*
X91613171Y-121766800D01*
X91613171Y-121766800D02*
X91756028Y-121719180D01*
X91756028Y-121719180D02*
X91851266Y-121719180D01*
X91851266Y-121719180D02*
X91994123Y-121766800D01*
X91994123Y-121766800D02*
X92041742Y-121814419D01*
X92375076Y-121719180D02*
X92994123Y-121719180D01*
X92994123Y-121719180D02*
X92660790Y-122100133D01*
X92660790Y-122100133D02*
X92803647Y-122100133D01*
X92803647Y-122100133D02*
X92898885Y-122147752D01*
X92898885Y-122147752D02*
X92946504Y-122195371D01*
X92946504Y-122195371D02*
X92994123Y-122290609D01*
X92994123Y-122290609D02*
X92994123Y-122528704D01*
X92994123Y-122528704D02*
X92946504Y-122623942D01*
X92946504Y-122623942D02*
X92898885Y-122671561D01*
X92898885Y-122671561D02*
X92803647Y-122719180D01*
X92803647Y-122719180D02*
X92517933Y-122719180D01*
X92517933Y-122719180D02*
X92422695Y-122671561D01*
X92422695Y-122671561D02*
X92375076Y-122623942D01*
X93946504Y-122719180D02*
X93375076Y-122719180D01*
X93660790Y-122719180D02*
X93660790Y-121719180D01*
X93660790Y-121719180D02*
X93565552Y-121862038D01*
X93565552Y-121862038D02*
X93470314Y-121957276D01*
X93470314Y-121957276D02*
X93375076Y-122004895D01*
X88892142Y-116527942D02*
X88844523Y-116575561D01*
X88844523Y-116575561D02*
X88701666Y-116623180D01*
X88701666Y-116623180D02*
X88606428Y-116623180D01*
X88606428Y-116623180D02*
X88463571Y-116575561D01*
X88463571Y-116575561D02*
X88368333Y-116480323D01*
X88368333Y-116480323D02*
X88320714Y-116385085D01*
X88320714Y-116385085D02*
X88273095Y-116194609D01*
X88273095Y-116194609D02*
X88273095Y-116051752D01*
X88273095Y-116051752D02*
X88320714Y-115861276D01*
X88320714Y-115861276D02*
X88368333Y-115766038D01*
X88368333Y-115766038D02*
X88463571Y-115670800D01*
X88463571Y-115670800D02*
X88606428Y-115623180D01*
X88606428Y-115623180D02*
X88701666Y-115623180D01*
X88701666Y-115623180D02*
X88844523Y-115670800D01*
X88844523Y-115670800D02*
X88892142Y-115718419D01*
X89273095Y-115718419D02*
X89320714Y-115670800D01*
X89320714Y-115670800D02*
X89415952Y-115623180D01*
X89415952Y-115623180D02*
X89654047Y-115623180D01*
X89654047Y-115623180D02*
X89749285Y-115670800D01*
X89749285Y-115670800D02*
X89796904Y-115718419D01*
X89796904Y-115718419D02*
X89844523Y-115813657D01*
X89844523Y-115813657D02*
X89844523Y-115908895D01*
X89844523Y-115908895D02*
X89796904Y-116051752D01*
X89796904Y-116051752D02*
X89225476Y-116623180D01*
X89225476Y-116623180D02*
X89844523Y-116623180D01*
X90225476Y-115718419D02*
X90273095Y-115670800D01*
X90273095Y-115670800D02*
X90368333Y-115623180D01*
X90368333Y-115623180D02*
X90606428Y-115623180D01*
X90606428Y-115623180D02*
X90701666Y-115670800D01*
X90701666Y-115670800D02*
X90749285Y-115718419D01*
X90749285Y-115718419D02*
X90796904Y-115813657D01*
X90796904Y-115813657D02*
X90796904Y-115908895D01*
X90796904Y-115908895D02*
X90749285Y-116051752D01*
X90749285Y-116051752D02*
X90177857Y-116623180D01*
X90177857Y-116623180D02*
X90796904Y-116623180D01*
X156341142Y-133970657D02*
X156388761Y-134018276D01*
X156388761Y-134018276D02*
X156436380Y-134161133D01*
X156436380Y-134161133D02*
X156436380Y-134256371D01*
X156436380Y-134256371D02*
X156388761Y-134399228D01*
X156388761Y-134399228D02*
X156293523Y-134494466D01*
X156293523Y-134494466D02*
X156198285Y-134542085D01*
X156198285Y-134542085D02*
X156007809Y-134589704D01*
X156007809Y-134589704D02*
X155864952Y-134589704D01*
X155864952Y-134589704D02*
X155674476Y-134542085D01*
X155674476Y-134542085D02*
X155579238Y-134494466D01*
X155579238Y-134494466D02*
X155484000Y-134399228D01*
X155484000Y-134399228D02*
X155436380Y-134256371D01*
X155436380Y-134256371D02*
X155436380Y-134161133D01*
X155436380Y-134161133D02*
X155484000Y-134018276D01*
X155484000Y-134018276D02*
X155531619Y-133970657D01*
X155436380Y-133637323D02*
X155436380Y-133018276D01*
X155436380Y-133018276D02*
X155817333Y-133351609D01*
X155817333Y-133351609D02*
X155817333Y-133208752D01*
X155817333Y-133208752D02*
X155864952Y-133113514D01*
X155864952Y-133113514D02*
X155912571Y-133065895D01*
X155912571Y-133065895D02*
X156007809Y-133018276D01*
X156007809Y-133018276D02*
X156245904Y-133018276D01*
X156245904Y-133018276D02*
X156341142Y-133065895D01*
X156341142Y-133065895D02*
X156388761Y-133113514D01*
X156388761Y-133113514D02*
X156436380Y-133208752D01*
X156436380Y-133208752D02*
X156436380Y-133494466D01*
X156436380Y-133494466D02*
X156388761Y-133589704D01*
X156388761Y-133589704D02*
X156341142Y-133637323D01*
X155864952Y-132446847D02*
X155817333Y-132542085D01*
X155817333Y-132542085D02*
X155769714Y-132589704D01*
X155769714Y-132589704D02*
X155674476Y-132637323D01*
X155674476Y-132637323D02*
X155626857Y-132637323D01*
X155626857Y-132637323D02*
X155531619Y-132589704D01*
X155531619Y-132589704D02*
X155484000Y-132542085D01*
X155484000Y-132542085D02*
X155436380Y-132446847D01*
X155436380Y-132446847D02*
X155436380Y-132256371D01*
X155436380Y-132256371D02*
X155484000Y-132161133D01*
X155484000Y-132161133D02*
X155531619Y-132113514D01*
X155531619Y-132113514D02*
X155626857Y-132065895D01*
X155626857Y-132065895D02*
X155674476Y-132065895D01*
X155674476Y-132065895D02*
X155769714Y-132113514D01*
X155769714Y-132113514D02*
X155817333Y-132161133D01*
X155817333Y-132161133D02*
X155864952Y-132256371D01*
X155864952Y-132256371D02*
X155864952Y-132446847D01*
X155864952Y-132446847D02*
X155912571Y-132542085D01*
X155912571Y-132542085D02*
X155960190Y-132589704D01*
X155960190Y-132589704D02*
X156055428Y-132637323D01*
X156055428Y-132637323D02*
X156245904Y-132637323D01*
X156245904Y-132637323D02*
X156341142Y-132589704D01*
X156341142Y-132589704D02*
X156388761Y-132542085D01*
X156388761Y-132542085D02*
X156436380Y-132446847D01*
X156436380Y-132446847D02*
X156436380Y-132256371D01*
X156436380Y-132256371D02*
X156388761Y-132161133D01*
X156388761Y-132161133D02*
X156341142Y-132113514D01*
X156341142Y-132113514D02*
X156245904Y-132065895D01*
X156245904Y-132065895D02*
X156055428Y-132065895D01*
X156055428Y-132065895D02*
X155960190Y-132113514D01*
X155960190Y-132113514D02*
X155912571Y-132161133D01*
X155912571Y-132161133D02*
X155864952Y-132256371D01*
X116432105Y-112279780D02*
X116432105Y-111279780D01*
X116432105Y-111279780D02*
X116670200Y-111279780D01*
X116670200Y-111279780D02*
X116813057Y-111327400D01*
X116813057Y-111327400D02*
X116908295Y-111422638D01*
X116908295Y-111422638D02*
X116955914Y-111517876D01*
X116955914Y-111517876D02*
X117003533Y-111708352D01*
X117003533Y-111708352D02*
X117003533Y-111851209D01*
X117003533Y-111851209D02*
X116955914Y-112041685D01*
X116955914Y-112041685D02*
X116908295Y-112136923D01*
X116908295Y-112136923D02*
X116813057Y-112232161D01*
X116813057Y-112232161D02*
X116670200Y-112279780D01*
X116670200Y-112279780D02*
X116432105Y-112279780D01*
X117384486Y-111375019D02*
X117432105Y-111327400D01*
X117432105Y-111327400D02*
X117527343Y-111279780D01*
X117527343Y-111279780D02*
X117765438Y-111279780D01*
X117765438Y-111279780D02*
X117860676Y-111327400D01*
X117860676Y-111327400D02*
X117908295Y-111375019D01*
X117908295Y-111375019D02*
X117955914Y-111470257D01*
X117955914Y-111470257D02*
X117955914Y-111565495D01*
X117955914Y-111565495D02*
X117908295Y-111708352D01*
X117908295Y-111708352D02*
X117336867Y-112279780D01*
X117336867Y-112279780D02*
X117955914Y-112279780D01*
X166983142Y-111882942D02*
X166935523Y-111930561D01*
X166935523Y-111930561D02*
X166792666Y-111978180D01*
X166792666Y-111978180D02*
X166697428Y-111978180D01*
X166697428Y-111978180D02*
X166554571Y-111930561D01*
X166554571Y-111930561D02*
X166459333Y-111835323D01*
X166459333Y-111835323D02*
X166411714Y-111740085D01*
X166411714Y-111740085D02*
X166364095Y-111549609D01*
X166364095Y-111549609D02*
X166364095Y-111406752D01*
X166364095Y-111406752D02*
X166411714Y-111216276D01*
X166411714Y-111216276D02*
X166459333Y-111121038D01*
X166459333Y-111121038D02*
X166554571Y-111025800D01*
X166554571Y-111025800D02*
X166697428Y-110978180D01*
X166697428Y-110978180D02*
X166792666Y-110978180D01*
X166792666Y-110978180D02*
X166935523Y-111025800D01*
X166935523Y-111025800D02*
X166983142Y-111073419D01*
X167840285Y-111311514D02*
X167840285Y-111978180D01*
X167602190Y-110930561D02*
X167364095Y-111644847D01*
X167364095Y-111644847D02*
X167983142Y-111644847D01*
X168887904Y-111978180D02*
X168316476Y-111978180D01*
X168602190Y-111978180D02*
X168602190Y-110978180D01*
X168602190Y-110978180D02*
X168506952Y-111121038D01*
X168506952Y-111121038D02*
X168411714Y-111216276D01*
X168411714Y-111216276D02*
X168316476Y-111263895D01*
X126256142Y-115095257D02*
X126303761Y-115142876D01*
X126303761Y-115142876D02*
X126351380Y-115285733D01*
X126351380Y-115285733D02*
X126351380Y-115380971D01*
X126351380Y-115380971D02*
X126303761Y-115523828D01*
X126303761Y-115523828D02*
X126208523Y-115619066D01*
X126208523Y-115619066D02*
X126113285Y-115666685D01*
X126113285Y-115666685D02*
X125922809Y-115714304D01*
X125922809Y-115714304D02*
X125779952Y-115714304D01*
X125779952Y-115714304D02*
X125589476Y-115666685D01*
X125589476Y-115666685D02*
X125494238Y-115619066D01*
X125494238Y-115619066D02*
X125399000Y-115523828D01*
X125399000Y-115523828D02*
X125351380Y-115380971D01*
X125351380Y-115380971D02*
X125351380Y-115285733D01*
X125351380Y-115285733D02*
X125399000Y-115142876D01*
X125399000Y-115142876D02*
X125446619Y-115095257D01*
X125351380Y-114761923D02*
X125351380Y-114142876D01*
X125351380Y-114142876D02*
X125732333Y-114476209D01*
X125732333Y-114476209D02*
X125732333Y-114333352D01*
X125732333Y-114333352D02*
X125779952Y-114238114D01*
X125779952Y-114238114D02*
X125827571Y-114190495D01*
X125827571Y-114190495D02*
X125922809Y-114142876D01*
X125922809Y-114142876D02*
X126160904Y-114142876D01*
X126160904Y-114142876D02*
X126256142Y-114190495D01*
X126256142Y-114190495D02*
X126303761Y-114238114D01*
X126303761Y-114238114D02*
X126351380Y-114333352D01*
X126351380Y-114333352D02*
X126351380Y-114619066D01*
X126351380Y-114619066D02*
X126303761Y-114714304D01*
X126303761Y-114714304D02*
X126256142Y-114761923D01*
X125351380Y-113809542D02*
X125351380Y-113190495D01*
X125351380Y-113190495D02*
X125732333Y-113523828D01*
X125732333Y-113523828D02*
X125732333Y-113380971D01*
X125732333Y-113380971D02*
X125779952Y-113285733D01*
X125779952Y-113285733D02*
X125827571Y-113238114D01*
X125827571Y-113238114D02*
X125922809Y-113190495D01*
X125922809Y-113190495D02*
X126160904Y-113190495D01*
X126160904Y-113190495D02*
X126256142Y-113238114D01*
X126256142Y-113238114D02*
X126303761Y-113285733D01*
X126303761Y-113285733D02*
X126351380Y-113380971D01*
X126351380Y-113380971D02*
X126351380Y-113666685D01*
X126351380Y-113666685D02*
X126303761Y-113761923D01*
X126303761Y-113761923D02*
X126256142Y-113809542D01*
X162945142Y-123404257D02*
X162992761Y-123451876D01*
X162992761Y-123451876D02*
X163040380Y-123594733D01*
X163040380Y-123594733D02*
X163040380Y-123689971D01*
X163040380Y-123689971D02*
X162992761Y-123832828D01*
X162992761Y-123832828D02*
X162897523Y-123928066D01*
X162897523Y-123928066D02*
X162802285Y-123975685D01*
X162802285Y-123975685D02*
X162611809Y-124023304D01*
X162611809Y-124023304D02*
X162468952Y-124023304D01*
X162468952Y-124023304D02*
X162278476Y-123975685D01*
X162278476Y-123975685D02*
X162183238Y-123928066D01*
X162183238Y-123928066D02*
X162088000Y-123832828D01*
X162088000Y-123832828D02*
X162040380Y-123689971D01*
X162040380Y-123689971D02*
X162040380Y-123594733D01*
X162040380Y-123594733D02*
X162088000Y-123451876D01*
X162088000Y-123451876D02*
X162135619Y-123404257D01*
X162040380Y-123070923D02*
X162040380Y-122451876D01*
X162040380Y-122451876D02*
X162421333Y-122785209D01*
X162421333Y-122785209D02*
X162421333Y-122642352D01*
X162421333Y-122642352D02*
X162468952Y-122547114D01*
X162468952Y-122547114D02*
X162516571Y-122499495D01*
X162516571Y-122499495D02*
X162611809Y-122451876D01*
X162611809Y-122451876D02*
X162849904Y-122451876D01*
X162849904Y-122451876D02*
X162945142Y-122499495D01*
X162945142Y-122499495D02*
X162992761Y-122547114D01*
X162992761Y-122547114D02*
X163040380Y-122642352D01*
X163040380Y-122642352D02*
X163040380Y-122928066D01*
X163040380Y-122928066D02*
X162992761Y-123023304D01*
X162992761Y-123023304D02*
X162945142Y-123070923D01*
X163040380Y-121975685D02*
X163040380Y-121785209D01*
X163040380Y-121785209D02*
X162992761Y-121689971D01*
X162992761Y-121689971D02*
X162945142Y-121642352D01*
X162945142Y-121642352D02*
X162802285Y-121547114D01*
X162802285Y-121547114D02*
X162611809Y-121499495D01*
X162611809Y-121499495D02*
X162230857Y-121499495D01*
X162230857Y-121499495D02*
X162135619Y-121547114D01*
X162135619Y-121547114D02*
X162088000Y-121594733D01*
X162088000Y-121594733D02*
X162040380Y-121689971D01*
X162040380Y-121689971D02*
X162040380Y-121880447D01*
X162040380Y-121880447D02*
X162088000Y-121975685D01*
X162088000Y-121975685D02*
X162135619Y-122023304D01*
X162135619Y-122023304D02*
X162230857Y-122070923D01*
X162230857Y-122070923D02*
X162468952Y-122070923D01*
X162468952Y-122070923D02*
X162564190Y-122023304D01*
X162564190Y-122023304D02*
X162611809Y-121975685D01*
X162611809Y-121975685D02*
X162659428Y-121880447D01*
X162659428Y-121880447D02*
X162659428Y-121689971D01*
X162659428Y-121689971D02*
X162611809Y-121594733D01*
X162611809Y-121594733D02*
X162564190Y-121547114D01*
X162564190Y-121547114D02*
X162468952Y-121499495D01*
X112304533Y-108088780D02*
X111971200Y-107612590D01*
X111733105Y-108088780D02*
X111733105Y-107088780D01*
X111733105Y-107088780D02*
X112114057Y-107088780D01*
X112114057Y-107088780D02*
X112209295Y-107136400D01*
X112209295Y-107136400D02*
X112256914Y-107184019D01*
X112256914Y-107184019D02*
X112304533Y-107279257D01*
X112304533Y-107279257D02*
X112304533Y-107422114D01*
X112304533Y-107422114D02*
X112256914Y-107517352D01*
X112256914Y-107517352D02*
X112209295Y-107564971D01*
X112209295Y-107564971D02*
X112114057Y-107612590D01*
X112114057Y-107612590D02*
X111733105Y-107612590D01*
X113256914Y-108088780D02*
X112685486Y-108088780D01*
X112971200Y-108088780D02*
X112971200Y-107088780D01*
X112971200Y-107088780D02*
X112875962Y-107231638D01*
X112875962Y-107231638D02*
X112780724Y-107326876D01*
X112780724Y-107326876D02*
X112685486Y-107374495D01*
X109949342Y-120708657D02*
X109996961Y-120756276D01*
X109996961Y-120756276D02*
X110044580Y-120899133D01*
X110044580Y-120899133D02*
X110044580Y-120994371D01*
X110044580Y-120994371D02*
X109996961Y-121137228D01*
X109996961Y-121137228D02*
X109901723Y-121232466D01*
X109901723Y-121232466D02*
X109806485Y-121280085D01*
X109806485Y-121280085D02*
X109616009Y-121327704D01*
X109616009Y-121327704D02*
X109473152Y-121327704D01*
X109473152Y-121327704D02*
X109282676Y-121280085D01*
X109282676Y-121280085D02*
X109187438Y-121232466D01*
X109187438Y-121232466D02*
X109092200Y-121137228D01*
X109092200Y-121137228D02*
X109044580Y-120994371D01*
X109044580Y-120994371D02*
X109044580Y-120899133D01*
X109044580Y-120899133D02*
X109092200Y-120756276D01*
X109092200Y-120756276D02*
X109139819Y-120708657D01*
X110044580Y-119756276D02*
X110044580Y-120327704D01*
X110044580Y-120041990D02*
X109044580Y-120041990D01*
X109044580Y-120041990D02*
X109187438Y-120137228D01*
X109187438Y-120137228D02*
X109282676Y-120232466D01*
X109282676Y-120232466D02*
X109330295Y-120327704D01*
X110044580Y-119280085D02*
X110044580Y-119089609D01*
X110044580Y-119089609D02*
X109996961Y-118994371D01*
X109996961Y-118994371D02*
X109949342Y-118946752D01*
X109949342Y-118946752D02*
X109806485Y-118851514D01*
X109806485Y-118851514D02*
X109616009Y-118803895D01*
X109616009Y-118803895D02*
X109235057Y-118803895D01*
X109235057Y-118803895D02*
X109139819Y-118851514D01*
X109139819Y-118851514D02*
X109092200Y-118899133D01*
X109092200Y-118899133D02*
X109044580Y-118994371D01*
X109044580Y-118994371D02*
X109044580Y-119184847D01*
X109044580Y-119184847D02*
X109092200Y-119280085D01*
X109092200Y-119280085D02*
X109139819Y-119327704D01*
X109139819Y-119327704D02*
X109235057Y-119375323D01*
X109235057Y-119375323D02*
X109473152Y-119375323D01*
X109473152Y-119375323D02*
X109568390Y-119327704D01*
X109568390Y-119327704D02*
X109616009Y-119280085D01*
X109616009Y-119280085D02*
X109663628Y-119184847D01*
X109663628Y-119184847D02*
X109663628Y-118994371D01*
X109663628Y-118994371D02*
X109616009Y-118899133D01*
X109616009Y-118899133D02*
X109568390Y-118851514D01*
X109568390Y-118851514D02*
X109473152Y-118803895D01*
X101586380Y-108694457D02*
X101110190Y-109027790D01*
X101586380Y-109265885D02*
X100586380Y-109265885D01*
X100586380Y-109265885D02*
X100586380Y-108884933D01*
X100586380Y-108884933D02*
X100634000Y-108789695D01*
X100634000Y-108789695D02*
X100681619Y-108742076D01*
X100681619Y-108742076D02*
X100776857Y-108694457D01*
X100776857Y-108694457D02*
X100919714Y-108694457D01*
X100919714Y-108694457D02*
X101014952Y-108742076D01*
X101014952Y-108742076D02*
X101062571Y-108789695D01*
X101062571Y-108789695D02*
X101110190Y-108884933D01*
X101110190Y-108884933D02*
X101110190Y-109265885D01*
X101586380Y-107742076D02*
X101586380Y-108313504D01*
X101586380Y-108027790D02*
X100586380Y-108027790D01*
X100586380Y-108027790D02*
X100729238Y-108123028D01*
X100729238Y-108123028D02*
X100824476Y-108218266D01*
X100824476Y-108218266D02*
X100872095Y-108313504D01*
X100919714Y-106884933D02*
X101586380Y-106884933D01*
X100538761Y-107123028D02*
X101253047Y-107361123D01*
X101253047Y-107361123D02*
X101253047Y-106742076D01*
X130406380Y-118059704D02*
X131215904Y-118059704D01*
X131215904Y-118059704D02*
X131311142Y-118012085D01*
X131311142Y-118012085D02*
X131358761Y-117964466D01*
X131358761Y-117964466D02*
X131406380Y-117869228D01*
X131406380Y-117869228D02*
X131406380Y-117678752D01*
X131406380Y-117678752D02*
X131358761Y-117583514D01*
X131358761Y-117583514D02*
X131311142Y-117535895D01*
X131311142Y-117535895D02*
X131215904Y-117488276D01*
X131215904Y-117488276D02*
X130406380Y-117488276D01*
X130739714Y-116583514D02*
X131406380Y-116583514D01*
X130358761Y-116821609D02*
X131073047Y-117059704D01*
X131073047Y-117059704D02*
X131073047Y-116440657D01*
X103319342Y-126442642D02*
X103271723Y-126490261D01*
X103271723Y-126490261D02*
X103128866Y-126537880D01*
X103128866Y-126537880D02*
X103033628Y-126537880D01*
X103033628Y-126537880D02*
X102890771Y-126490261D01*
X102890771Y-126490261D02*
X102795533Y-126395023D01*
X102795533Y-126395023D02*
X102747914Y-126299785D01*
X102747914Y-126299785D02*
X102700295Y-126109309D01*
X102700295Y-126109309D02*
X102700295Y-125966452D01*
X102700295Y-125966452D02*
X102747914Y-125775976D01*
X102747914Y-125775976D02*
X102795533Y-125680738D01*
X102795533Y-125680738D02*
X102890771Y-125585500D01*
X102890771Y-125585500D02*
X103033628Y-125537880D01*
X103033628Y-125537880D02*
X103128866Y-125537880D01*
X103128866Y-125537880D02*
X103271723Y-125585500D01*
X103271723Y-125585500D02*
X103319342Y-125633119D01*
X104271723Y-126537880D02*
X103700295Y-126537880D01*
X103986009Y-126537880D02*
X103986009Y-125537880D01*
X103986009Y-125537880D02*
X103890771Y-125680738D01*
X103890771Y-125680738D02*
X103795533Y-125775976D01*
X103795533Y-125775976D02*
X103700295Y-125823595D01*
X104652676Y-125633119D02*
X104700295Y-125585500D01*
X104700295Y-125585500D02*
X104795533Y-125537880D01*
X104795533Y-125537880D02*
X105033628Y-125537880D01*
X105033628Y-125537880D02*
X105128866Y-125585500D01*
X105128866Y-125585500D02*
X105176485Y-125633119D01*
X105176485Y-125633119D02*
X105224104Y-125728357D01*
X105224104Y-125728357D02*
X105224104Y-125823595D01*
X105224104Y-125823595D02*
X105176485Y-125966452D01*
X105176485Y-125966452D02*
X104605057Y-126537880D01*
X104605057Y-126537880D02*
X105224104Y-126537880D01*
X162190495Y-107091980D02*
X162190495Y-107901504D01*
X162190495Y-107901504D02*
X162238114Y-107996742D01*
X162238114Y-107996742D02*
X162285733Y-108044361D01*
X162285733Y-108044361D02*
X162380971Y-108091980D01*
X162380971Y-108091980D02*
X162571447Y-108091980D01*
X162571447Y-108091980D02*
X162666685Y-108044361D01*
X162666685Y-108044361D02*
X162714304Y-107996742D01*
X162714304Y-107996742D02*
X162761923Y-107901504D01*
X162761923Y-107901504D02*
X162761923Y-107091980D01*
X163380971Y-107520552D02*
X163285733Y-107472933D01*
X163285733Y-107472933D02*
X163238114Y-107425314D01*
X163238114Y-107425314D02*
X163190495Y-107330076D01*
X163190495Y-107330076D02*
X163190495Y-107282457D01*
X163190495Y-107282457D02*
X163238114Y-107187219D01*
X163238114Y-107187219D02*
X163285733Y-107139600D01*
X163285733Y-107139600D02*
X163380971Y-107091980D01*
X163380971Y-107091980D02*
X163571447Y-107091980D01*
X163571447Y-107091980D02*
X163666685Y-107139600D01*
X163666685Y-107139600D02*
X163714304Y-107187219D01*
X163714304Y-107187219D02*
X163761923Y-107282457D01*
X163761923Y-107282457D02*
X163761923Y-107330076D01*
X163761923Y-107330076D02*
X163714304Y-107425314D01*
X163714304Y-107425314D02*
X163666685Y-107472933D01*
X163666685Y-107472933D02*
X163571447Y-107520552D01*
X163571447Y-107520552D02*
X163380971Y-107520552D01*
X163380971Y-107520552D02*
X163285733Y-107568171D01*
X163285733Y-107568171D02*
X163238114Y-107615790D01*
X163238114Y-107615790D02*
X163190495Y-107711028D01*
X163190495Y-107711028D02*
X163190495Y-107901504D01*
X163190495Y-107901504D02*
X163238114Y-107996742D01*
X163238114Y-107996742D02*
X163285733Y-108044361D01*
X163285733Y-108044361D02*
X163380971Y-108091980D01*
X163380971Y-108091980D02*
X163571447Y-108091980D01*
X163571447Y-108091980D02*
X163666685Y-108044361D01*
X163666685Y-108044361D02*
X163714304Y-107996742D01*
X163714304Y-107996742D02*
X163761923Y-107901504D01*
X163761923Y-107901504D02*
X163761923Y-107711028D01*
X163761923Y-107711028D02*
X163714304Y-107615790D01*
X163714304Y-107615790D02*
X163666685Y-107568171D01*
X163666685Y-107568171D02*
X163571447Y-107520552D01*
X124157580Y-118059104D02*
X124967104Y-118059104D01*
X124967104Y-118059104D02*
X125062342Y-118011485D01*
X125062342Y-118011485D02*
X125109961Y-117963866D01*
X125109961Y-117963866D02*
X125157580Y-117868628D01*
X125157580Y-117868628D02*
X125157580Y-117678152D01*
X125157580Y-117678152D02*
X125109961Y-117582914D01*
X125109961Y-117582914D02*
X125062342Y-117535295D01*
X125062342Y-117535295D02*
X124967104Y-117487676D01*
X124967104Y-117487676D02*
X124157580Y-117487676D01*
X124157580Y-116535295D02*
X124157580Y-117011485D01*
X124157580Y-117011485D02*
X124633771Y-117059104D01*
X124633771Y-117059104D02*
X124586152Y-117011485D01*
X124586152Y-117011485D02*
X124538533Y-116916247D01*
X124538533Y-116916247D02*
X124538533Y-116678152D01*
X124538533Y-116678152D02*
X124586152Y-116582914D01*
X124586152Y-116582914D02*
X124633771Y-116535295D01*
X124633771Y-116535295D02*
X124729009Y-116487676D01*
X124729009Y-116487676D02*
X124967104Y-116487676D01*
X124967104Y-116487676D02*
X125062342Y-116535295D01*
X125062342Y-116535295D02*
X125109961Y-116582914D01*
X125109961Y-116582914D02*
X125157580Y-116678152D01*
X125157580Y-116678152D02*
X125157580Y-116916247D01*
X125157580Y-116916247D02*
X125109961Y-117011485D01*
X125109961Y-117011485D02*
X125062342Y-117059104D01*
X114470542Y-120683257D02*
X114518161Y-120730876D01*
X114518161Y-120730876D02*
X114565780Y-120873733D01*
X114565780Y-120873733D02*
X114565780Y-120968971D01*
X114565780Y-120968971D02*
X114518161Y-121111828D01*
X114518161Y-121111828D02*
X114422923Y-121207066D01*
X114422923Y-121207066D02*
X114327685Y-121254685D01*
X114327685Y-121254685D02*
X114137209Y-121302304D01*
X114137209Y-121302304D02*
X113994352Y-121302304D01*
X113994352Y-121302304D02*
X113803876Y-121254685D01*
X113803876Y-121254685D02*
X113708638Y-121207066D01*
X113708638Y-121207066D02*
X113613400Y-121111828D01*
X113613400Y-121111828D02*
X113565780Y-120968971D01*
X113565780Y-120968971D02*
X113565780Y-120873733D01*
X113565780Y-120873733D02*
X113613400Y-120730876D01*
X113613400Y-120730876D02*
X113661019Y-120683257D01*
X114565780Y-119730876D02*
X114565780Y-120302304D01*
X114565780Y-120016590D02*
X113565780Y-120016590D01*
X113565780Y-120016590D02*
X113708638Y-120111828D01*
X113708638Y-120111828D02*
X113803876Y-120207066D01*
X113803876Y-120207066D02*
X113851495Y-120302304D01*
X113565780Y-118873733D02*
X113565780Y-119064209D01*
X113565780Y-119064209D02*
X113613400Y-119159447D01*
X113613400Y-119159447D02*
X113661019Y-119207066D01*
X113661019Y-119207066D02*
X113803876Y-119302304D01*
X113803876Y-119302304D02*
X113994352Y-119349923D01*
X113994352Y-119349923D02*
X114375304Y-119349923D01*
X114375304Y-119349923D02*
X114470542Y-119302304D01*
X114470542Y-119302304D02*
X114518161Y-119254685D01*
X114518161Y-119254685D02*
X114565780Y-119159447D01*
X114565780Y-119159447D02*
X114565780Y-118968971D01*
X114565780Y-118968971D02*
X114518161Y-118873733D01*
X114518161Y-118873733D02*
X114470542Y-118826114D01*
X114470542Y-118826114D02*
X114375304Y-118778495D01*
X114375304Y-118778495D02*
X114137209Y-118778495D01*
X114137209Y-118778495D02*
X114041971Y-118826114D01*
X114041971Y-118826114D02*
X113994352Y-118873733D01*
X113994352Y-118873733D02*
X113946733Y-118968971D01*
X113946733Y-118968971D02*
X113946733Y-119159447D01*
X113946733Y-119159447D02*
X113994352Y-119254685D01*
X113994352Y-119254685D02*
X114041971Y-119302304D01*
X114041971Y-119302304D02*
X114137209Y-119349923D01*
X88815942Y-115029342D02*
X88768323Y-115076961D01*
X88768323Y-115076961D02*
X88625466Y-115124580D01*
X88625466Y-115124580D02*
X88530228Y-115124580D01*
X88530228Y-115124580D02*
X88387371Y-115076961D01*
X88387371Y-115076961D02*
X88292133Y-114981723D01*
X88292133Y-114981723D02*
X88244514Y-114886485D01*
X88244514Y-114886485D02*
X88196895Y-114696009D01*
X88196895Y-114696009D02*
X88196895Y-114553152D01*
X88196895Y-114553152D02*
X88244514Y-114362676D01*
X88244514Y-114362676D02*
X88292133Y-114267438D01*
X88292133Y-114267438D02*
X88387371Y-114172200D01*
X88387371Y-114172200D02*
X88530228Y-114124580D01*
X88530228Y-114124580D02*
X88625466Y-114124580D01*
X88625466Y-114124580D02*
X88768323Y-114172200D01*
X88768323Y-114172200D02*
X88815942Y-114219819D01*
X89196895Y-114219819D02*
X89244514Y-114172200D01*
X89244514Y-114172200D02*
X89339752Y-114124580D01*
X89339752Y-114124580D02*
X89577847Y-114124580D01*
X89577847Y-114124580D02*
X89673085Y-114172200D01*
X89673085Y-114172200D02*
X89720704Y-114219819D01*
X89720704Y-114219819D02*
X89768323Y-114315057D01*
X89768323Y-114315057D02*
X89768323Y-114410295D01*
X89768323Y-114410295D02*
X89720704Y-114553152D01*
X89720704Y-114553152D02*
X89149276Y-115124580D01*
X89149276Y-115124580D02*
X89768323Y-115124580D01*
X90720704Y-115124580D02*
X90149276Y-115124580D01*
X90434990Y-115124580D02*
X90434990Y-114124580D01*
X90434990Y-114124580D02*
X90339752Y-114267438D01*
X90339752Y-114267438D02*
X90244514Y-114362676D01*
X90244514Y-114362676D02*
X90149276Y-114410295D01*
X139025333Y-107383942D02*
X138977714Y-107431561D01*
X138977714Y-107431561D02*
X138834857Y-107479180D01*
X138834857Y-107479180D02*
X138739619Y-107479180D01*
X138739619Y-107479180D02*
X138596762Y-107431561D01*
X138596762Y-107431561D02*
X138501524Y-107336323D01*
X138501524Y-107336323D02*
X138453905Y-107241085D01*
X138453905Y-107241085D02*
X138406286Y-107050609D01*
X138406286Y-107050609D02*
X138406286Y-106907752D01*
X138406286Y-106907752D02*
X138453905Y-106717276D01*
X138453905Y-106717276D02*
X138501524Y-106622038D01*
X138501524Y-106622038D02*
X138596762Y-106526800D01*
X138596762Y-106526800D02*
X138739619Y-106479180D01*
X138739619Y-106479180D02*
X138834857Y-106479180D01*
X138834857Y-106479180D02*
X138977714Y-106526800D01*
X138977714Y-106526800D02*
X139025333Y-106574419D01*
X139882476Y-106812514D02*
X139882476Y-107479180D01*
X139644381Y-106431561D02*
X139406286Y-107145847D01*
X139406286Y-107145847D02*
X140025333Y-107145847D01*
X88815942Y-123944742D02*
X88768323Y-123992361D01*
X88768323Y-123992361D02*
X88625466Y-124039980D01*
X88625466Y-124039980D02*
X88530228Y-124039980D01*
X88530228Y-124039980D02*
X88387371Y-123992361D01*
X88387371Y-123992361D02*
X88292133Y-123897123D01*
X88292133Y-123897123D02*
X88244514Y-123801885D01*
X88244514Y-123801885D02*
X88196895Y-123611409D01*
X88196895Y-123611409D02*
X88196895Y-123468552D01*
X88196895Y-123468552D02*
X88244514Y-123278076D01*
X88244514Y-123278076D02*
X88292133Y-123182838D01*
X88292133Y-123182838D02*
X88387371Y-123087600D01*
X88387371Y-123087600D02*
X88530228Y-123039980D01*
X88530228Y-123039980D02*
X88625466Y-123039980D01*
X88625466Y-123039980D02*
X88768323Y-123087600D01*
X88768323Y-123087600D02*
X88815942Y-123135219D01*
X89196895Y-123135219D02*
X89244514Y-123087600D01*
X89244514Y-123087600D02*
X89339752Y-123039980D01*
X89339752Y-123039980D02*
X89577847Y-123039980D01*
X89577847Y-123039980D02*
X89673085Y-123087600D01*
X89673085Y-123087600D02*
X89720704Y-123135219D01*
X89720704Y-123135219D02*
X89768323Y-123230457D01*
X89768323Y-123230457D02*
X89768323Y-123325695D01*
X89768323Y-123325695D02*
X89720704Y-123468552D01*
X89720704Y-123468552D02*
X89149276Y-124039980D01*
X89149276Y-124039980D02*
X89768323Y-124039980D01*
X90244514Y-124039980D02*
X90434990Y-124039980D01*
X90434990Y-124039980D02*
X90530228Y-123992361D01*
X90530228Y-123992361D02*
X90577847Y-123944742D01*
X90577847Y-123944742D02*
X90673085Y-123801885D01*
X90673085Y-123801885D02*
X90720704Y-123611409D01*
X90720704Y-123611409D02*
X90720704Y-123230457D01*
X90720704Y-123230457D02*
X90673085Y-123135219D01*
X90673085Y-123135219D02*
X90625466Y-123087600D01*
X90625466Y-123087600D02*
X90530228Y-123039980D01*
X90530228Y-123039980D02*
X90339752Y-123039980D01*
X90339752Y-123039980D02*
X90244514Y-123087600D01*
X90244514Y-123087600D02*
X90196895Y-123135219D01*
X90196895Y-123135219D02*
X90149276Y-123230457D01*
X90149276Y-123230457D02*
X90149276Y-123468552D01*
X90149276Y-123468552D02*
X90196895Y-123563790D01*
X90196895Y-123563790D02*
X90244514Y-123611409D01*
X90244514Y-123611409D02*
X90339752Y-123659028D01*
X90339752Y-123659028D02*
X90530228Y-123659028D01*
X90530228Y-123659028D02*
X90625466Y-123611409D01*
X90625466Y-123611409D02*
X90673085Y-123563790D01*
X90673085Y-123563790D02*
X90720704Y-123468552D01*
X132656942Y-111520266D02*
X132704561Y-111567885D01*
X132704561Y-111567885D02*
X132752180Y-111710742D01*
X132752180Y-111710742D02*
X132752180Y-111805980D01*
X132752180Y-111805980D02*
X132704561Y-111948837D01*
X132704561Y-111948837D02*
X132609323Y-112044075D01*
X132609323Y-112044075D02*
X132514085Y-112091694D01*
X132514085Y-112091694D02*
X132323609Y-112139313D01*
X132323609Y-112139313D02*
X132180752Y-112139313D01*
X132180752Y-112139313D02*
X131990276Y-112091694D01*
X131990276Y-112091694D02*
X131895038Y-112044075D01*
X131895038Y-112044075D02*
X131799800Y-111948837D01*
X131799800Y-111948837D02*
X131752180Y-111805980D01*
X131752180Y-111805980D02*
X131752180Y-111710742D01*
X131752180Y-111710742D02*
X131799800Y-111567885D01*
X131799800Y-111567885D02*
X131847419Y-111520266D01*
X131752180Y-110615504D02*
X131752180Y-111091694D01*
X131752180Y-111091694D02*
X132228371Y-111139313D01*
X132228371Y-111139313D02*
X132180752Y-111091694D01*
X132180752Y-111091694D02*
X132133133Y-110996456D01*
X132133133Y-110996456D02*
X132133133Y-110758361D01*
X132133133Y-110758361D02*
X132180752Y-110663123D01*
X132180752Y-110663123D02*
X132228371Y-110615504D01*
X132228371Y-110615504D02*
X132323609Y-110567885D01*
X132323609Y-110567885D02*
X132561704Y-110567885D01*
X132561704Y-110567885D02*
X132656942Y-110615504D01*
X132656942Y-110615504D02*
X132704561Y-110663123D01*
X132704561Y-110663123D02*
X132752180Y-110758361D01*
X132752180Y-110758361D02*
X132752180Y-110996456D01*
X132752180Y-110996456D02*
X132704561Y-111091694D01*
X132704561Y-111091694D02*
X132656942Y-111139313D01*
X131546790Y-103396990D02*
X132022980Y-103396990D01*
X131022980Y-103730323D02*
X131546790Y-103396990D01*
X131546790Y-103396990D02*
X131022980Y-103063657D01*
X132022980Y-102206514D02*
X132022980Y-102777942D01*
X132022980Y-102492228D02*
X131022980Y-102492228D01*
X131022980Y-102492228D02*
X131165838Y-102587466D01*
X131165838Y-102587466D02*
X131261076Y-102682704D01*
X131261076Y-102682704D02*
X131308695Y-102777942D01*
X98182780Y-128690666D02*
X97706590Y-129023999D01*
X98182780Y-129262094D02*
X97182780Y-129262094D01*
X97182780Y-129262094D02*
X97182780Y-128881142D01*
X97182780Y-128881142D02*
X97230400Y-128785904D01*
X97230400Y-128785904D02*
X97278019Y-128738285D01*
X97278019Y-128738285D02*
X97373257Y-128690666D01*
X97373257Y-128690666D02*
X97516114Y-128690666D01*
X97516114Y-128690666D02*
X97611352Y-128738285D01*
X97611352Y-128738285D02*
X97658971Y-128785904D01*
X97658971Y-128785904D02*
X97706590Y-128881142D01*
X97706590Y-128881142D02*
X97706590Y-129262094D01*
X97182780Y-127833523D02*
X97182780Y-128023999D01*
X97182780Y-128023999D02*
X97230400Y-128119237D01*
X97230400Y-128119237D02*
X97278019Y-128166856D01*
X97278019Y-128166856D02*
X97420876Y-128262094D01*
X97420876Y-128262094D02*
X97611352Y-128309713D01*
X97611352Y-128309713D02*
X97992304Y-128309713D01*
X97992304Y-128309713D02*
X98087542Y-128262094D01*
X98087542Y-128262094D02*
X98135161Y-128214475D01*
X98135161Y-128214475D02*
X98182780Y-128119237D01*
X98182780Y-128119237D02*
X98182780Y-127928761D01*
X98182780Y-127928761D02*
X98135161Y-127833523D01*
X98135161Y-127833523D02*
X98087542Y-127785904D01*
X98087542Y-127785904D02*
X97992304Y-127738285D01*
X97992304Y-127738285D02*
X97754209Y-127738285D01*
X97754209Y-127738285D02*
X97658971Y-127785904D01*
X97658971Y-127785904D02*
X97611352Y-127833523D01*
X97611352Y-127833523D02*
X97563733Y-127928761D01*
X97563733Y-127928761D02*
X97563733Y-128119237D01*
X97563733Y-128119237D02*
X97611352Y-128214475D01*
X97611352Y-128214475D02*
X97658971Y-128262094D01*
X97658971Y-128262094D02*
X97754209Y-128309713D01*
X119122642Y-107146742D02*
X119075023Y-107194361D01*
X119075023Y-107194361D02*
X118932166Y-107241980D01*
X118932166Y-107241980D02*
X118836928Y-107241980D01*
X118836928Y-107241980D02*
X118694071Y-107194361D01*
X118694071Y-107194361D02*
X118598833Y-107099123D01*
X118598833Y-107099123D02*
X118551214Y-107003885D01*
X118551214Y-107003885D02*
X118503595Y-106813409D01*
X118503595Y-106813409D02*
X118503595Y-106670552D01*
X118503595Y-106670552D02*
X118551214Y-106480076D01*
X118551214Y-106480076D02*
X118598833Y-106384838D01*
X118598833Y-106384838D02*
X118694071Y-106289600D01*
X118694071Y-106289600D02*
X118836928Y-106241980D01*
X118836928Y-106241980D02*
X118932166Y-106241980D01*
X118932166Y-106241980D02*
X119075023Y-106289600D01*
X119075023Y-106289600D02*
X119122642Y-106337219D01*
X120075023Y-107241980D02*
X119503595Y-107241980D01*
X119789309Y-107241980D02*
X119789309Y-106241980D01*
X119789309Y-106241980D02*
X119694071Y-106384838D01*
X119694071Y-106384838D02*
X119598833Y-106480076D01*
X119598833Y-106480076D02*
X119503595Y-106527695D01*
X120694071Y-106241980D02*
X120789309Y-106241980D01*
X120789309Y-106241980D02*
X120884547Y-106289600D01*
X120884547Y-106289600D02*
X120932166Y-106337219D01*
X120932166Y-106337219D02*
X120979785Y-106432457D01*
X120979785Y-106432457D02*
X121027404Y-106622933D01*
X121027404Y-106622933D02*
X121027404Y-106861028D01*
X121027404Y-106861028D02*
X120979785Y-107051504D01*
X120979785Y-107051504D02*
X120932166Y-107146742D01*
X120932166Y-107146742D02*
X120884547Y-107194361D01*
X120884547Y-107194361D02*
X120789309Y-107241980D01*
X120789309Y-107241980D02*
X120694071Y-107241980D01*
X120694071Y-107241980D02*
X120598833Y-107194361D01*
X120598833Y-107194361D02*
X120551214Y-107146742D01*
X120551214Y-107146742D02*
X120503595Y-107051504D01*
X120503595Y-107051504D02*
X120455976Y-106861028D01*
X120455976Y-106861028D02*
X120455976Y-106622933D01*
X120455976Y-106622933D02*
X120503595Y-106432457D01*
X120503595Y-106432457D02*
X120551214Y-106337219D01*
X120551214Y-106337219D02*
X120598833Y-106289600D01*
X120598833Y-106289600D02*
X120694071Y-106241980D01*
X89775380Y-108624666D02*
X89299190Y-108957999D01*
X89775380Y-109196094D02*
X88775380Y-109196094D01*
X88775380Y-109196094D02*
X88775380Y-108815142D01*
X88775380Y-108815142D02*
X88823000Y-108719904D01*
X88823000Y-108719904D02*
X88870619Y-108672285D01*
X88870619Y-108672285D02*
X88965857Y-108624666D01*
X88965857Y-108624666D02*
X89108714Y-108624666D01*
X89108714Y-108624666D02*
X89203952Y-108672285D01*
X89203952Y-108672285D02*
X89251571Y-108719904D01*
X89251571Y-108719904D02*
X89299190Y-108815142D01*
X89299190Y-108815142D02*
X89299190Y-109196094D01*
X89203952Y-108053237D02*
X89156333Y-108148475D01*
X89156333Y-108148475D02*
X89108714Y-108196094D01*
X89108714Y-108196094D02*
X89013476Y-108243713D01*
X89013476Y-108243713D02*
X88965857Y-108243713D01*
X88965857Y-108243713D02*
X88870619Y-108196094D01*
X88870619Y-108196094D02*
X88823000Y-108148475D01*
X88823000Y-108148475D02*
X88775380Y-108053237D01*
X88775380Y-108053237D02*
X88775380Y-107862761D01*
X88775380Y-107862761D02*
X88823000Y-107767523D01*
X88823000Y-107767523D02*
X88870619Y-107719904D01*
X88870619Y-107719904D02*
X88965857Y-107672285D01*
X88965857Y-107672285D02*
X89013476Y-107672285D01*
X89013476Y-107672285D02*
X89108714Y-107719904D01*
X89108714Y-107719904D02*
X89156333Y-107767523D01*
X89156333Y-107767523D02*
X89203952Y-107862761D01*
X89203952Y-107862761D02*
X89203952Y-108053237D01*
X89203952Y-108053237D02*
X89251571Y-108148475D01*
X89251571Y-108148475D02*
X89299190Y-108196094D01*
X89299190Y-108196094D02*
X89394428Y-108243713D01*
X89394428Y-108243713D02*
X89584904Y-108243713D01*
X89584904Y-108243713D02*
X89680142Y-108196094D01*
X89680142Y-108196094D02*
X89727761Y-108148475D01*
X89727761Y-108148475D02*
X89775380Y-108053237D01*
X89775380Y-108053237D02*
X89775380Y-107862761D01*
X89775380Y-107862761D02*
X89727761Y-107767523D01*
X89727761Y-107767523D02*
X89680142Y-107719904D01*
X89680142Y-107719904D02*
X89584904Y-107672285D01*
X89584904Y-107672285D02*
X89394428Y-107672285D01*
X89394428Y-107672285D02*
X89299190Y-107719904D01*
X89299190Y-107719904D02*
X89251571Y-107767523D01*
X89251571Y-107767523D02*
X89203952Y-107862761D01*
X105433905Y-112228980D02*
X105433905Y-111228980D01*
X105433905Y-111228980D02*
X105672000Y-111228980D01*
X105672000Y-111228980D02*
X105814857Y-111276600D01*
X105814857Y-111276600D02*
X105910095Y-111371838D01*
X105910095Y-111371838D02*
X105957714Y-111467076D01*
X105957714Y-111467076D02*
X106005333Y-111657552D01*
X106005333Y-111657552D02*
X106005333Y-111800409D01*
X106005333Y-111800409D02*
X105957714Y-111990885D01*
X105957714Y-111990885D02*
X105910095Y-112086123D01*
X105910095Y-112086123D02*
X105814857Y-112181361D01*
X105814857Y-112181361D02*
X105672000Y-112228980D01*
X105672000Y-112228980D02*
X105433905Y-112228980D01*
X106338667Y-111228980D02*
X106957714Y-111228980D01*
X106957714Y-111228980D02*
X106624381Y-111609933D01*
X106624381Y-111609933D02*
X106767238Y-111609933D01*
X106767238Y-111609933D02*
X106862476Y-111657552D01*
X106862476Y-111657552D02*
X106910095Y-111705171D01*
X106910095Y-111705171D02*
X106957714Y-111800409D01*
X106957714Y-111800409D02*
X106957714Y-112038504D01*
X106957714Y-112038504D02*
X106910095Y-112133742D01*
X106910095Y-112133742D02*
X106862476Y-112181361D01*
X106862476Y-112181361D02*
X106767238Y-112228980D01*
X106767238Y-112228980D02*
X106481524Y-112228980D01*
X106481524Y-112228980D02*
X106386286Y-112181361D01*
X106386286Y-112181361D02*
X106338667Y-112133742D01*
X154866180Y-101955504D02*
X155675704Y-101955504D01*
X155675704Y-101955504D02*
X155770942Y-101907885D01*
X155770942Y-101907885D02*
X155818561Y-101860266D01*
X155818561Y-101860266D02*
X155866180Y-101765028D01*
X155866180Y-101765028D02*
X155866180Y-101574552D01*
X155866180Y-101574552D02*
X155818561Y-101479314D01*
X155818561Y-101479314D02*
X155770942Y-101431695D01*
X155770942Y-101431695D02*
X155675704Y-101384076D01*
X155675704Y-101384076D02*
X154866180Y-101384076D01*
X154961419Y-100955504D02*
X154913800Y-100907885D01*
X154913800Y-100907885D02*
X154866180Y-100812647D01*
X154866180Y-100812647D02*
X154866180Y-100574552D01*
X154866180Y-100574552D02*
X154913800Y-100479314D01*
X154913800Y-100479314D02*
X154961419Y-100431695D01*
X154961419Y-100431695D02*
X155056657Y-100384076D01*
X155056657Y-100384076D02*
X155151895Y-100384076D01*
X155151895Y-100384076D02*
X155294752Y-100431695D01*
X155294752Y-100431695D02*
X155866180Y-101003123D01*
X155866180Y-101003123D02*
X155866180Y-100384076D01*
X134554342Y-117406657D02*
X134601961Y-117454276D01*
X134601961Y-117454276D02*
X134649580Y-117597133D01*
X134649580Y-117597133D02*
X134649580Y-117692371D01*
X134649580Y-117692371D02*
X134601961Y-117835228D01*
X134601961Y-117835228D02*
X134506723Y-117930466D01*
X134506723Y-117930466D02*
X134411485Y-117978085D01*
X134411485Y-117978085D02*
X134221009Y-118025704D01*
X134221009Y-118025704D02*
X134078152Y-118025704D01*
X134078152Y-118025704D02*
X133887676Y-117978085D01*
X133887676Y-117978085D02*
X133792438Y-117930466D01*
X133792438Y-117930466D02*
X133697200Y-117835228D01*
X133697200Y-117835228D02*
X133649580Y-117692371D01*
X133649580Y-117692371D02*
X133649580Y-117597133D01*
X133649580Y-117597133D02*
X133697200Y-117454276D01*
X133697200Y-117454276D02*
X133744819Y-117406657D01*
X133982914Y-116549514D02*
X134649580Y-116549514D01*
X133601961Y-116787609D02*
X134316247Y-117025704D01*
X134316247Y-117025704D02*
X134316247Y-116406657D01*
X133649580Y-116120942D02*
X133649580Y-115501895D01*
X133649580Y-115501895D02*
X134030533Y-115835228D01*
X134030533Y-115835228D02*
X134030533Y-115692371D01*
X134030533Y-115692371D02*
X134078152Y-115597133D01*
X134078152Y-115597133D02*
X134125771Y-115549514D01*
X134125771Y-115549514D02*
X134221009Y-115501895D01*
X134221009Y-115501895D02*
X134459104Y-115501895D01*
X134459104Y-115501895D02*
X134554342Y-115549514D01*
X134554342Y-115549514D02*
X134601961Y-115597133D01*
X134601961Y-115597133D02*
X134649580Y-115692371D01*
X134649580Y-115692371D02*
X134649580Y-115978085D01*
X134649580Y-115978085D02*
X134601961Y-116073323D01*
X134601961Y-116073323D02*
X134554342Y-116120942D01*
X115994542Y-120683257D02*
X116042161Y-120730876D01*
X116042161Y-120730876D02*
X116089780Y-120873733D01*
X116089780Y-120873733D02*
X116089780Y-120968971D01*
X116089780Y-120968971D02*
X116042161Y-121111828D01*
X116042161Y-121111828D02*
X115946923Y-121207066D01*
X115946923Y-121207066D02*
X115851685Y-121254685D01*
X115851685Y-121254685D02*
X115661209Y-121302304D01*
X115661209Y-121302304D02*
X115518352Y-121302304D01*
X115518352Y-121302304D02*
X115327876Y-121254685D01*
X115327876Y-121254685D02*
X115232638Y-121207066D01*
X115232638Y-121207066D02*
X115137400Y-121111828D01*
X115137400Y-121111828D02*
X115089780Y-120968971D01*
X115089780Y-120968971D02*
X115089780Y-120873733D01*
X115089780Y-120873733D02*
X115137400Y-120730876D01*
X115137400Y-120730876D02*
X115185019Y-120683257D01*
X116089780Y-119730876D02*
X116089780Y-120302304D01*
X116089780Y-120016590D02*
X115089780Y-120016590D01*
X115089780Y-120016590D02*
X115232638Y-120111828D01*
X115232638Y-120111828D02*
X115327876Y-120207066D01*
X115327876Y-120207066D02*
X115375495Y-120302304D01*
X115089780Y-118826114D02*
X115089780Y-119302304D01*
X115089780Y-119302304D02*
X115565971Y-119349923D01*
X115565971Y-119349923D02*
X115518352Y-119302304D01*
X115518352Y-119302304D02*
X115470733Y-119207066D01*
X115470733Y-119207066D02*
X115470733Y-118968971D01*
X115470733Y-118968971D02*
X115518352Y-118873733D01*
X115518352Y-118873733D02*
X115565971Y-118826114D01*
X115565971Y-118826114D02*
X115661209Y-118778495D01*
X115661209Y-118778495D02*
X115899304Y-118778495D01*
X115899304Y-118778495D02*
X115994542Y-118826114D01*
X115994542Y-118826114D02*
X116042161Y-118873733D01*
X116042161Y-118873733D02*
X116089780Y-118968971D01*
X116089780Y-118968971D02*
X116089780Y-119207066D01*
X116089780Y-119207066D02*
X116042161Y-119302304D01*
X116042161Y-119302304D02*
X115994542Y-119349923D01*
X91197780Y-108624666D02*
X90721590Y-108957999D01*
X91197780Y-109196094D02*
X90197780Y-109196094D01*
X90197780Y-109196094D02*
X90197780Y-108815142D01*
X90197780Y-108815142D02*
X90245400Y-108719904D01*
X90245400Y-108719904D02*
X90293019Y-108672285D01*
X90293019Y-108672285D02*
X90388257Y-108624666D01*
X90388257Y-108624666D02*
X90531114Y-108624666D01*
X90531114Y-108624666D02*
X90626352Y-108672285D01*
X90626352Y-108672285D02*
X90673971Y-108719904D01*
X90673971Y-108719904D02*
X90721590Y-108815142D01*
X90721590Y-108815142D02*
X90721590Y-109196094D01*
X91197780Y-108148475D02*
X91197780Y-107957999D01*
X91197780Y-107957999D02*
X91150161Y-107862761D01*
X91150161Y-107862761D02*
X91102542Y-107815142D01*
X91102542Y-107815142D02*
X90959685Y-107719904D01*
X90959685Y-107719904D02*
X90769209Y-107672285D01*
X90769209Y-107672285D02*
X90388257Y-107672285D01*
X90388257Y-107672285D02*
X90293019Y-107719904D01*
X90293019Y-107719904D02*
X90245400Y-107767523D01*
X90245400Y-107767523D02*
X90197780Y-107862761D01*
X90197780Y-107862761D02*
X90197780Y-108053237D01*
X90197780Y-108053237D02*
X90245400Y-108148475D01*
X90245400Y-108148475D02*
X90293019Y-108196094D01*
X90293019Y-108196094D02*
X90388257Y-108243713D01*
X90388257Y-108243713D02*
X90626352Y-108243713D01*
X90626352Y-108243713D02*
X90721590Y-108196094D01*
X90721590Y-108196094D02*
X90769209Y-108148475D01*
X90769209Y-108148475D02*
X90816828Y-108053237D01*
X90816828Y-108053237D02*
X90816828Y-107862761D01*
X90816828Y-107862761D02*
X90769209Y-107767523D01*
X90769209Y-107767523D02*
X90721590Y-107719904D01*
X90721590Y-107719904D02*
X90626352Y-107672285D01*
X108501542Y-120657857D02*
X108549161Y-120705476D01*
X108549161Y-120705476D02*
X108596780Y-120848333D01*
X108596780Y-120848333D02*
X108596780Y-120943571D01*
X108596780Y-120943571D02*
X108549161Y-121086428D01*
X108549161Y-121086428D02*
X108453923Y-121181666D01*
X108453923Y-121181666D02*
X108358685Y-121229285D01*
X108358685Y-121229285D02*
X108168209Y-121276904D01*
X108168209Y-121276904D02*
X108025352Y-121276904D01*
X108025352Y-121276904D02*
X107834876Y-121229285D01*
X107834876Y-121229285D02*
X107739638Y-121181666D01*
X107739638Y-121181666D02*
X107644400Y-121086428D01*
X107644400Y-121086428D02*
X107596780Y-120943571D01*
X107596780Y-120943571D02*
X107596780Y-120848333D01*
X107596780Y-120848333D02*
X107644400Y-120705476D01*
X107644400Y-120705476D02*
X107692019Y-120657857D01*
X107692019Y-120276904D02*
X107644400Y-120229285D01*
X107644400Y-120229285D02*
X107596780Y-120134047D01*
X107596780Y-120134047D02*
X107596780Y-119895952D01*
X107596780Y-119895952D02*
X107644400Y-119800714D01*
X107644400Y-119800714D02*
X107692019Y-119753095D01*
X107692019Y-119753095D02*
X107787257Y-119705476D01*
X107787257Y-119705476D02*
X107882495Y-119705476D01*
X107882495Y-119705476D02*
X108025352Y-119753095D01*
X108025352Y-119753095D02*
X108596780Y-120324523D01*
X108596780Y-120324523D02*
X108596780Y-119705476D01*
X107596780Y-119086428D02*
X107596780Y-118991190D01*
X107596780Y-118991190D02*
X107644400Y-118895952D01*
X107644400Y-118895952D02*
X107692019Y-118848333D01*
X107692019Y-118848333D02*
X107787257Y-118800714D01*
X107787257Y-118800714D02*
X107977733Y-118753095D01*
X107977733Y-118753095D02*
X108215828Y-118753095D01*
X108215828Y-118753095D02*
X108406304Y-118800714D01*
X108406304Y-118800714D02*
X108501542Y-118848333D01*
X108501542Y-118848333D02*
X108549161Y-118895952D01*
X108549161Y-118895952D02*
X108596780Y-118991190D01*
X108596780Y-118991190D02*
X108596780Y-119086428D01*
X108596780Y-119086428D02*
X108549161Y-119181666D01*
X108549161Y-119181666D02*
X108501542Y-119229285D01*
X108501542Y-119229285D02*
X108406304Y-119276904D01*
X108406304Y-119276904D02*
X108215828Y-119324523D01*
X108215828Y-119324523D02*
X107977733Y-119324523D01*
X107977733Y-119324523D02*
X107787257Y-119276904D01*
X107787257Y-119276904D02*
X107692019Y-119229285D01*
X107692019Y-119229285D02*
X107644400Y-119181666D01*
X107644400Y-119181666D02*
X107596780Y-119086428D01*
X88866742Y-119398142D02*
X88819123Y-119445761D01*
X88819123Y-119445761D02*
X88676266Y-119493380D01*
X88676266Y-119493380D02*
X88581028Y-119493380D01*
X88581028Y-119493380D02*
X88438171Y-119445761D01*
X88438171Y-119445761D02*
X88342933Y-119350523D01*
X88342933Y-119350523D02*
X88295314Y-119255285D01*
X88295314Y-119255285D02*
X88247695Y-119064809D01*
X88247695Y-119064809D02*
X88247695Y-118921952D01*
X88247695Y-118921952D02*
X88295314Y-118731476D01*
X88295314Y-118731476D02*
X88342933Y-118636238D01*
X88342933Y-118636238D02*
X88438171Y-118541000D01*
X88438171Y-118541000D02*
X88581028Y-118493380D01*
X88581028Y-118493380D02*
X88676266Y-118493380D01*
X88676266Y-118493380D02*
X88819123Y-118541000D01*
X88819123Y-118541000D02*
X88866742Y-118588619D01*
X89247695Y-118588619D02*
X89295314Y-118541000D01*
X89295314Y-118541000D02*
X89390552Y-118493380D01*
X89390552Y-118493380D02*
X89628647Y-118493380D01*
X89628647Y-118493380D02*
X89723885Y-118541000D01*
X89723885Y-118541000D02*
X89771504Y-118588619D01*
X89771504Y-118588619D02*
X89819123Y-118683857D01*
X89819123Y-118683857D02*
X89819123Y-118779095D01*
X89819123Y-118779095D02*
X89771504Y-118921952D01*
X89771504Y-118921952D02*
X89200076Y-119493380D01*
X89200076Y-119493380D02*
X89819123Y-119493380D01*
X90723885Y-118493380D02*
X90247695Y-118493380D01*
X90247695Y-118493380D02*
X90200076Y-118969571D01*
X90200076Y-118969571D02*
X90247695Y-118921952D01*
X90247695Y-118921952D02*
X90342933Y-118874333D01*
X90342933Y-118874333D02*
X90581028Y-118874333D01*
X90581028Y-118874333D02*
X90676266Y-118921952D01*
X90676266Y-118921952D02*
X90723885Y-118969571D01*
X90723885Y-118969571D02*
X90771504Y-119064809D01*
X90771504Y-119064809D02*
X90771504Y-119302904D01*
X90771504Y-119302904D02*
X90723885Y-119398142D01*
X90723885Y-119398142D02*
X90676266Y-119445761D01*
X90676266Y-119445761D02*
X90581028Y-119493380D01*
X90581028Y-119493380D02*
X90342933Y-119493380D01*
X90342933Y-119493380D02*
X90247695Y-119445761D01*
X90247695Y-119445761D02*
X90200076Y-119398142D01*
X162444495Y-113492780D02*
X162444495Y-114302304D01*
X162444495Y-114302304D02*
X162492114Y-114397542D01*
X162492114Y-114397542D02*
X162539733Y-114445161D01*
X162539733Y-114445161D02*
X162634971Y-114492780D01*
X162634971Y-114492780D02*
X162825447Y-114492780D01*
X162825447Y-114492780D02*
X162920685Y-114445161D01*
X162920685Y-114445161D02*
X162968304Y-114397542D01*
X162968304Y-114397542D02*
X163015923Y-114302304D01*
X163015923Y-114302304D02*
X163015923Y-113492780D01*
X163396876Y-113492780D02*
X164063542Y-113492780D01*
X164063542Y-113492780D02*
X163634971Y-114492780D01*
X148074142Y-115544942D02*
X148026523Y-115592561D01*
X148026523Y-115592561D02*
X147883666Y-115640180D01*
X147883666Y-115640180D02*
X147788428Y-115640180D01*
X147788428Y-115640180D02*
X147645571Y-115592561D01*
X147645571Y-115592561D02*
X147550333Y-115497323D01*
X147550333Y-115497323D02*
X147502714Y-115402085D01*
X147502714Y-115402085D02*
X147455095Y-115211609D01*
X147455095Y-115211609D02*
X147455095Y-115068752D01*
X147455095Y-115068752D02*
X147502714Y-114878276D01*
X147502714Y-114878276D02*
X147550333Y-114783038D01*
X147550333Y-114783038D02*
X147645571Y-114687800D01*
X147645571Y-114687800D02*
X147788428Y-114640180D01*
X147788428Y-114640180D02*
X147883666Y-114640180D01*
X147883666Y-114640180D02*
X148026523Y-114687800D01*
X148026523Y-114687800D02*
X148074142Y-114735419D01*
X148931285Y-114973514D02*
X148931285Y-115640180D01*
X148693190Y-114592561D02*
X148455095Y-115306847D01*
X148455095Y-115306847D02*
X149074142Y-115306847D01*
X149883666Y-114973514D02*
X149883666Y-115640180D01*
X149645571Y-114592561D02*
X149407476Y-115306847D01*
X149407476Y-115306847D02*
X150026523Y-115306847D01*
X99681380Y-128665266D02*
X99205190Y-128998599D01*
X99681380Y-129236694D02*
X98681380Y-129236694D01*
X98681380Y-129236694D02*
X98681380Y-128855742D01*
X98681380Y-128855742D02*
X98729000Y-128760504D01*
X98729000Y-128760504D02*
X98776619Y-128712885D01*
X98776619Y-128712885D02*
X98871857Y-128665266D01*
X98871857Y-128665266D02*
X99014714Y-128665266D01*
X99014714Y-128665266D02*
X99109952Y-128712885D01*
X99109952Y-128712885D02*
X99157571Y-128760504D01*
X99157571Y-128760504D02*
X99205190Y-128855742D01*
X99205190Y-128855742D02*
X99205190Y-129236694D01*
X98681380Y-128331932D02*
X98681380Y-127665266D01*
X98681380Y-127665266D02*
X99681380Y-128093837D01*
X95642780Y-108669057D02*
X95166590Y-109002390D01*
X95642780Y-109240485D02*
X94642780Y-109240485D01*
X94642780Y-109240485D02*
X94642780Y-108859533D01*
X94642780Y-108859533D02*
X94690400Y-108764295D01*
X94690400Y-108764295D02*
X94738019Y-108716676D01*
X94738019Y-108716676D02*
X94833257Y-108669057D01*
X94833257Y-108669057D02*
X94976114Y-108669057D01*
X94976114Y-108669057D02*
X95071352Y-108716676D01*
X95071352Y-108716676D02*
X95118971Y-108764295D01*
X95118971Y-108764295D02*
X95166590Y-108859533D01*
X95166590Y-108859533D02*
X95166590Y-109240485D01*
X95642780Y-107716676D02*
X95642780Y-108288104D01*
X95642780Y-108002390D02*
X94642780Y-108002390D01*
X94642780Y-108002390D02*
X94785638Y-108097628D01*
X94785638Y-108097628D02*
X94880876Y-108192866D01*
X94880876Y-108192866D02*
X94928495Y-108288104D01*
X94738019Y-107335723D02*
X94690400Y-107288104D01*
X94690400Y-107288104D02*
X94642780Y-107192866D01*
X94642780Y-107192866D02*
X94642780Y-106954771D01*
X94642780Y-106954771D02*
X94690400Y-106859533D01*
X94690400Y-106859533D02*
X94738019Y-106811914D01*
X94738019Y-106811914D02*
X94833257Y-106764295D01*
X94833257Y-106764295D02*
X94928495Y-106764295D01*
X94928495Y-106764295D02*
X95071352Y-106811914D01*
X95071352Y-106811914D02*
X95642780Y-107383342D01*
X95642780Y-107383342D02*
X95642780Y-106764295D01*
X167264380Y-114643157D02*
X166788190Y-114976490D01*
X167264380Y-115214585D02*
X166264380Y-115214585D01*
X166264380Y-115214585D02*
X166264380Y-114833633D01*
X166264380Y-114833633D02*
X166312000Y-114738395D01*
X166312000Y-114738395D02*
X166359619Y-114690776D01*
X166359619Y-114690776D02*
X166454857Y-114643157D01*
X166454857Y-114643157D02*
X166597714Y-114643157D01*
X166597714Y-114643157D02*
X166692952Y-114690776D01*
X166692952Y-114690776D02*
X166740571Y-114738395D01*
X166740571Y-114738395D02*
X166788190Y-114833633D01*
X166788190Y-114833633D02*
X166788190Y-115214585D01*
X167264380Y-113690776D02*
X167264380Y-114262204D01*
X167264380Y-113976490D02*
X166264380Y-113976490D01*
X166264380Y-113976490D02*
X166407238Y-114071728D01*
X166407238Y-114071728D02*
X166502476Y-114166966D01*
X166502476Y-114166966D02*
X166550095Y-114262204D01*
X166264380Y-113357442D02*
X166264380Y-112690776D01*
X166264380Y-112690776D02*
X167264380Y-113119347D01*
X97141380Y-108618257D02*
X96665190Y-108951590D01*
X97141380Y-109189685D02*
X96141380Y-109189685D01*
X96141380Y-109189685D02*
X96141380Y-108808733D01*
X96141380Y-108808733D02*
X96189000Y-108713495D01*
X96189000Y-108713495D02*
X96236619Y-108665876D01*
X96236619Y-108665876D02*
X96331857Y-108618257D01*
X96331857Y-108618257D02*
X96474714Y-108618257D01*
X96474714Y-108618257D02*
X96569952Y-108665876D01*
X96569952Y-108665876D02*
X96617571Y-108713495D01*
X96617571Y-108713495D02*
X96665190Y-108808733D01*
X96665190Y-108808733D02*
X96665190Y-109189685D01*
X97141380Y-107665876D02*
X97141380Y-108237304D01*
X97141380Y-107951590D02*
X96141380Y-107951590D01*
X96141380Y-107951590D02*
X96284238Y-108046828D01*
X96284238Y-108046828D02*
X96379476Y-108142066D01*
X96379476Y-108142066D02*
X96427095Y-108237304D01*
X96141380Y-107332542D02*
X96141380Y-106713495D01*
X96141380Y-106713495D02*
X96522333Y-107046828D01*
X96522333Y-107046828D02*
X96522333Y-106903971D01*
X96522333Y-106903971D02*
X96569952Y-106808733D01*
X96569952Y-106808733D02*
X96617571Y-106761114D01*
X96617571Y-106761114D02*
X96712809Y-106713495D01*
X96712809Y-106713495D02*
X96950904Y-106713495D01*
X96950904Y-106713495D02*
X97046142Y-106761114D01*
X97046142Y-106761114D02*
X97093761Y-106808733D01*
X97093761Y-106808733D02*
X97141380Y-106903971D01*
X97141380Y-106903971D02*
X97141380Y-107189685D01*
X97141380Y-107189685D02*
X97093761Y-107284923D01*
X97093761Y-107284923D02*
X97046142Y-107332542D01*
X92645580Y-108643657D02*
X92169390Y-108976990D01*
X92645580Y-109215085D02*
X91645580Y-109215085D01*
X91645580Y-109215085D02*
X91645580Y-108834133D01*
X91645580Y-108834133D02*
X91693200Y-108738895D01*
X91693200Y-108738895D02*
X91740819Y-108691276D01*
X91740819Y-108691276D02*
X91836057Y-108643657D01*
X91836057Y-108643657D02*
X91978914Y-108643657D01*
X91978914Y-108643657D02*
X92074152Y-108691276D01*
X92074152Y-108691276D02*
X92121771Y-108738895D01*
X92121771Y-108738895D02*
X92169390Y-108834133D01*
X92169390Y-108834133D02*
X92169390Y-109215085D01*
X92645580Y-107691276D02*
X92645580Y-108262704D01*
X92645580Y-107976990D02*
X91645580Y-107976990D01*
X91645580Y-107976990D02*
X91788438Y-108072228D01*
X91788438Y-108072228D02*
X91883676Y-108167466D01*
X91883676Y-108167466D02*
X91931295Y-108262704D01*
X91645580Y-107072228D02*
X91645580Y-106976990D01*
X91645580Y-106976990D02*
X91693200Y-106881752D01*
X91693200Y-106881752D02*
X91740819Y-106834133D01*
X91740819Y-106834133D02*
X91836057Y-106786514D01*
X91836057Y-106786514D02*
X92026533Y-106738895D01*
X92026533Y-106738895D02*
X92264628Y-106738895D01*
X92264628Y-106738895D02*
X92455104Y-106786514D01*
X92455104Y-106786514D02*
X92550342Y-106834133D01*
X92550342Y-106834133D02*
X92597961Y-106881752D01*
X92597961Y-106881752D02*
X92645580Y-106976990D01*
X92645580Y-106976990D02*
X92645580Y-107072228D01*
X92645580Y-107072228D02*
X92597961Y-107167466D01*
X92597961Y-107167466D02*
X92550342Y-107215085D01*
X92550342Y-107215085D02*
X92455104Y-107262704D01*
X92455104Y-107262704D02*
X92264628Y-107310323D01*
X92264628Y-107310323D02*
X92026533Y-107310323D01*
X92026533Y-107310323D02*
X91836057Y-107262704D01*
X91836057Y-107262704D02*
X91740819Y-107215085D01*
X91740819Y-107215085D02*
X91693200Y-107167466D01*
X91693200Y-107167466D02*
X91645580Y-107072228D01*
X99992542Y-108694457D02*
X100040161Y-108742076D01*
X100040161Y-108742076D02*
X100087780Y-108884933D01*
X100087780Y-108884933D02*
X100087780Y-108980171D01*
X100087780Y-108980171D02*
X100040161Y-109123028D01*
X100040161Y-109123028D02*
X99944923Y-109218266D01*
X99944923Y-109218266D02*
X99849685Y-109265885D01*
X99849685Y-109265885D02*
X99659209Y-109313504D01*
X99659209Y-109313504D02*
X99516352Y-109313504D01*
X99516352Y-109313504D02*
X99325876Y-109265885D01*
X99325876Y-109265885D02*
X99230638Y-109218266D01*
X99230638Y-109218266D02*
X99135400Y-109123028D01*
X99135400Y-109123028D02*
X99087780Y-108980171D01*
X99087780Y-108980171D02*
X99087780Y-108884933D01*
X99087780Y-108884933D02*
X99135400Y-108742076D01*
X99135400Y-108742076D02*
X99183019Y-108694457D01*
X99183019Y-108313504D02*
X99135400Y-108265885D01*
X99135400Y-108265885D02*
X99087780Y-108170647D01*
X99087780Y-108170647D02*
X99087780Y-107932552D01*
X99087780Y-107932552D02*
X99135400Y-107837314D01*
X99135400Y-107837314D02*
X99183019Y-107789695D01*
X99183019Y-107789695D02*
X99278257Y-107742076D01*
X99278257Y-107742076D02*
X99373495Y-107742076D01*
X99373495Y-107742076D02*
X99516352Y-107789695D01*
X99516352Y-107789695D02*
X100087780Y-108361123D01*
X100087780Y-108361123D02*
X100087780Y-107742076D01*
X99087780Y-107408742D02*
X99087780Y-106742076D01*
X99087780Y-106742076D02*
X100087780Y-107170647D01*
X112997342Y-120734057D02*
X113044961Y-120781676D01*
X113044961Y-120781676D02*
X113092580Y-120924533D01*
X113092580Y-120924533D02*
X113092580Y-121019771D01*
X113092580Y-121019771D02*
X113044961Y-121162628D01*
X113044961Y-121162628D02*
X112949723Y-121257866D01*
X112949723Y-121257866D02*
X112854485Y-121305485D01*
X112854485Y-121305485D02*
X112664009Y-121353104D01*
X112664009Y-121353104D02*
X112521152Y-121353104D01*
X112521152Y-121353104D02*
X112330676Y-121305485D01*
X112330676Y-121305485D02*
X112235438Y-121257866D01*
X112235438Y-121257866D02*
X112140200Y-121162628D01*
X112140200Y-121162628D02*
X112092580Y-121019771D01*
X112092580Y-121019771D02*
X112092580Y-120924533D01*
X112092580Y-120924533D02*
X112140200Y-120781676D01*
X112140200Y-120781676D02*
X112187819Y-120734057D01*
X113092580Y-119781676D02*
X113092580Y-120353104D01*
X113092580Y-120067390D02*
X112092580Y-120067390D01*
X112092580Y-120067390D02*
X112235438Y-120162628D01*
X112235438Y-120162628D02*
X112330676Y-120257866D01*
X112330676Y-120257866D02*
X112378295Y-120353104D01*
X112092580Y-119448342D02*
X112092580Y-118781676D01*
X112092580Y-118781676D02*
X113092580Y-119210247D01*
X96658780Y-128716066D02*
X96182590Y-129049399D01*
X96658780Y-129287494D02*
X95658780Y-129287494D01*
X95658780Y-129287494D02*
X95658780Y-128906542D01*
X95658780Y-128906542D02*
X95706400Y-128811304D01*
X95706400Y-128811304D02*
X95754019Y-128763685D01*
X95754019Y-128763685D02*
X95849257Y-128716066D01*
X95849257Y-128716066D02*
X95992114Y-128716066D01*
X95992114Y-128716066D02*
X96087352Y-128763685D01*
X96087352Y-128763685D02*
X96134971Y-128811304D01*
X96134971Y-128811304D02*
X96182590Y-128906542D01*
X96182590Y-128906542D02*
X96182590Y-129287494D01*
X95658780Y-127811304D02*
X95658780Y-128287494D01*
X95658780Y-128287494D02*
X96134971Y-128335113D01*
X96134971Y-128335113D02*
X96087352Y-128287494D01*
X96087352Y-128287494D02*
X96039733Y-128192256D01*
X96039733Y-128192256D02*
X96039733Y-127954161D01*
X96039733Y-127954161D02*
X96087352Y-127858923D01*
X96087352Y-127858923D02*
X96134971Y-127811304D01*
X96134971Y-127811304D02*
X96230209Y-127763685D01*
X96230209Y-127763685D02*
X96468304Y-127763685D01*
X96468304Y-127763685D02*
X96563542Y-127811304D01*
X96563542Y-127811304D02*
X96611161Y-127858923D01*
X96611161Y-127858923D02*
X96658780Y-127954161D01*
X96658780Y-127954161D02*
X96658780Y-128192256D01*
X96658780Y-128192256D02*
X96611161Y-128287494D01*
X96611161Y-128287494D02*
X96563542Y-128335113D01*
X106545742Y-121623057D02*
X106593361Y-121670676D01*
X106593361Y-121670676D02*
X106640980Y-121813533D01*
X106640980Y-121813533D02*
X106640980Y-121908771D01*
X106640980Y-121908771D02*
X106593361Y-122051628D01*
X106593361Y-122051628D02*
X106498123Y-122146866D01*
X106498123Y-122146866D02*
X106402885Y-122194485D01*
X106402885Y-122194485D02*
X106212409Y-122242104D01*
X106212409Y-122242104D02*
X106069552Y-122242104D01*
X106069552Y-122242104D02*
X105879076Y-122194485D01*
X105879076Y-122194485D02*
X105783838Y-122146866D01*
X105783838Y-122146866D02*
X105688600Y-122051628D01*
X105688600Y-122051628D02*
X105640980Y-121908771D01*
X105640980Y-121908771D02*
X105640980Y-121813533D01*
X105640980Y-121813533D02*
X105688600Y-121670676D01*
X105688600Y-121670676D02*
X105736219Y-121623057D01*
X106640980Y-120670676D02*
X106640980Y-121242104D01*
X106640980Y-120956390D02*
X105640980Y-120956390D01*
X105640980Y-120956390D02*
X105783838Y-121051628D01*
X105783838Y-121051628D02*
X105879076Y-121146866D01*
X105879076Y-121146866D02*
X105926695Y-121242104D01*
X105640980Y-120337342D02*
X105640980Y-119718295D01*
X105640980Y-119718295D02*
X106021933Y-120051628D01*
X106021933Y-120051628D02*
X106021933Y-119908771D01*
X106021933Y-119908771D02*
X106069552Y-119813533D01*
X106069552Y-119813533D02*
X106117171Y-119765914D01*
X106117171Y-119765914D02*
X106212409Y-119718295D01*
X106212409Y-119718295D02*
X106450504Y-119718295D01*
X106450504Y-119718295D02*
X106545742Y-119765914D01*
X106545742Y-119765914D02*
X106593361Y-119813533D01*
X106593361Y-119813533D02*
X106640980Y-119908771D01*
X106640980Y-119908771D02*
X106640980Y-120194485D01*
X106640980Y-120194485D02*
X106593361Y-120289723D01*
X106593361Y-120289723D02*
X106545742Y-120337342D01*
X88892142Y-125468742D02*
X88844523Y-125516361D01*
X88844523Y-125516361D02*
X88701666Y-125563980D01*
X88701666Y-125563980D02*
X88606428Y-125563980D01*
X88606428Y-125563980D02*
X88463571Y-125516361D01*
X88463571Y-125516361D02*
X88368333Y-125421123D01*
X88368333Y-125421123D02*
X88320714Y-125325885D01*
X88320714Y-125325885D02*
X88273095Y-125135409D01*
X88273095Y-125135409D02*
X88273095Y-124992552D01*
X88273095Y-124992552D02*
X88320714Y-124802076D01*
X88320714Y-124802076D02*
X88368333Y-124706838D01*
X88368333Y-124706838D02*
X88463571Y-124611600D01*
X88463571Y-124611600D02*
X88606428Y-124563980D01*
X88606428Y-124563980D02*
X88701666Y-124563980D01*
X88701666Y-124563980D02*
X88844523Y-124611600D01*
X88844523Y-124611600D02*
X88892142Y-124659219D01*
X89225476Y-124563980D02*
X89844523Y-124563980D01*
X89844523Y-124563980D02*
X89511190Y-124944933D01*
X89511190Y-124944933D02*
X89654047Y-124944933D01*
X89654047Y-124944933D02*
X89749285Y-124992552D01*
X89749285Y-124992552D02*
X89796904Y-125040171D01*
X89796904Y-125040171D02*
X89844523Y-125135409D01*
X89844523Y-125135409D02*
X89844523Y-125373504D01*
X89844523Y-125373504D02*
X89796904Y-125468742D01*
X89796904Y-125468742D02*
X89749285Y-125516361D01*
X89749285Y-125516361D02*
X89654047Y-125563980D01*
X89654047Y-125563980D02*
X89368333Y-125563980D01*
X89368333Y-125563980D02*
X89273095Y-125516361D01*
X89273095Y-125516361D02*
X89225476Y-125468742D01*
X90463571Y-124563980D02*
X90558809Y-124563980D01*
X90558809Y-124563980D02*
X90654047Y-124611600D01*
X90654047Y-124611600D02*
X90701666Y-124659219D01*
X90701666Y-124659219D02*
X90749285Y-124754457D01*
X90749285Y-124754457D02*
X90796904Y-124944933D01*
X90796904Y-124944933D02*
X90796904Y-125183028D01*
X90796904Y-125183028D02*
X90749285Y-125373504D01*
X90749285Y-125373504D02*
X90701666Y-125468742D01*
X90701666Y-125468742D02*
X90654047Y-125516361D01*
X90654047Y-125516361D02*
X90558809Y-125563980D01*
X90558809Y-125563980D02*
X90463571Y-125563980D01*
X90463571Y-125563980D02*
X90368333Y-125516361D01*
X90368333Y-125516361D02*
X90320714Y-125468742D01*
X90320714Y-125468742D02*
X90273095Y-125373504D01*
X90273095Y-125373504D02*
X90225476Y-125183028D01*
X90225476Y-125183028D02*
X90225476Y-124944933D01*
X90225476Y-124944933D02*
X90273095Y-124754457D01*
X90273095Y-124754457D02*
X90320714Y-124659219D01*
X90320714Y-124659219D02*
X90368333Y-124611600D01*
X90368333Y-124611600D02*
X90463571Y-124563980D01*
X88815942Y-122471542D02*
X88768323Y-122519161D01*
X88768323Y-122519161D02*
X88625466Y-122566780D01*
X88625466Y-122566780D02*
X88530228Y-122566780D01*
X88530228Y-122566780D02*
X88387371Y-122519161D01*
X88387371Y-122519161D02*
X88292133Y-122423923D01*
X88292133Y-122423923D02*
X88244514Y-122328685D01*
X88244514Y-122328685D02*
X88196895Y-122138209D01*
X88196895Y-122138209D02*
X88196895Y-121995352D01*
X88196895Y-121995352D02*
X88244514Y-121804876D01*
X88244514Y-121804876D02*
X88292133Y-121709638D01*
X88292133Y-121709638D02*
X88387371Y-121614400D01*
X88387371Y-121614400D02*
X88530228Y-121566780D01*
X88530228Y-121566780D02*
X88625466Y-121566780D01*
X88625466Y-121566780D02*
X88768323Y-121614400D01*
X88768323Y-121614400D02*
X88815942Y-121662019D01*
X89196895Y-121662019D02*
X89244514Y-121614400D01*
X89244514Y-121614400D02*
X89339752Y-121566780D01*
X89339752Y-121566780D02*
X89577847Y-121566780D01*
X89577847Y-121566780D02*
X89673085Y-121614400D01*
X89673085Y-121614400D02*
X89720704Y-121662019D01*
X89720704Y-121662019D02*
X89768323Y-121757257D01*
X89768323Y-121757257D02*
X89768323Y-121852495D01*
X89768323Y-121852495D02*
X89720704Y-121995352D01*
X89720704Y-121995352D02*
X89149276Y-122566780D01*
X89149276Y-122566780D02*
X89768323Y-122566780D01*
X90339752Y-121995352D02*
X90244514Y-121947733D01*
X90244514Y-121947733D02*
X90196895Y-121900114D01*
X90196895Y-121900114D02*
X90149276Y-121804876D01*
X90149276Y-121804876D02*
X90149276Y-121757257D01*
X90149276Y-121757257D02*
X90196895Y-121662019D01*
X90196895Y-121662019D02*
X90244514Y-121614400D01*
X90244514Y-121614400D02*
X90339752Y-121566780D01*
X90339752Y-121566780D02*
X90530228Y-121566780D01*
X90530228Y-121566780D02*
X90625466Y-121614400D01*
X90625466Y-121614400D02*
X90673085Y-121662019D01*
X90673085Y-121662019D02*
X90720704Y-121757257D01*
X90720704Y-121757257D02*
X90720704Y-121804876D01*
X90720704Y-121804876D02*
X90673085Y-121900114D01*
X90673085Y-121900114D02*
X90625466Y-121947733D01*
X90625466Y-121947733D02*
X90530228Y-121995352D01*
X90530228Y-121995352D02*
X90339752Y-121995352D01*
X90339752Y-121995352D02*
X90244514Y-122042971D01*
X90244514Y-122042971D02*
X90196895Y-122090590D01*
X90196895Y-122090590D02*
X90149276Y-122185828D01*
X90149276Y-122185828D02*
X90149276Y-122376304D01*
X90149276Y-122376304D02*
X90196895Y-122471542D01*
X90196895Y-122471542D02*
X90244514Y-122519161D01*
X90244514Y-122519161D02*
X90339752Y-122566780D01*
X90339752Y-122566780D02*
X90530228Y-122566780D01*
X90530228Y-122566780D02*
X90625466Y-122519161D01*
X90625466Y-122519161D02*
X90673085Y-122471542D01*
X90673085Y-122471542D02*
X90720704Y-122376304D01*
X90720704Y-122376304D02*
X90720704Y-122185828D01*
X90720704Y-122185828D02*
X90673085Y-122090590D01*
X90673085Y-122090590D02*
X90625466Y-122042971D01*
X90625466Y-122042971D02*
X90530228Y-121995352D01*
X137957433Y-101211742D02*
X137909814Y-101259361D01*
X137909814Y-101259361D02*
X137766957Y-101306980D01*
X137766957Y-101306980D02*
X137671719Y-101306980D01*
X137671719Y-101306980D02*
X137528862Y-101259361D01*
X137528862Y-101259361D02*
X137433624Y-101164123D01*
X137433624Y-101164123D02*
X137386005Y-101068885D01*
X137386005Y-101068885D02*
X137338386Y-100878409D01*
X137338386Y-100878409D02*
X137338386Y-100735552D01*
X137338386Y-100735552D02*
X137386005Y-100545076D01*
X137386005Y-100545076D02*
X137433624Y-100449838D01*
X137433624Y-100449838D02*
X137528862Y-100354600D01*
X137528862Y-100354600D02*
X137671719Y-100306980D01*
X137671719Y-100306980D02*
X137766957Y-100306980D01*
X137766957Y-100306980D02*
X137909814Y-100354600D01*
X137909814Y-100354600D02*
X137957433Y-100402219D01*
X138338386Y-100402219D02*
X138386005Y-100354600D01*
X138386005Y-100354600D02*
X138481243Y-100306980D01*
X138481243Y-100306980D02*
X138719338Y-100306980D01*
X138719338Y-100306980D02*
X138814576Y-100354600D01*
X138814576Y-100354600D02*
X138862195Y-100402219D01*
X138862195Y-100402219D02*
X138909814Y-100497457D01*
X138909814Y-100497457D02*
X138909814Y-100592695D01*
X138909814Y-100592695D02*
X138862195Y-100735552D01*
X138862195Y-100735552D02*
X138290767Y-101306980D01*
X138290767Y-101306980D02*
X138909814Y-101306980D01*
X130243942Y-99429866D02*
X130291561Y-99477485D01*
X130291561Y-99477485D02*
X130339180Y-99620342D01*
X130339180Y-99620342D02*
X130339180Y-99715580D01*
X130339180Y-99715580D02*
X130291561Y-99858437D01*
X130291561Y-99858437D02*
X130196323Y-99953675D01*
X130196323Y-99953675D02*
X130101085Y-100001294D01*
X130101085Y-100001294D02*
X129910609Y-100048913D01*
X129910609Y-100048913D02*
X129767752Y-100048913D01*
X129767752Y-100048913D02*
X129577276Y-100001294D01*
X129577276Y-100001294D02*
X129482038Y-99953675D01*
X129482038Y-99953675D02*
X129386800Y-99858437D01*
X129386800Y-99858437D02*
X129339180Y-99715580D01*
X129339180Y-99715580D02*
X129339180Y-99620342D01*
X129339180Y-99620342D02*
X129386800Y-99477485D01*
X129386800Y-99477485D02*
X129434419Y-99429866D01*
X129339180Y-98572723D02*
X129339180Y-98763199D01*
X129339180Y-98763199D02*
X129386800Y-98858437D01*
X129386800Y-98858437D02*
X129434419Y-98906056D01*
X129434419Y-98906056D02*
X129577276Y-99001294D01*
X129577276Y-99001294D02*
X129767752Y-99048913D01*
X129767752Y-99048913D02*
X130148704Y-99048913D01*
X130148704Y-99048913D02*
X130243942Y-99001294D01*
X130243942Y-99001294D02*
X130291561Y-98953675D01*
X130291561Y-98953675D02*
X130339180Y-98858437D01*
X130339180Y-98858437D02*
X130339180Y-98667961D01*
X130339180Y-98667961D02*
X130291561Y-98572723D01*
X130291561Y-98572723D02*
X130243942Y-98525104D01*
X130243942Y-98525104D02*
X130148704Y-98477485D01*
X130148704Y-98477485D02*
X129910609Y-98477485D01*
X129910609Y-98477485D02*
X129815371Y-98525104D01*
X129815371Y-98525104D02*
X129767752Y-98572723D01*
X129767752Y-98572723D02*
X129720133Y-98667961D01*
X129720133Y-98667961D02*
X129720133Y-98858437D01*
X129720133Y-98858437D02*
X129767752Y-98953675D01*
X129767752Y-98953675D02*
X129815371Y-99001294D01*
X129815371Y-99001294D02*
X129910609Y-99048913D01*
X88892142Y-120896742D02*
X88844523Y-120944361D01*
X88844523Y-120944361D02*
X88701666Y-120991980D01*
X88701666Y-120991980D02*
X88606428Y-120991980D01*
X88606428Y-120991980D02*
X88463571Y-120944361D01*
X88463571Y-120944361D02*
X88368333Y-120849123D01*
X88368333Y-120849123D02*
X88320714Y-120753885D01*
X88320714Y-120753885D02*
X88273095Y-120563409D01*
X88273095Y-120563409D02*
X88273095Y-120420552D01*
X88273095Y-120420552D02*
X88320714Y-120230076D01*
X88320714Y-120230076D02*
X88368333Y-120134838D01*
X88368333Y-120134838D02*
X88463571Y-120039600D01*
X88463571Y-120039600D02*
X88606428Y-119991980D01*
X88606428Y-119991980D02*
X88701666Y-119991980D01*
X88701666Y-119991980D02*
X88844523Y-120039600D01*
X88844523Y-120039600D02*
X88892142Y-120087219D01*
X89273095Y-120087219D02*
X89320714Y-120039600D01*
X89320714Y-120039600D02*
X89415952Y-119991980D01*
X89415952Y-119991980D02*
X89654047Y-119991980D01*
X89654047Y-119991980D02*
X89749285Y-120039600D01*
X89749285Y-120039600D02*
X89796904Y-120087219D01*
X89796904Y-120087219D02*
X89844523Y-120182457D01*
X89844523Y-120182457D02*
X89844523Y-120277695D01*
X89844523Y-120277695D02*
X89796904Y-120420552D01*
X89796904Y-120420552D02*
X89225476Y-120991980D01*
X89225476Y-120991980D02*
X89844523Y-120991980D01*
X90701666Y-119991980D02*
X90511190Y-119991980D01*
X90511190Y-119991980D02*
X90415952Y-120039600D01*
X90415952Y-120039600D02*
X90368333Y-120087219D01*
X90368333Y-120087219D02*
X90273095Y-120230076D01*
X90273095Y-120230076D02*
X90225476Y-120420552D01*
X90225476Y-120420552D02*
X90225476Y-120801504D01*
X90225476Y-120801504D02*
X90273095Y-120896742D01*
X90273095Y-120896742D02*
X90320714Y-120944361D01*
X90320714Y-120944361D02*
X90415952Y-120991980D01*
X90415952Y-120991980D02*
X90606428Y-120991980D01*
X90606428Y-120991980D02*
X90701666Y-120944361D01*
X90701666Y-120944361D02*
X90749285Y-120896742D01*
X90749285Y-120896742D02*
X90796904Y-120801504D01*
X90796904Y-120801504D02*
X90796904Y-120563409D01*
X90796904Y-120563409D02*
X90749285Y-120468171D01*
X90749285Y-120468171D02*
X90701666Y-120420552D01*
X90701666Y-120420552D02*
X90606428Y-120372933D01*
X90606428Y-120372933D02*
X90415952Y-120372933D01*
X90415952Y-120372933D02*
X90320714Y-120420552D01*
X90320714Y-120420552D02*
X90273095Y-120468171D01*
X90273095Y-120468171D02*
X90225476Y-120563409D01*
X140995495Y-109180180D02*
X140995495Y-109989704D01*
X140995495Y-109989704D02*
X141043114Y-110084942D01*
X141043114Y-110084942D02*
X141090733Y-110132561D01*
X141090733Y-110132561D02*
X141185971Y-110180180D01*
X141185971Y-110180180D02*
X141376447Y-110180180D01*
X141376447Y-110180180D02*
X141471685Y-110132561D01*
X141471685Y-110132561D02*
X141519304Y-110084942D01*
X141519304Y-110084942D02*
X141566923Y-109989704D01*
X141566923Y-109989704D02*
X141566923Y-109180180D01*
X142090733Y-110180180D02*
X142281209Y-110180180D01*
X142281209Y-110180180D02*
X142376447Y-110132561D01*
X142376447Y-110132561D02*
X142424066Y-110084942D01*
X142424066Y-110084942D02*
X142519304Y-109942085D01*
X142519304Y-109942085D02*
X142566923Y-109751609D01*
X142566923Y-109751609D02*
X142566923Y-109370657D01*
X142566923Y-109370657D02*
X142519304Y-109275419D01*
X142519304Y-109275419D02*
X142471685Y-109227800D01*
X142471685Y-109227800D02*
X142376447Y-109180180D01*
X142376447Y-109180180D02*
X142185971Y-109180180D01*
X142185971Y-109180180D02*
X142090733Y-109227800D01*
X142090733Y-109227800D02*
X142043114Y-109275419D01*
X142043114Y-109275419D02*
X141995495Y-109370657D01*
X141995495Y-109370657D02*
X141995495Y-109608752D01*
X141995495Y-109608752D02*
X142043114Y-109703990D01*
X142043114Y-109703990D02*
X142090733Y-109751609D01*
X142090733Y-109751609D02*
X142185971Y-109799228D01*
X142185971Y-109799228D02*
X142376447Y-109799228D01*
X142376447Y-109799228D02*
X142471685Y-109751609D01*
X142471685Y-109751609D02*
X142519304Y-109703990D01*
X142519304Y-109703990D02*
X142566923Y-109608752D01*
X158615742Y-105722657D02*
X158663361Y-105770276D01*
X158663361Y-105770276D02*
X158710980Y-105913133D01*
X158710980Y-105913133D02*
X158710980Y-106008371D01*
X158710980Y-106008371D02*
X158663361Y-106151228D01*
X158663361Y-106151228D02*
X158568123Y-106246466D01*
X158568123Y-106246466D02*
X158472885Y-106294085D01*
X158472885Y-106294085D02*
X158282409Y-106341704D01*
X158282409Y-106341704D02*
X158139552Y-106341704D01*
X158139552Y-106341704D02*
X157949076Y-106294085D01*
X157949076Y-106294085D02*
X157853838Y-106246466D01*
X157853838Y-106246466D02*
X157758600Y-106151228D01*
X157758600Y-106151228D02*
X157710980Y-106008371D01*
X157710980Y-106008371D02*
X157710980Y-105913133D01*
X157710980Y-105913133D02*
X157758600Y-105770276D01*
X157758600Y-105770276D02*
X157806219Y-105722657D01*
X158710980Y-104770276D02*
X158710980Y-105341704D01*
X158710980Y-105055990D02*
X157710980Y-105055990D01*
X157710980Y-105055990D02*
X157853838Y-105151228D01*
X157853838Y-105151228D02*
X157949076Y-105246466D01*
X157949076Y-105246466D02*
X157996695Y-105341704D01*
X158710980Y-103817895D02*
X158710980Y-104389323D01*
X158710980Y-104103609D02*
X157710980Y-104103609D01*
X157710980Y-104103609D02*
X157853838Y-104198847D01*
X157853838Y-104198847D02*
X157949076Y-104294085D01*
X157949076Y-104294085D02*
X157996695Y-104389323D01*
X116190733Y-107123580D02*
X115857400Y-106647390D01*
X115619305Y-107123580D02*
X115619305Y-106123580D01*
X115619305Y-106123580D02*
X116000257Y-106123580D01*
X116000257Y-106123580D02*
X116095495Y-106171200D01*
X116095495Y-106171200D02*
X116143114Y-106218819D01*
X116143114Y-106218819D02*
X116190733Y-106314057D01*
X116190733Y-106314057D02*
X116190733Y-106456914D01*
X116190733Y-106456914D02*
X116143114Y-106552152D01*
X116143114Y-106552152D02*
X116095495Y-106599771D01*
X116095495Y-106599771D02*
X116000257Y-106647390D01*
X116000257Y-106647390D02*
X115619305Y-106647390D01*
X117047876Y-106456914D02*
X117047876Y-107123580D01*
X116809781Y-106075961D02*
X116571686Y-106790247D01*
X116571686Y-106790247D02*
X117190733Y-106790247D01*
X137957433Y-105359542D02*
X137909814Y-105407161D01*
X137909814Y-105407161D02*
X137766957Y-105454780D01*
X137766957Y-105454780D02*
X137671719Y-105454780D01*
X137671719Y-105454780D02*
X137528862Y-105407161D01*
X137528862Y-105407161D02*
X137433624Y-105311923D01*
X137433624Y-105311923D02*
X137386005Y-105216685D01*
X137386005Y-105216685D02*
X137338386Y-105026209D01*
X137338386Y-105026209D02*
X137338386Y-104883352D01*
X137338386Y-104883352D02*
X137386005Y-104692876D01*
X137386005Y-104692876D02*
X137433624Y-104597638D01*
X137433624Y-104597638D02*
X137528862Y-104502400D01*
X137528862Y-104502400D02*
X137671719Y-104454780D01*
X137671719Y-104454780D02*
X137766957Y-104454780D01*
X137766957Y-104454780D02*
X137909814Y-104502400D01*
X137909814Y-104502400D02*
X137957433Y-104550019D01*
X138909814Y-105454780D02*
X138338386Y-105454780D01*
X138624100Y-105454780D02*
X138624100Y-104454780D01*
X138624100Y-104454780D02*
X138528862Y-104597638D01*
X138528862Y-104597638D02*
X138433624Y-104692876D01*
X138433624Y-104692876D02*
X138338386Y-104740495D01*
X126858733Y-97706542D02*
X126811114Y-97754161D01*
X126811114Y-97754161D02*
X126668257Y-97801780D01*
X126668257Y-97801780D02*
X126573019Y-97801780D01*
X126573019Y-97801780D02*
X126430162Y-97754161D01*
X126430162Y-97754161D02*
X126334924Y-97658923D01*
X126334924Y-97658923D02*
X126287305Y-97563685D01*
X126287305Y-97563685D02*
X126239686Y-97373209D01*
X126239686Y-97373209D02*
X126239686Y-97230352D01*
X126239686Y-97230352D02*
X126287305Y-97039876D01*
X126287305Y-97039876D02*
X126334924Y-96944638D01*
X126334924Y-96944638D02*
X126430162Y-96849400D01*
X126430162Y-96849400D02*
X126573019Y-96801780D01*
X126573019Y-96801780D02*
X126668257Y-96801780D01*
X126668257Y-96801780D02*
X126811114Y-96849400D01*
X126811114Y-96849400D02*
X126858733Y-96897019D01*
X127334924Y-97801780D02*
X127525400Y-97801780D01*
X127525400Y-97801780D02*
X127620638Y-97754161D01*
X127620638Y-97754161D02*
X127668257Y-97706542D01*
X127668257Y-97706542D02*
X127763495Y-97563685D01*
X127763495Y-97563685D02*
X127811114Y-97373209D01*
X127811114Y-97373209D02*
X127811114Y-96992257D01*
X127811114Y-96992257D02*
X127763495Y-96897019D01*
X127763495Y-96897019D02*
X127715876Y-96849400D01*
X127715876Y-96849400D02*
X127620638Y-96801780D01*
X127620638Y-96801780D02*
X127430162Y-96801780D01*
X127430162Y-96801780D02*
X127334924Y-96849400D01*
X127334924Y-96849400D02*
X127287305Y-96897019D01*
X127287305Y-96897019D02*
X127239686Y-96992257D01*
X127239686Y-96992257D02*
X127239686Y-97230352D01*
X127239686Y-97230352D02*
X127287305Y-97325590D01*
X127287305Y-97325590D02*
X127334924Y-97373209D01*
X127334924Y-97373209D02*
X127430162Y-97420828D01*
X127430162Y-97420828D02*
X127620638Y-97420828D01*
X127620638Y-97420828D02*
X127715876Y-97373209D01*
X127715876Y-97373209D02*
X127763495Y-97325590D01*
X127763495Y-97325590D02*
X127811114Y-97230352D01*
X111473342Y-120759457D02*
X111520961Y-120807076D01*
X111520961Y-120807076D02*
X111568580Y-120949933D01*
X111568580Y-120949933D02*
X111568580Y-121045171D01*
X111568580Y-121045171D02*
X111520961Y-121188028D01*
X111520961Y-121188028D02*
X111425723Y-121283266D01*
X111425723Y-121283266D02*
X111330485Y-121330885D01*
X111330485Y-121330885D02*
X111140009Y-121378504D01*
X111140009Y-121378504D02*
X110997152Y-121378504D01*
X110997152Y-121378504D02*
X110806676Y-121330885D01*
X110806676Y-121330885D02*
X110711438Y-121283266D01*
X110711438Y-121283266D02*
X110616200Y-121188028D01*
X110616200Y-121188028D02*
X110568580Y-121045171D01*
X110568580Y-121045171D02*
X110568580Y-120949933D01*
X110568580Y-120949933D02*
X110616200Y-120807076D01*
X110616200Y-120807076D02*
X110663819Y-120759457D01*
X111568580Y-119807076D02*
X111568580Y-120378504D01*
X111568580Y-120092790D02*
X110568580Y-120092790D01*
X110568580Y-120092790D02*
X110711438Y-120188028D01*
X110711438Y-120188028D02*
X110806676Y-120283266D01*
X110806676Y-120283266D02*
X110854295Y-120378504D01*
X110997152Y-119235647D02*
X110949533Y-119330885D01*
X110949533Y-119330885D02*
X110901914Y-119378504D01*
X110901914Y-119378504D02*
X110806676Y-119426123D01*
X110806676Y-119426123D02*
X110759057Y-119426123D01*
X110759057Y-119426123D02*
X110663819Y-119378504D01*
X110663819Y-119378504D02*
X110616200Y-119330885D01*
X110616200Y-119330885D02*
X110568580Y-119235647D01*
X110568580Y-119235647D02*
X110568580Y-119045171D01*
X110568580Y-119045171D02*
X110616200Y-118949933D01*
X110616200Y-118949933D02*
X110663819Y-118902314D01*
X110663819Y-118902314D02*
X110759057Y-118854695D01*
X110759057Y-118854695D02*
X110806676Y-118854695D01*
X110806676Y-118854695D02*
X110901914Y-118902314D01*
X110901914Y-118902314D02*
X110949533Y-118949933D01*
X110949533Y-118949933D02*
X110997152Y-119045171D01*
X110997152Y-119045171D02*
X110997152Y-119235647D01*
X110997152Y-119235647D02*
X111044771Y-119330885D01*
X111044771Y-119330885D02*
X111092390Y-119378504D01*
X111092390Y-119378504D02*
X111187628Y-119426123D01*
X111187628Y-119426123D02*
X111378104Y-119426123D01*
X111378104Y-119426123D02*
X111473342Y-119378504D01*
X111473342Y-119378504D02*
X111520961Y-119330885D01*
X111520961Y-119330885D02*
X111568580Y-119235647D01*
X111568580Y-119235647D02*
X111568580Y-119045171D01*
X111568580Y-119045171D02*
X111520961Y-118949933D01*
X111520961Y-118949933D02*
X111473342Y-118902314D01*
X111473342Y-118902314D02*
X111378104Y-118854695D01*
X111378104Y-118854695D02*
X111187628Y-118854695D01*
X111187628Y-118854695D02*
X111092390Y-118902314D01*
X111092390Y-118902314D02*
X111044771Y-118949933D01*
X111044771Y-118949933D02*
X110997152Y-119045171D01*
X155055380Y-124230704D02*
X155864904Y-124230704D01*
X155864904Y-124230704D02*
X155960142Y-124183085D01*
X155960142Y-124183085D02*
X156007761Y-124135466D01*
X156007761Y-124135466D02*
X156055380Y-124040228D01*
X156055380Y-124040228D02*
X156055380Y-123849752D01*
X156055380Y-123849752D02*
X156007761Y-123754514D01*
X156007761Y-123754514D02*
X155960142Y-123706895D01*
X155960142Y-123706895D02*
X155864904Y-123659276D01*
X155864904Y-123659276D02*
X155055380Y-123659276D01*
X155055380Y-122754514D02*
X155055380Y-122944990D01*
X155055380Y-122944990D02*
X155103000Y-123040228D01*
X155103000Y-123040228D02*
X155150619Y-123087847D01*
X155150619Y-123087847D02*
X155293476Y-123183085D01*
X155293476Y-123183085D02*
X155483952Y-123230704D01*
X155483952Y-123230704D02*
X155864904Y-123230704D01*
X155864904Y-123230704D02*
X155960142Y-123183085D01*
X155960142Y-123183085D02*
X156007761Y-123135466D01*
X156007761Y-123135466D02*
X156055380Y-123040228D01*
X156055380Y-123040228D02*
X156055380Y-122849752D01*
X156055380Y-122849752D02*
X156007761Y-122754514D01*
X156007761Y-122754514D02*
X155960142Y-122706895D01*
X155960142Y-122706895D02*
X155864904Y-122659276D01*
X155864904Y-122659276D02*
X155626809Y-122659276D01*
X155626809Y-122659276D02*
X155531571Y-122706895D01*
X155531571Y-122706895D02*
X155483952Y-122754514D01*
X155483952Y-122754514D02*
X155436333Y-122849752D01*
X155436333Y-122849752D02*
X155436333Y-123040228D01*
X155436333Y-123040228D02*
X155483952Y-123135466D01*
X155483952Y-123135466D02*
X155531571Y-123183085D01*
X155531571Y-123183085D02*
X155626809Y-123230704D01*
X121613342Y-113123842D02*
X121565723Y-113171461D01*
X121565723Y-113171461D02*
X121422866Y-113219080D01*
X121422866Y-113219080D02*
X121327628Y-113219080D01*
X121327628Y-113219080D02*
X121184771Y-113171461D01*
X121184771Y-113171461D02*
X121089533Y-113076223D01*
X121089533Y-113076223D02*
X121041914Y-112980985D01*
X121041914Y-112980985D02*
X120994295Y-112790509D01*
X120994295Y-112790509D02*
X120994295Y-112647652D01*
X120994295Y-112647652D02*
X121041914Y-112457176D01*
X121041914Y-112457176D02*
X121089533Y-112361938D01*
X121089533Y-112361938D02*
X121184771Y-112266700D01*
X121184771Y-112266700D02*
X121327628Y-112219080D01*
X121327628Y-112219080D02*
X121422866Y-112219080D01*
X121422866Y-112219080D02*
X121565723Y-112266700D01*
X121565723Y-112266700D02*
X121613342Y-112314319D01*
X121946676Y-112219080D02*
X122565723Y-112219080D01*
X122565723Y-112219080D02*
X122232390Y-112600033D01*
X122232390Y-112600033D02*
X122375247Y-112600033D01*
X122375247Y-112600033D02*
X122470485Y-112647652D01*
X122470485Y-112647652D02*
X122518104Y-112695271D01*
X122518104Y-112695271D02*
X122565723Y-112790509D01*
X122565723Y-112790509D02*
X122565723Y-113028604D01*
X122565723Y-113028604D02*
X122518104Y-113123842D01*
X122518104Y-113123842D02*
X122470485Y-113171461D01*
X122470485Y-113171461D02*
X122375247Y-113219080D01*
X122375247Y-113219080D02*
X122089533Y-113219080D01*
X122089533Y-113219080D02*
X121994295Y-113171461D01*
X121994295Y-113171461D02*
X121946676Y-113123842D01*
X123422866Y-112219080D02*
X123232390Y-112219080D01*
X123232390Y-112219080D02*
X123137152Y-112266700D01*
X123137152Y-112266700D02*
X123089533Y-112314319D01*
X123089533Y-112314319D02*
X122994295Y-112457176D01*
X122994295Y-112457176D02*
X122946676Y-112647652D01*
X122946676Y-112647652D02*
X122946676Y-113028604D01*
X122946676Y-113028604D02*
X122994295Y-113123842D01*
X122994295Y-113123842D02*
X123041914Y-113171461D01*
X123041914Y-113171461D02*
X123137152Y-113219080D01*
X123137152Y-113219080D02*
X123327628Y-113219080D01*
X123327628Y-113219080D02*
X123422866Y-113171461D01*
X123422866Y-113171461D02*
X123470485Y-113123842D01*
X123470485Y-113123842D02*
X123518104Y-113028604D01*
X123518104Y-113028604D02*
X123518104Y-112790509D01*
X123518104Y-112790509D02*
X123470485Y-112695271D01*
X123470485Y-112695271D02*
X123422866Y-112647652D01*
X123422866Y-112647652D02*
X123327628Y-112600033D01*
X123327628Y-112600033D02*
X123137152Y-112600033D01*
X123137152Y-112600033D02*
X123041914Y-112647652D01*
X123041914Y-112647652D02*
X122994295Y-112695271D01*
X122994295Y-112695271D02*
X122946676Y-112790509D01*
X159083742Y-113959380D02*
X158750409Y-113483190D01*
X158512314Y-113959380D02*
X158512314Y-112959380D01*
X158512314Y-112959380D02*
X158893266Y-112959380D01*
X158893266Y-112959380D02*
X158988504Y-113007000D01*
X158988504Y-113007000D02*
X159036123Y-113054619D01*
X159036123Y-113054619D02*
X159083742Y-113149857D01*
X159083742Y-113149857D02*
X159083742Y-113292714D01*
X159083742Y-113292714D02*
X159036123Y-113387952D01*
X159036123Y-113387952D02*
X158988504Y-113435571D01*
X158988504Y-113435571D02*
X158893266Y-113483190D01*
X158893266Y-113483190D02*
X158512314Y-113483190D01*
X160036123Y-113959380D02*
X159464695Y-113959380D01*
X159750409Y-113959380D02*
X159750409Y-112959380D01*
X159750409Y-112959380D02*
X159655171Y-113102238D01*
X159655171Y-113102238D02*
X159559933Y-113197476D01*
X159559933Y-113197476D02*
X159464695Y-113245095D01*
X160893266Y-112959380D02*
X160702790Y-112959380D01*
X160702790Y-112959380D02*
X160607552Y-113007000D01*
X160607552Y-113007000D02*
X160559933Y-113054619D01*
X160559933Y-113054619D02*
X160464695Y-113197476D01*
X160464695Y-113197476D02*
X160417076Y-113387952D01*
X160417076Y-113387952D02*
X160417076Y-113768904D01*
X160417076Y-113768904D02*
X160464695Y-113864142D01*
X160464695Y-113864142D02*
X160512314Y-113911761D01*
X160512314Y-113911761D02*
X160607552Y-113959380D01*
X160607552Y-113959380D02*
X160798028Y-113959380D01*
X160798028Y-113959380D02*
X160893266Y-113911761D01*
X160893266Y-113911761D02*
X160940885Y-113864142D01*
X160940885Y-113864142D02*
X160988504Y-113768904D01*
X160988504Y-113768904D02*
X160988504Y-113530809D01*
X160988504Y-113530809D02*
X160940885Y-113435571D01*
X160940885Y-113435571D02*
X160893266Y-113387952D01*
X160893266Y-113387952D02*
X160798028Y-113340333D01*
X160798028Y-113340333D02*
X160607552Y-113340333D01*
X160607552Y-113340333D02*
X160512314Y-113387952D01*
X160512314Y-113387952D02*
X160464695Y-113435571D01*
X160464695Y-113435571D02*
X160417076Y-113530809D01*
X144944180Y-102420657D02*
X144467990Y-102753990D01*
X144944180Y-102992085D02*
X143944180Y-102992085D01*
X143944180Y-102992085D02*
X143944180Y-102611133D01*
X143944180Y-102611133D02*
X143991800Y-102515895D01*
X143991800Y-102515895D02*
X144039419Y-102468276D01*
X144039419Y-102468276D02*
X144134657Y-102420657D01*
X144134657Y-102420657D02*
X144277514Y-102420657D01*
X144277514Y-102420657D02*
X144372752Y-102468276D01*
X144372752Y-102468276D02*
X144420371Y-102515895D01*
X144420371Y-102515895D02*
X144467990Y-102611133D01*
X144467990Y-102611133D02*
X144467990Y-102992085D01*
X144944180Y-101468276D02*
X144944180Y-102039704D01*
X144944180Y-101753990D02*
X143944180Y-101753990D01*
X143944180Y-101753990D02*
X144087038Y-101849228D01*
X144087038Y-101849228D02*
X144182276Y-101944466D01*
X144182276Y-101944466D02*
X144229895Y-102039704D01*
X144372752Y-100896847D02*
X144325133Y-100992085D01*
X144325133Y-100992085D02*
X144277514Y-101039704D01*
X144277514Y-101039704D02*
X144182276Y-101087323D01*
X144182276Y-101087323D02*
X144134657Y-101087323D01*
X144134657Y-101087323D02*
X144039419Y-101039704D01*
X144039419Y-101039704D02*
X143991800Y-100992085D01*
X143991800Y-100992085D02*
X143944180Y-100896847D01*
X143944180Y-100896847D02*
X143944180Y-100706371D01*
X143944180Y-100706371D02*
X143991800Y-100611133D01*
X143991800Y-100611133D02*
X144039419Y-100563514D01*
X144039419Y-100563514D02*
X144134657Y-100515895D01*
X144134657Y-100515895D02*
X144182276Y-100515895D01*
X144182276Y-100515895D02*
X144277514Y-100563514D01*
X144277514Y-100563514D02*
X144325133Y-100611133D01*
X144325133Y-100611133D02*
X144372752Y-100706371D01*
X144372752Y-100706371D02*
X144372752Y-100896847D01*
X144372752Y-100896847D02*
X144420371Y-100992085D01*
X144420371Y-100992085D02*
X144467990Y-101039704D01*
X144467990Y-101039704D02*
X144563228Y-101087323D01*
X144563228Y-101087323D02*
X144753704Y-101087323D01*
X144753704Y-101087323D02*
X144848942Y-101039704D01*
X144848942Y-101039704D02*
X144896561Y-100992085D01*
X144896561Y-100992085D02*
X144944180Y-100896847D01*
X144944180Y-100896847D02*
X144944180Y-100706371D01*
X144944180Y-100706371D02*
X144896561Y-100611133D01*
X144896561Y-100611133D02*
X144848942Y-100563514D01*
X144848942Y-100563514D02*
X144753704Y-100515895D01*
X144753704Y-100515895D02*
X144563228Y-100515895D01*
X144563228Y-100515895D02*
X144467990Y-100563514D01*
X144467990Y-100563514D02*
X144420371Y-100611133D01*
X144420371Y-100611133D02*
X144372752Y-100706371D01*
X128338942Y-111571066D02*
X128386561Y-111618685D01*
X128386561Y-111618685D02*
X128434180Y-111761542D01*
X128434180Y-111761542D02*
X128434180Y-111856780D01*
X128434180Y-111856780D02*
X128386561Y-111999637D01*
X128386561Y-111999637D02*
X128291323Y-112094875D01*
X128291323Y-112094875D02*
X128196085Y-112142494D01*
X128196085Y-112142494D02*
X128005609Y-112190113D01*
X128005609Y-112190113D02*
X127862752Y-112190113D01*
X127862752Y-112190113D02*
X127672276Y-112142494D01*
X127672276Y-112142494D02*
X127577038Y-112094875D01*
X127577038Y-112094875D02*
X127481800Y-111999637D01*
X127481800Y-111999637D02*
X127434180Y-111856780D01*
X127434180Y-111856780D02*
X127434180Y-111761542D01*
X127434180Y-111761542D02*
X127481800Y-111618685D01*
X127481800Y-111618685D02*
X127529419Y-111571066D01*
X127862752Y-110999637D02*
X127815133Y-111094875D01*
X127815133Y-111094875D02*
X127767514Y-111142494D01*
X127767514Y-111142494D02*
X127672276Y-111190113D01*
X127672276Y-111190113D02*
X127624657Y-111190113D01*
X127624657Y-111190113D02*
X127529419Y-111142494D01*
X127529419Y-111142494D02*
X127481800Y-111094875D01*
X127481800Y-111094875D02*
X127434180Y-110999637D01*
X127434180Y-110999637D02*
X127434180Y-110809161D01*
X127434180Y-110809161D02*
X127481800Y-110713923D01*
X127481800Y-110713923D02*
X127529419Y-110666304D01*
X127529419Y-110666304D02*
X127624657Y-110618685D01*
X127624657Y-110618685D02*
X127672276Y-110618685D01*
X127672276Y-110618685D02*
X127767514Y-110666304D01*
X127767514Y-110666304D02*
X127815133Y-110713923D01*
X127815133Y-110713923D02*
X127862752Y-110809161D01*
X127862752Y-110809161D02*
X127862752Y-110999637D01*
X127862752Y-110999637D02*
X127910371Y-111094875D01*
X127910371Y-111094875D02*
X127957990Y-111142494D01*
X127957990Y-111142494D02*
X128053228Y-111190113D01*
X128053228Y-111190113D02*
X128243704Y-111190113D01*
X128243704Y-111190113D02*
X128338942Y-111142494D01*
X128338942Y-111142494D02*
X128386561Y-111094875D01*
X128386561Y-111094875D02*
X128434180Y-110999637D01*
X128434180Y-110999637D02*
X128434180Y-110809161D01*
X128434180Y-110809161D02*
X128386561Y-110713923D01*
X128386561Y-110713923D02*
X128338942Y-110666304D01*
X128338942Y-110666304D02*
X128243704Y-110618685D01*
X128243704Y-110618685D02*
X128053228Y-110618685D01*
X128053228Y-110618685D02*
X127957990Y-110666304D01*
X127957990Y-110666304D02*
X127910371Y-110713923D01*
X127910371Y-110713923D02*
X127862752Y-110809161D01*
X110374133Y-107181980D02*
X110040800Y-106705790D01*
X109802705Y-107181980D02*
X109802705Y-106181980D01*
X109802705Y-106181980D02*
X110183657Y-106181980D01*
X110183657Y-106181980D02*
X110278895Y-106229600D01*
X110278895Y-106229600D02*
X110326514Y-106277219D01*
X110326514Y-106277219D02*
X110374133Y-106372457D01*
X110374133Y-106372457D02*
X110374133Y-106515314D01*
X110374133Y-106515314D02*
X110326514Y-106610552D01*
X110326514Y-106610552D02*
X110278895Y-106658171D01*
X110278895Y-106658171D02*
X110183657Y-106705790D01*
X110183657Y-106705790D02*
X109802705Y-106705790D01*
X110707467Y-106181980D02*
X111326514Y-106181980D01*
X111326514Y-106181980D02*
X110993181Y-106562933D01*
X110993181Y-106562933D02*
X111136038Y-106562933D01*
X111136038Y-106562933D02*
X111231276Y-106610552D01*
X111231276Y-106610552D02*
X111278895Y-106658171D01*
X111278895Y-106658171D02*
X111326514Y-106753409D01*
X111326514Y-106753409D02*
X111326514Y-106991504D01*
X111326514Y-106991504D02*
X111278895Y-107086742D01*
X111278895Y-107086742D02*
X111231276Y-107134361D01*
X111231276Y-107134361D02*
X111136038Y-107181980D01*
X111136038Y-107181980D02*
X110850324Y-107181980D01*
X110850324Y-107181980D02*
X110755086Y-107134361D01*
X110755086Y-107134361D02*
X110707467Y-107086742D01*
X123643171Y-99080533D02*
X123643171Y-99413866D01*
X124166980Y-99413866D02*
X123166980Y-99413866D01*
X123166980Y-99413866D02*
X123166980Y-98937676D01*
X123643171Y-98223390D02*
X123690790Y-98080533D01*
X123690790Y-98080533D02*
X123738409Y-98032914D01*
X123738409Y-98032914D02*
X123833647Y-97985295D01*
X123833647Y-97985295D02*
X123976504Y-97985295D01*
X123976504Y-97985295D02*
X124071742Y-98032914D01*
X124071742Y-98032914D02*
X124119361Y-98080533D01*
X124119361Y-98080533D02*
X124166980Y-98175771D01*
X124166980Y-98175771D02*
X124166980Y-98556723D01*
X124166980Y-98556723D02*
X123166980Y-98556723D01*
X123166980Y-98556723D02*
X123166980Y-98223390D01*
X123166980Y-98223390D02*
X123214600Y-98128152D01*
X123214600Y-98128152D02*
X123262219Y-98080533D01*
X123262219Y-98080533D02*
X123357457Y-98032914D01*
X123357457Y-98032914D02*
X123452695Y-98032914D01*
X123452695Y-98032914D02*
X123547933Y-98080533D01*
X123547933Y-98080533D02*
X123595552Y-98128152D01*
X123595552Y-98128152D02*
X123643171Y-98223390D01*
X123643171Y-98223390D02*
X123643171Y-98556723D01*
X124166980Y-97032914D02*
X124166980Y-97604342D01*
X124166980Y-97318628D02*
X123166980Y-97318628D01*
X123166980Y-97318628D02*
X123309838Y-97413866D01*
X123309838Y-97413866D02*
X123405076Y-97509104D01*
X123405076Y-97509104D02*
X123452695Y-97604342D01*
X94144180Y-108669057D02*
X93667990Y-109002390D01*
X94144180Y-109240485D02*
X93144180Y-109240485D01*
X93144180Y-109240485D02*
X93144180Y-108859533D01*
X93144180Y-108859533D02*
X93191800Y-108764295D01*
X93191800Y-108764295D02*
X93239419Y-108716676D01*
X93239419Y-108716676D02*
X93334657Y-108669057D01*
X93334657Y-108669057D02*
X93477514Y-108669057D01*
X93477514Y-108669057D02*
X93572752Y-108716676D01*
X93572752Y-108716676D02*
X93620371Y-108764295D01*
X93620371Y-108764295D02*
X93667990Y-108859533D01*
X93667990Y-108859533D02*
X93667990Y-109240485D01*
X94144180Y-107716676D02*
X94144180Y-108288104D01*
X94144180Y-108002390D02*
X93144180Y-108002390D01*
X93144180Y-108002390D02*
X93287038Y-108097628D01*
X93287038Y-108097628D02*
X93382276Y-108192866D01*
X93382276Y-108192866D02*
X93429895Y-108288104D01*
X94144180Y-106764295D02*
X94144180Y-107335723D01*
X94144180Y-107050009D02*
X93144180Y-107050009D01*
X93144180Y-107050009D02*
X93287038Y-107145247D01*
X93287038Y-107145247D02*
X93382276Y-107240485D01*
X93382276Y-107240485D02*
X93429895Y-107335723D01*
X104847171Y-104236733D02*
X104847171Y-104570066D01*
X105370980Y-104570066D02*
X104370980Y-104570066D01*
X104370980Y-104570066D02*
X104370980Y-104093876D01*
X104847171Y-103379590D02*
X104894790Y-103236733D01*
X104894790Y-103236733D02*
X104942409Y-103189114D01*
X104942409Y-103189114D02*
X105037647Y-103141495D01*
X105037647Y-103141495D02*
X105180504Y-103141495D01*
X105180504Y-103141495D02*
X105275742Y-103189114D01*
X105275742Y-103189114D02*
X105323361Y-103236733D01*
X105323361Y-103236733D02*
X105370980Y-103331971D01*
X105370980Y-103331971D02*
X105370980Y-103712923D01*
X105370980Y-103712923D02*
X104370980Y-103712923D01*
X104370980Y-103712923D02*
X104370980Y-103379590D01*
X104370980Y-103379590D02*
X104418600Y-103284352D01*
X104418600Y-103284352D02*
X104466219Y-103236733D01*
X104466219Y-103236733D02*
X104561457Y-103189114D01*
X104561457Y-103189114D02*
X104656695Y-103189114D01*
X104656695Y-103189114D02*
X104751933Y-103236733D01*
X104751933Y-103236733D02*
X104799552Y-103284352D01*
X104799552Y-103284352D02*
X104847171Y-103379590D01*
X104847171Y-103379590D02*
X104847171Y-103712923D01*
X104466219Y-102760542D02*
X104418600Y-102712923D01*
X104418600Y-102712923D02*
X104370980Y-102617685D01*
X104370980Y-102617685D02*
X104370980Y-102379590D01*
X104370980Y-102379590D02*
X104418600Y-102284352D01*
X104418600Y-102284352D02*
X104466219Y-102236733D01*
X104466219Y-102236733D02*
X104561457Y-102189114D01*
X104561457Y-102189114D02*
X104656695Y-102189114D01*
X104656695Y-102189114D02*
X104799552Y-102236733D01*
X104799552Y-102236733D02*
X105370980Y-102808161D01*
X105370980Y-102808161D02*
X105370980Y-102189114D01*
X93058842Y-126695542D02*
X93011223Y-126743161D01*
X93011223Y-126743161D02*
X92868366Y-126790780D01*
X92868366Y-126790780D02*
X92773128Y-126790780D01*
X92773128Y-126790780D02*
X92630271Y-126743161D01*
X92630271Y-126743161D02*
X92535033Y-126647923D01*
X92535033Y-126647923D02*
X92487414Y-126552685D01*
X92487414Y-126552685D02*
X92439795Y-126362209D01*
X92439795Y-126362209D02*
X92439795Y-126219352D01*
X92439795Y-126219352D02*
X92487414Y-126028876D01*
X92487414Y-126028876D02*
X92535033Y-125933638D01*
X92535033Y-125933638D02*
X92630271Y-125838400D01*
X92630271Y-125838400D02*
X92773128Y-125790780D01*
X92773128Y-125790780D02*
X92868366Y-125790780D01*
X92868366Y-125790780D02*
X93011223Y-125838400D01*
X93011223Y-125838400D02*
X93058842Y-125886019D01*
X93392176Y-125790780D02*
X94011223Y-125790780D01*
X94011223Y-125790780D02*
X93677890Y-126171733D01*
X93677890Y-126171733D02*
X93820747Y-126171733D01*
X93820747Y-126171733D02*
X93915985Y-126219352D01*
X93915985Y-126219352D02*
X93963604Y-126266971D01*
X93963604Y-126266971D02*
X94011223Y-126362209D01*
X94011223Y-126362209D02*
X94011223Y-126600304D01*
X94011223Y-126600304D02*
X93963604Y-126695542D01*
X93963604Y-126695542D02*
X93915985Y-126743161D01*
X93915985Y-126743161D02*
X93820747Y-126790780D01*
X93820747Y-126790780D02*
X93535033Y-126790780D01*
X93535033Y-126790780D02*
X93439795Y-126743161D01*
X93439795Y-126743161D02*
X93392176Y-126695542D01*
X94392176Y-125886019D02*
X94439795Y-125838400D01*
X94439795Y-125838400D02*
X94535033Y-125790780D01*
X94535033Y-125790780D02*
X94773128Y-125790780D01*
X94773128Y-125790780D02*
X94868366Y-125838400D01*
X94868366Y-125838400D02*
X94915985Y-125886019D01*
X94915985Y-125886019D02*
X94963604Y-125981257D01*
X94963604Y-125981257D02*
X94963604Y-126076495D01*
X94963604Y-126076495D02*
X94915985Y-126219352D01*
X94915985Y-126219352D02*
X94344557Y-126790780D01*
X94344557Y-126790780D02*
X94963604Y-126790780D01*
X88892142Y-117950342D02*
X88844523Y-117997961D01*
X88844523Y-117997961D02*
X88701666Y-118045580D01*
X88701666Y-118045580D02*
X88606428Y-118045580D01*
X88606428Y-118045580D02*
X88463571Y-117997961D01*
X88463571Y-117997961D02*
X88368333Y-117902723D01*
X88368333Y-117902723D02*
X88320714Y-117807485D01*
X88320714Y-117807485D02*
X88273095Y-117617009D01*
X88273095Y-117617009D02*
X88273095Y-117474152D01*
X88273095Y-117474152D02*
X88320714Y-117283676D01*
X88320714Y-117283676D02*
X88368333Y-117188438D01*
X88368333Y-117188438D02*
X88463571Y-117093200D01*
X88463571Y-117093200D02*
X88606428Y-117045580D01*
X88606428Y-117045580D02*
X88701666Y-117045580D01*
X88701666Y-117045580D02*
X88844523Y-117093200D01*
X88844523Y-117093200D02*
X88892142Y-117140819D01*
X89273095Y-117140819D02*
X89320714Y-117093200D01*
X89320714Y-117093200D02*
X89415952Y-117045580D01*
X89415952Y-117045580D02*
X89654047Y-117045580D01*
X89654047Y-117045580D02*
X89749285Y-117093200D01*
X89749285Y-117093200D02*
X89796904Y-117140819D01*
X89796904Y-117140819D02*
X89844523Y-117236057D01*
X89844523Y-117236057D02*
X89844523Y-117331295D01*
X89844523Y-117331295D02*
X89796904Y-117474152D01*
X89796904Y-117474152D02*
X89225476Y-118045580D01*
X89225476Y-118045580D02*
X89844523Y-118045580D01*
X90701666Y-117378914D02*
X90701666Y-118045580D01*
X90463571Y-116997961D02*
X90225476Y-117712247D01*
X90225476Y-117712247D02*
X90844523Y-117712247D01*
X98173380Y-119557704D02*
X98982904Y-119557704D01*
X98982904Y-119557704D02*
X99078142Y-119510085D01*
X99078142Y-119510085D02*
X99125761Y-119462466D01*
X99125761Y-119462466D02*
X99173380Y-119367228D01*
X99173380Y-119367228D02*
X99173380Y-119176752D01*
X99173380Y-119176752D02*
X99125761Y-119081514D01*
X99125761Y-119081514D02*
X99078142Y-119033895D01*
X99078142Y-119033895D02*
X98982904Y-118986276D01*
X98982904Y-118986276D02*
X98173380Y-118986276D01*
X98173380Y-118605323D02*
X98173380Y-117986276D01*
X98173380Y-117986276D02*
X98554333Y-118319609D01*
X98554333Y-118319609D02*
X98554333Y-118176752D01*
X98554333Y-118176752D02*
X98601952Y-118081514D01*
X98601952Y-118081514D02*
X98649571Y-118033895D01*
X98649571Y-118033895D02*
X98744809Y-117986276D01*
X98744809Y-117986276D02*
X98982904Y-117986276D01*
X98982904Y-117986276D02*
X99078142Y-118033895D01*
X99078142Y-118033895D02*
X99125761Y-118081514D01*
X99125761Y-118081514D02*
X99173380Y-118176752D01*
X99173380Y-118176752D02*
X99173380Y-118462466D01*
X99173380Y-118462466D02*
X99125761Y-118557704D01*
X99125761Y-118557704D02*
X99078142Y-118605323D01*
X95226980Y-124104399D02*
X95465076Y-124104399D01*
X95369838Y-124342494D02*
X95465076Y-124104399D01*
X95465076Y-124104399D02*
X95369838Y-123866304D01*
X95655552Y-124247256D02*
X95465076Y-124104399D01*
X95465076Y-124104399D02*
X95655552Y-123961542D01*
X117543942Y-120708657D02*
X117591561Y-120756276D01*
X117591561Y-120756276D02*
X117639180Y-120899133D01*
X117639180Y-120899133D02*
X117639180Y-120994371D01*
X117639180Y-120994371D02*
X117591561Y-121137228D01*
X117591561Y-121137228D02*
X117496323Y-121232466D01*
X117496323Y-121232466D02*
X117401085Y-121280085D01*
X117401085Y-121280085D02*
X117210609Y-121327704D01*
X117210609Y-121327704D02*
X117067752Y-121327704D01*
X117067752Y-121327704D02*
X116877276Y-121280085D01*
X116877276Y-121280085D02*
X116782038Y-121232466D01*
X116782038Y-121232466D02*
X116686800Y-121137228D01*
X116686800Y-121137228D02*
X116639180Y-120994371D01*
X116639180Y-120994371D02*
X116639180Y-120899133D01*
X116639180Y-120899133D02*
X116686800Y-120756276D01*
X116686800Y-120756276D02*
X116734419Y-120708657D01*
X117639180Y-119756276D02*
X117639180Y-120327704D01*
X117639180Y-120041990D02*
X116639180Y-120041990D01*
X116639180Y-120041990D02*
X116782038Y-120137228D01*
X116782038Y-120137228D02*
X116877276Y-120232466D01*
X116877276Y-120232466D02*
X116924895Y-120327704D01*
X116972514Y-118899133D02*
X117639180Y-118899133D01*
X116591561Y-119137228D02*
X117305847Y-119375323D01*
X117305847Y-119375323D02*
X117305847Y-118756276D01*
X98570142Y-108694457D02*
X98617761Y-108742076D01*
X98617761Y-108742076D02*
X98665380Y-108884933D01*
X98665380Y-108884933D02*
X98665380Y-108980171D01*
X98665380Y-108980171D02*
X98617761Y-109123028D01*
X98617761Y-109123028D02*
X98522523Y-109218266D01*
X98522523Y-109218266D02*
X98427285Y-109265885D01*
X98427285Y-109265885D02*
X98236809Y-109313504D01*
X98236809Y-109313504D02*
X98093952Y-109313504D01*
X98093952Y-109313504D02*
X97903476Y-109265885D01*
X97903476Y-109265885D02*
X97808238Y-109218266D01*
X97808238Y-109218266D02*
X97713000Y-109123028D01*
X97713000Y-109123028D02*
X97665380Y-108980171D01*
X97665380Y-108980171D02*
X97665380Y-108884933D01*
X97665380Y-108884933D02*
X97713000Y-108742076D01*
X97713000Y-108742076D02*
X97760619Y-108694457D01*
X97760619Y-108313504D02*
X97713000Y-108265885D01*
X97713000Y-108265885D02*
X97665380Y-108170647D01*
X97665380Y-108170647D02*
X97665380Y-107932552D01*
X97665380Y-107932552D02*
X97713000Y-107837314D01*
X97713000Y-107837314D02*
X97760619Y-107789695D01*
X97760619Y-107789695D02*
X97855857Y-107742076D01*
X97855857Y-107742076D02*
X97951095Y-107742076D01*
X97951095Y-107742076D02*
X98093952Y-107789695D01*
X98093952Y-107789695D02*
X98665380Y-108361123D01*
X98665380Y-108361123D02*
X98665380Y-107742076D01*
X97665380Y-107408742D02*
X97665380Y-106789695D01*
X97665380Y-106789695D02*
X98046333Y-107123028D01*
X98046333Y-107123028D02*
X98046333Y-106980171D01*
X98046333Y-106980171D02*
X98093952Y-106884933D01*
X98093952Y-106884933D02*
X98141571Y-106837314D01*
X98141571Y-106837314D02*
X98236809Y-106789695D01*
X98236809Y-106789695D02*
X98474904Y-106789695D01*
X98474904Y-106789695D02*
X98570142Y-106837314D01*
X98570142Y-106837314D02*
X98617761Y-106884933D01*
X98617761Y-106884933D02*
X98665380Y-106980171D01*
X98665380Y-106980171D02*
X98665380Y-107265885D01*
X98665380Y-107265885D02*
X98617761Y-107361123D01*
X98617761Y-107361123D02*
X98570142Y-107408742D01*
X108116005Y-107877980D02*
X108116005Y-106877980D01*
X108116005Y-106877980D02*
X108354100Y-106877980D01*
X108354100Y-106877980D02*
X108496957Y-106925600D01*
X108496957Y-106925600D02*
X108592195Y-107020838D01*
X108592195Y-107020838D02*
X108639814Y-107116076D01*
X108639814Y-107116076D02*
X108687433Y-107306552D01*
X108687433Y-107306552D02*
X108687433Y-107449409D01*
X108687433Y-107449409D02*
X108639814Y-107639885D01*
X108639814Y-107639885D02*
X108592195Y-107735123D01*
X108592195Y-107735123D02*
X108496957Y-107830361D01*
X108496957Y-107830361D02*
X108354100Y-107877980D01*
X108354100Y-107877980D02*
X108116005Y-107877980D01*
X109639814Y-107877980D02*
X109068386Y-107877980D01*
X109354100Y-107877980D02*
X109354100Y-106877980D01*
X109354100Y-106877980D02*
X109258862Y-107020838D01*
X109258862Y-107020838D02*
X109163624Y-107116076D01*
X109163624Y-107116076D02*
X109068386Y-107163695D01*
X159236742Y-108900857D02*
X159284361Y-108948476D01*
X159284361Y-108948476D02*
X159331980Y-109091333D01*
X159331980Y-109091333D02*
X159331980Y-109186571D01*
X159331980Y-109186571D02*
X159284361Y-109329428D01*
X159284361Y-109329428D02*
X159189123Y-109424666D01*
X159189123Y-109424666D02*
X159093885Y-109472285D01*
X159093885Y-109472285D02*
X158903409Y-109519904D01*
X158903409Y-109519904D02*
X158760552Y-109519904D01*
X158760552Y-109519904D02*
X158570076Y-109472285D01*
X158570076Y-109472285D02*
X158474838Y-109424666D01*
X158474838Y-109424666D02*
X158379600Y-109329428D01*
X158379600Y-109329428D02*
X158331980Y-109186571D01*
X158331980Y-109186571D02*
X158331980Y-109091333D01*
X158331980Y-109091333D02*
X158379600Y-108948476D01*
X158379600Y-108948476D02*
X158427219Y-108900857D01*
X158665314Y-108043714D02*
X159331980Y-108043714D01*
X158284361Y-108281809D02*
X158998647Y-108519904D01*
X158998647Y-108519904D02*
X158998647Y-107900857D01*
X158427219Y-107567523D02*
X158379600Y-107519904D01*
X158379600Y-107519904D02*
X158331980Y-107424666D01*
X158331980Y-107424666D02*
X158331980Y-107186571D01*
X158331980Y-107186571D02*
X158379600Y-107091333D01*
X158379600Y-107091333D02*
X158427219Y-107043714D01*
X158427219Y-107043714D02*
X158522457Y-106996095D01*
X158522457Y-106996095D02*
X158617695Y-106996095D01*
X158617695Y-106996095D02*
X158760552Y-107043714D01*
X158760552Y-107043714D02*
X159331980Y-107615142D01*
X159331980Y-107615142D02*
X159331980Y-106996095D01*
X119746733Y-100678342D02*
X119699114Y-100725961D01*
X119699114Y-100725961D02*
X119556257Y-100773580D01*
X119556257Y-100773580D02*
X119461019Y-100773580D01*
X119461019Y-100773580D02*
X119318162Y-100725961D01*
X119318162Y-100725961D02*
X119222924Y-100630723D01*
X119222924Y-100630723D02*
X119175305Y-100535485D01*
X119175305Y-100535485D02*
X119127686Y-100345009D01*
X119127686Y-100345009D02*
X119127686Y-100202152D01*
X119127686Y-100202152D02*
X119175305Y-100011676D01*
X119175305Y-100011676D02*
X119222924Y-99916438D01*
X119222924Y-99916438D02*
X119318162Y-99821200D01*
X119318162Y-99821200D02*
X119461019Y-99773580D01*
X119461019Y-99773580D02*
X119556257Y-99773580D01*
X119556257Y-99773580D02*
X119699114Y-99821200D01*
X119699114Y-99821200D02*
X119746733Y-99868819D01*
X120080067Y-99773580D02*
X120746733Y-99773580D01*
X120746733Y-99773580D02*
X120318162Y-100773580D01*
X125366995Y-109731880D02*
X125366995Y-110541404D01*
X125366995Y-110541404D02*
X125414614Y-110636642D01*
X125414614Y-110636642D02*
X125462233Y-110684261D01*
X125462233Y-110684261D02*
X125557471Y-110731880D01*
X125557471Y-110731880D02*
X125747947Y-110731880D01*
X125747947Y-110731880D02*
X125843185Y-110684261D01*
X125843185Y-110684261D02*
X125890804Y-110636642D01*
X125890804Y-110636642D02*
X125938423Y-110541404D01*
X125938423Y-110541404D02*
X125938423Y-109731880D01*
X126938423Y-110731880D02*
X126366995Y-110731880D01*
X126652709Y-110731880D02*
X126652709Y-109731880D01*
X126652709Y-109731880D02*
X126557471Y-109874738D01*
X126557471Y-109874738D02*
X126462233Y-109969976D01*
X126462233Y-109969976D02*
X126366995Y-110017595D01*
X154309142Y-133970657D02*
X154356761Y-134018276D01*
X154356761Y-134018276D02*
X154404380Y-134161133D01*
X154404380Y-134161133D02*
X154404380Y-134256371D01*
X154404380Y-134256371D02*
X154356761Y-134399228D01*
X154356761Y-134399228D02*
X154261523Y-134494466D01*
X154261523Y-134494466D02*
X154166285Y-134542085D01*
X154166285Y-134542085D02*
X153975809Y-134589704D01*
X153975809Y-134589704D02*
X153832952Y-134589704D01*
X153832952Y-134589704D02*
X153642476Y-134542085D01*
X153642476Y-134542085D02*
X153547238Y-134494466D01*
X153547238Y-134494466D02*
X153452000Y-134399228D01*
X153452000Y-134399228D02*
X153404380Y-134256371D01*
X153404380Y-134256371D02*
X153404380Y-134161133D01*
X153404380Y-134161133D02*
X153452000Y-134018276D01*
X153452000Y-134018276D02*
X153499619Y-133970657D01*
X153404380Y-133637323D02*
X153404380Y-133018276D01*
X153404380Y-133018276D02*
X153785333Y-133351609D01*
X153785333Y-133351609D02*
X153785333Y-133208752D01*
X153785333Y-133208752D02*
X153832952Y-133113514D01*
X153832952Y-133113514D02*
X153880571Y-133065895D01*
X153880571Y-133065895D02*
X153975809Y-133018276D01*
X153975809Y-133018276D02*
X154213904Y-133018276D01*
X154213904Y-133018276D02*
X154309142Y-133065895D01*
X154309142Y-133065895D02*
X154356761Y-133113514D01*
X154356761Y-133113514D02*
X154404380Y-133208752D01*
X154404380Y-133208752D02*
X154404380Y-133494466D01*
X154404380Y-133494466D02*
X154356761Y-133589704D01*
X154356761Y-133589704D02*
X154309142Y-133637323D01*
X153404380Y-132684942D02*
X153404380Y-132018276D01*
X153404380Y-132018276D02*
X154404380Y-132446847D01*
X149084380Y-101995266D02*
X148608190Y-102328599D01*
X149084380Y-102566694D02*
X148084380Y-102566694D01*
X148084380Y-102566694D02*
X148084380Y-102185742D01*
X148084380Y-102185742D02*
X148132000Y-102090504D01*
X148132000Y-102090504D02*
X148179619Y-102042885D01*
X148179619Y-102042885D02*
X148274857Y-101995266D01*
X148274857Y-101995266D02*
X148417714Y-101995266D01*
X148417714Y-101995266D02*
X148512952Y-102042885D01*
X148512952Y-102042885D02*
X148560571Y-102090504D01*
X148560571Y-102090504D02*
X148608190Y-102185742D01*
X148608190Y-102185742D02*
X148608190Y-102566694D01*
X148179619Y-101614313D02*
X148132000Y-101566694D01*
X148132000Y-101566694D02*
X148084380Y-101471456D01*
X148084380Y-101471456D02*
X148084380Y-101233361D01*
X148084380Y-101233361D02*
X148132000Y-101138123D01*
X148132000Y-101138123D02*
X148179619Y-101090504D01*
X148179619Y-101090504D02*
X148274857Y-101042885D01*
X148274857Y-101042885D02*
X148370095Y-101042885D01*
X148370095Y-101042885D02*
X148512952Y-101090504D01*
X148512952Y-101090504D02*
X149084380Y-101661932D01*
X149084380Y-101661932D02*
X149084380Y-101042885D01*
X130802142Y-114749942D02*
X130754523Y-114797561D01*
X130754523Y-114797561D02*
X130611666Y-114845180D01*
X130611666Y-114845180D02*
X130516428Y-114845180D01*
X130516428Y-114845180D02*
X130373571Y-114797561D01*
X130373571Y-114797561D02*
X130278333Y-114702323D01*
X130278333Y-114702323D02*
X130230714Y-114607085D01*
X130230714Y-114607085D02*
X130183095Y-114416609D01*
X130183095Y-114416609D02*
X130183095Y-114273752D01*
X130183095Y-114273752D02*
X130230714Y-114083276D01*
X130230714Y-114083276D02*
X130278333Y-113988038D01*
X130278333Y-113988038D02*
X130373571Y-113892800D01*
X130373571Y-113892800D02*
X130516428Y-113845180D01*
X130516428Y-113845180D02*
X130611666Y-113845180D01*
X130611666Y-113845180D02*
X130754523Y-113892800D01*
X130754523Y-113892800D02*
X130802142Y-113940419D01*
X131135476Y-113845180D02*
X131754523Y-113845180D01*
X131754523Y-113845180D02*
X131421190Y-114226133D01*
X131421190Y-114226133D02*
X131564047Y-114226133D01*
X131564047Y-114226133D02*
X131659285Y-114273752D01*
X131659285Y-114273752D02*
X131706904Y-114321371D01*
X131706904Y-114321371D02*
X131754523Y-114416609D01*
X131754523Y-114416609D02*
X131754523Y-114654704D01*
X131754523Y-114654704D02*
X131706904Y-114749942D01*
X131706904Y-114749942D02*
X131659285Y-114797561D01*
X131659285Y-114797561D02*
X131564047Y-114845180D01*
X131564047Y-114845180D02*
X131278333Y-114845180D01*
X131278333Y-114845180D02*
X131183095Y-114797561D01*
X131183095Y-114797561D02*
X131135476Y-114749942D01*
X132611666Y-114178514D02*
X132611666Y-114845180D01*
X132373571Y-113797561D02*
X132135476Y-114511847D01*
X132135476Y-114511847D02*
X132754523Y-114511847D01*
X139025333Y-108984142D02*
X138977714Y-109031761D01*
X138977714Y-109031761D02*
X138834857Y-109079380D01*
X138834857Y-109079380D02*
X138739619Y-109079380D01*
X138739619Y-109079380D02*
X138596762Y-109031761D01*
X138596762Y-109031761D02*
X138501524Y-108936523D01*
X138501524Y-108936523D02*
X138453905Y-108841285D01*
X138453905Y-108841285D02*
X138406286Y-108650809D01*
X138406286Y-108650809D02*
X138406286Y-108507952D01*
X138406286Y-108507952D02*
X138453905Y-108317476D01*
X138453905Y-108317476D02*
X138501524Y-108222238D01*
X138501524Y-108222238D02*
X138596762Y-108127000D01*
X138596762Y-108127000D02*
X138739619Y-108079380D01*
X138739619Y-108079380D02*
X138834857Y-108079380D01*
X138834857Y-108079380D02*
X138977714Y-108127000D01*
X138977714Y-108127000D02*
X139025333Y-108174619D01*
X139358667Y-108079380D02*
X139977714Y-108079380D01*
X139977714Y-108079380D02*
X139644381Y-108460333D01*
X139644381Y-108460333D02*
X139787238Y-108460333D01*
X139787238Y-108460333D02*
X139882476Y-108507952D01*
X139882476Y-108507952D02*
X139930095Y-108555571D01*
X139930095Y-108555571D02*
X139977714Y-108650809D01*
X139977714Y-108650809D02*
X139977714Y-108888904D01*
X139977714Y-108888904D02*
X139930095Y-108984142D01*
X139930095Y-108984142D02*
X139882476Y-109031761D01*
X139882476Y-109031761D02*
X139787238Y-109079380D01*
X139787238Y-109079380D02*
X139501524Y-109079380D01*
X139501524Y-109079380D02*
X139406286Y-109031761D01*
X139406286Y-109031761D02*
X139358667Y-108984142D01*
X163268333Y-130266180D02*
X162792143Y-130266180D01*
X162792143Y-130266180D02*
X162792143Y-129266180D01*
X164125476Y-130266180D02*
X163554048Y-130266180D01*
X163839762Y-130266180D02*
X163839762Y-129266180D01*
X163839762Y-129266180D02*
X163744524Y-129409038D01*
X163744524Y-129409038D02*
X163649286Y-129504276D01*
X163649286Y-129504276D02*
X163554048Y-129551895D01*
X166348142Y-120391942D02*
X166300523Y-120439561D01*
X166300523Y-120439561D02*
X166157666Y-120487180D01*
X166157666Y-120487180D02*
X166062428Y-120487180D01*
X166062428Y-120487180D02*
X165919571Y-120439561D01*
X165919571Y-120439561D02*
X165824333Y-120344323D01*
X165824333Y-120344323D02*
X165776714Y-120249085D01*
X165776714Y-120249085D02*
X165729095Y-120058609D01*
X165729095Y-120058609D02*
X165729095Y-119915752D01*
X165729095Y-119915752D02*
X165776714Y-119725276D01*
X165776714Y-119725276D02*
X165824333Y-119630038D01*
X165824333Y-119630038D02*
X165919571Y-119534800D01*
X165919571Y-119534800D02*
X166062428Y-119487180D01*
X166062428Y-119487180D02*
X166157666Y-119487180D01*
X166157666Y-119487180D02*
X166300523Y-119534800D01*
X166300523Y-119534800D02*
X166348142Y-119582419D01*
X167205285Y-119820514D02*
X167205285Y-120487180D01*
X166967190Y-119439561D02*
X166729095Y-120153847D01*
X166729095Y-120153847D02*
X167348142Y-120153847D01*
X167919571Y-119487180D02*
X168014809Y-119487180D01*
X168014809Y-119487180D02*
X168110047Y-119534800D01*
X168110047Y-119534800D02*
X168157666Y-119582419D01*
X168157666Y-119582419D02*
X168205285Y-119677657D01*
X168205285Y-119677657D02*
X168252904Y-119868133D01*
X168252904Y-119868133D02*
X168252904Y-120106228D01*
X168252904Y-120106228D02*
X168205285Y-120296704D01*
X168205285Y-120296704D02*
X168157666Y-120391942D01*
X168157666Y-120391942D02*
X168110047Y-120439561D01*
X168110047Y-120439561D02*
X168014809Y-120487180D01*
X168014809Y-120487180D02*
X167919571Y-120487180D01*
X167919571Y-120487180D02*
X167824333Y-120439561D01*
X167824333Y-120439561D02*
X167776714Y-120391942D01*
X167776714Y-120391942D02*
X167729095Y-120296704D01*
X167729095Y-120296704D02*
X167681476Y-120106228D01*
X167681476Y-120106228D02*
X167681476Y-119868133D01*
X167681476Y-119868133D02*
X167729095Y-119677657D01*
X167729095Y-119677657D02*
X167776714Y-119582419D01*
X167776714Y-119582419D02*
X167824333Y-119534800D01*
X167824333Y-119534800D02*
X167919571Y-119487180D01*
D11*
X119225600Y-117443467D02*
X119225600Y-117150933D01*
X120245600Y-117443467D02*
X120245600Y-117150933D01*
X132830600Y-108421800D02*
X132830600Y-107071800D01*
X134580600Y-108421800D02*
X134580600Y-107071800D01*
X159319476Y-115736500D02*
X159828924Y-115736500D01*
X159319476Y-116781500D02*
X159828924Y-116781500D01*
X146810000Y-120186667D02*
X146810000Y-119894133D01*
X147830000Y-120186667D02*
X147830000Y-119894133D01*
X93847967Y-124030200D02*
X93555433Y-124030200D01*
X93847967Y-123010200D02*
X93555433Y-123010200D01*
X86557067Y-116590707D02*
X86264533Y-116590707D01*
X86557067Y-115570707D02*
X86264533Y-115570707D01*
X156804000Y-129637548D02*
X156804000Y-130160052D01*
X155334000Y-129637548D02*
X155334000Y-130160052D01*
D12*
X113525800Y-110308800D02*
X113525800Y-110358800D01*
X113525800Y-110358800D02*
X112750800Y-110358800D01*
X113525800Y-113333800D02*
X113525800Y-112983800D01*
X113900800Y-110033800D02*
X113525800Y-110308800D01*
X114000800Y-113333800D02*
X113525800Y-113333800D01*
X114175800Y-110033800D02*
X113900800Y-110033800D01*
X114800800Y-110033800D02*
X115175800Y-110033800D01*
X115175800Y-110033800D02*
X115175800Y-110333800D01*
X115175800Y-113033800D02*
X115175800Y-113333800D01*
X115175800Y-113108800D02*
X115175800Y-112983800D01*
X115175800Y-113333800D02*
X114725800Y-113333800D01*
D11*
X164946800Y-110810867D02*
X164946800Y-110518333D01*
X165966800Y-110810867D02*
X165966800Y-110518333D01*
X125372400Y-117467767D02*
X125372400Y-117175233D01*
X126392400Y-117467767D02*
X126392400Y-117175233D01*
X160848600Y-122907667D02*
X160848600Y-122615133D01*
X161868600Y-122907667D02*
X161868600Y-122615133D01*
X112423024Y-109463100D02*
X111913576Y-109463100D01*
X112423024Y-108418100D02*
X111913576Y-108418100D01*
X109105920Y-117063567D02*
X109105920Y-116771033D01*
X110125920Y-117063567D02*
X110125920Y-116771033D01*
X100594900Y-111237824D02*
X100594900Y-110728376D01*
X101639900Y-111237824D02*
X101639900Y-110728376D01*
X126929000Y-115737800D02*
X127079000Y-115737800D01*
X126929000Y-115737800D02*
X126929000Y-118857800D01*
X130049000Y-117297800D02*
X130049000Y-118857800D01*
X130049000Y-118857800D02*
X129899000Y-118857800D01*
X126929000Y-118857800D02*
X127079000Y-118857800D01*
X104108467Y-125250500D02*
X103815933Y-125250500D01*
X104108467Y-124230500D02*
X103815933Y-124230500D01*
X161443200Y-110264600D02*
X161443200Y-112064600D01*
X161443200Y-110264600D02*
X161443200Y-109464600D01*
X164563200Y-110264600D02*
X164563200Y-111064600D01*
X164563200Y-110264600D02*
X164563200Y-109464600D01*
X120756600Y-115737800D02*
X120906600Y-115737800D01*
X120756600Y-115737800D02*
X120756600Y-118857800D01*
X123876600Y-117297800D02*
X123876600Y-118857800D01*
X123876600Y-118857800D02*
X123726600Y-118857800D01*
X120756600Y-118857800D02*
X120906600Y-118857800D01*
X113570280Y-117063567D02*
X113570280Y-116771033D01*
X114590280Y-117063567D02*
X114590280Y-116771033D01*
X86557067Y-115101476D02*
X86264533Y-115101476D01*
X86557067Y-114081476D02*
X86264533Y-114081476D01*
X136797167Y-107545600D02*
X136504633Y-107545600D01*
X136797167Y-106525600D02*
X136504633Y-106525600D01*
X86557067Y-124036862D02*
X86264533Y-124036862D01*
X86557067Y-123016862D02*
X86264533Y-123016862D01*
X130380700Y-111625867D02*
X130380700Y-111333333D01*
X131400700Y-111625867D02*
X131400700Y-111333333D01*
X132605600Y-105570800D02*
X136305600Y-105570800D01*
X136305600Y-105570800D02*
X136305600Y-100270800D01*
D12*
X143992400Y-104622800D02*
X143492400Y-104622800D01*
X143992400Y-104622800D02*
X143992400Y-105122800D01*
X143492400Y-104622800D02*
X143492400Y-104222800D01*
X140792400Y-104622800D02*
X141292400Y-104622800D01*
X140792400Y-104622800D02*
X140792400Y-105122800D01*
X143992400Y-107822800D02*
X143992400Y-107322800D01*
X143992400Y-107822800D02*
X143492400Y-107822800D01*
X140792400Y-107822800D02*
X140792400Y-107422800D01*
X140792400Y-107822800D02*
X141292400Y-107822800D01*
X148107200Y-104622800D02*
X147607200Y-104622800D01*
X148107200Y-104622800D02*
X148107200Y-105122800D01*
X147607200Y-104622800D02*
X147607200Y-104222800D01*
X144907200Y-104622800D02*
X145407200Y-104622800D01*
X144907200Y-104622800D02*
X144907200Y-105122800D01*
X148107200Y-107822800D02*
X148107200Y-107322800D01*
X148107200Y-107822800D02*
X147607200Y-107822800D01*
X144907200Y-107822800D02*
X144907200Y-107422800D01*
X144907200Y-107822800D02*
X145407200Y-107822800D01*
D11*
X97064300Y-126238724D02*
X97064300Y-125729276D01*
X98109300Y-126238724D02*
X98109300Y-125729276D01*
X119619233Y-107794600D02*
X119911767Y-107794600D01*
X119619233Y-108814600D02*
X119911767Y-108814600D01*
X88720000Y-111237824D02*
X88720000Y-110728376D01*
X89765000Y-111237824D02*
X89765000Y-110728376D01*
D12*
X108276600Y-110308800D02*
X108276600Y-110358800D01*
X108276600Y-110358800D02*
X107501600Y-110358800D01*
X108276600Y-113333800D02*
X108276600Y-112983800D01*
X108651600Y-110033800D02*
X108276600Y-110308800D01*
X108751600Y-113333800D02*
X108276600Y-113333800D01*
X108926600Y-110033800D02*
X108651600Y-110033800D01*
X109551600Y-110033800D02*
X109926600Y-110033800D01*
X109926600Y-110033800D02*
X109926600Y-110333800D01*
X109926600Y-113033800D02*
X109926600Y-113333800D01*
X109926600Y-113108800D02*
X109926600Y-112983800D01*
X109926600Y-113333800D02*
X109476600Y-113333800D01*
D13*
X104250000Y-134000000D02*
X104250000Y-141000000D01*
X104250000Y-141000000D02*
X107750000Y-141000000D01*
X107747400Y-120252440D02*
X107747400Y-134000000D01*
X107747400Y-134000000D02*
X104250000Y-134000000D01*
X107750000Y-141000000D02*
X107750000Y-156750000D01*
X107750000Y-156750000D02*
X146250000Y-156750000D01*
X146250000Y-120250000D02*
X107750000Y-120250000D01*
X146250000Y-134000000D02*
X146250000Y-120250000D01*
X146250000Y-141000000D02*
X149750000Y-141000000D01*
X146250000Y-156750000D02*
X146250000Y-141000000D01*
X149750000Y-134000000D02*
X146250000Y-134000000D01*
X149750000Y-141000000D02*
X149750000Y-134000000D01*
D14*
X106045500Y-122852000D02*
G75*
G03*
X106045500Y-122852000I-200000J0D01*
G01*
D11*
X155847800Y-105867200D02*
X155847800Y-102417200D01*
X155847800Y-105867200D02*
X155847800Y-107817200D01*
X150577800Y-105867200D02*
X150577800Y-103917200D01*
X150577800Y-105867200D02*
X150577800Y-107817200D01*
X135202200Y-116910067D02*
X135202200Y-116617533D01*
X136222200Y-116910067D02*
X136222200Y-116617533D01*
X115058400Y-117063567D02*
X115058400Y-116771033D01*
X116078400Y-117063567D02*
X116078400Y-116771033D01*
X90200900Y-111237824D02*
X90200900Y-110728376D01*
X91245900Y-111237824D02*
X91245900Y-110728376D01*
X107617800Y-117063567D02*
X107617800Y-116771033D01*
X108637800Y-117063567D02*
X108637800Y-116771033D01*
X86557067Y-119569169D02*
X86264533Y-119569169D01*
X86557067Y-118549169D02*
X86264533Y-118549169D01*
D13*
X162682600Y-114851200D02*
X163882600Y-114851200D01*
X162682600Y-117311200D02*
X163882600Y-117311200D01*
D15*
X161782600Y-115331200D02*
G75*
G03*
X161782600Y-115331200I-100000J0D01*
G01*
D11*
X148863267Y-114352800D02*
X148570733Y-114352800D01*
X148863267Y-113332800D02*
X148570733Y-113332800D01*
X98537500Y-126238724D02*
X98537500Y-125729276D01*
X99582500Y-126238724D02*
X99582500Y-125729276D01*
X94643600Y-111237824D02*
X94643600Y-110728376D01*
X95688600Y-111237824D02*
X95688600Y-110728376D01*
X165989500Y-113745576D02*
X165989500Y-114255024D01*
X164944500Y-113745576D02*
X164944500Y-114255024D01*
X96124500Y-111237824D02*
X96124500Y-110728376D01*
X97169500Y-111237824D02*
X97169500Y-110728376D01*
X91681800Y-111237824D02*
X91681800Y-110728376D01*
X92726800Y-111237824D02*
X92726800Y-110728376D01*
X99124121Y-111143167D02*
X99124121Y-110850633D01*
X100144121Y-111143167D02*
X100144121Y-110850633D01*
X112082160Y-117063567D02*
X112082160Y-116771033D01*
X113102160Y-117063567D02*
X113102160Y-116771033D01*
X117226200Y-101423800D02*
X117226200Y-100568800D01*
X117226200Y-97448800D02*
X117226200Y-96498800D01*
X117226200Y-96498800D02*
X108066200Y-96498800D01*
X108066200Y-101423800D02*
X108066200Y-100568800D01*
X108066200Y-97448800D02*
X108066200Y-96498800D01*
X95591100Y-126238724D02*
X95591100Y-125729276D01*
X96636100Y-126238724D02*
X96636100Y-125729276D01*
X104392000Y-122499167D02*
X104392000Y-122206633D01*
X105412000Y-122499167D02*
X105412000Y-122206633D01*
X86557067Y-125526093D02*
X86264533Y-125526093D01*
X86557067Y-124506093D02*
X86264533Y-124506093D01*
X86557067Y-122547631D02*
X86264533Y-122547631D01*
X86557067Y-121527631D02*
X86264533Y-121527631D01*
X138270367Y-102694200D02*
X137977833Y-102694200D01*
X138270367Y-101674200D02*
X137977833Y-101674200D01*
X127988600Y-99484667D02*
X127988600Y-99192133D01*
X129008600Y-99484667D02*
X129008600Y-99192133D01*
X86557067Y-121058400D02*
X86264533Y-121058400D01*
X86557067Y-120038400D02*
X86264533Y-120038400D01*
X140862400Y-110787800D02*
X143452400Y-110787800D01*
X143452400Y-110812800D02*
X143452400Y-119412800D01*
X140062400Y-111612800D02*
X140862400Y-110812800D01*
X140062400Y-119412800D02*
X140062400Y-111612800D01*
X143452400Y-119437800D02*
X140062400Y-119437800D01*
X156355400Y-105668967D02*
X156355400Y-105376433D01*
X157375400Y-105668967D02*
X157375400Y-105376433D01*
X116178876Y-104811300D02*
X116688324Y-104811300D01*
X116178876Y-105856300D02*
X116688324Y-105856300D01*
X138270367Y-104167400D02*
X137977833Y-104167400D01*
X138270367Y-103147400D02*
X137977833Y-103147400D01*
X126483000Y-99484667D02*
X126483000Y-99192133D01*
X127503000Y-99484667D02*
X127503000Y-99192133D01*
X110594040Y-117063567D02*
X110594040Y-116771033D01*
X111614040Y-117063567D02*
X111614040Y-116771033D01*
X157060000Y-122568800D02*
X157060000Y-124368800D01*
X160280000Y-124368800D02*
X160280000Y-121418800D01*
X122109933Y-113771700D02*
X122402467Y-113771700D01*
X122109933Y-114791700D02*
X122402467Y-114791700D01*
X159828924Y-115282900D02*
X159319476Y-115282900D01*
X159828924Y-114237900D02*
X159319476Y-114237900D01*
X146343900Y-101675476D02*
X146343900Y-102184924D01*
X145298900Y-101675476D02*
X145298900Y-102184924D01*
X128907500Y-111625867D02*
X128907500Y-111333333D01*
X129927500Y-111625867D02*
X129927500Y-111333333D01*
X110795524Y-105907100D02*
X110286076Y-105907100D01*
X110795524Y-104862100D02*
X110286076Y-104862100D01*
X125469600Y-99058276D02*
X125469600Y-99567724D01*
X124424600Y-99058276D02*
X124424600Y-99567724D01*
X93162700Y-111237824D02*
X93162700Y-110728376D01*
X94207700Y-111237824D02*
X94207700Y-110728376D01*
X106719900Y-103123276D02*
X106719900Y-103632724D01*
X105674900Y-103123276D02*
X105674900Y-103632724D01*
X93847967Y-125503400D02*
X93555433Y-125503400D01*
X93847967Y-124483400D02*
X93555433Y-124483400D01*
X86557067Y-118079938D02*
X86264533Y-118079938D01*
X86557067Y-117059938D02*
X86264533Y-117059938D01*
D16*
X95173800Y-122428000D02*
X95582867Y-122428000D01*
X102029133Y-122428000D02*
X102438200Y-122428000D01*
X102438200Y-122428000D02*
X102438200Y-122018933D01*
X95173800Y-122018933D02*
X95173800Y-122428000D01*
X102438200Y-115572667D02*
X102438200Y-115163600D01*
X95173800Y-115163600D02*
X95173800Y-115572667D01*
X95582867Y-115163600D02*
X95173800Y-115163600D01*
X102438200Y-115163600D02*
X102029133Y-115163600D01*
G36*
X100746941Y-124155200D02*
G01*
X100365941Y-124155200D01*
X100365941Y-123901200D01*
X100746941Y-123901200D01*
X100746941Y-124155200D01*
G37*
G36*
X104165400Y-118236111D02*
G01*
X103911400Y-118236111D01*
X103911400Y-117855111D01*
X104165400Y-117855111D01*
X104165400Y-118236111D01*
G37*
G36*
X93700600Y-117735985D02*
G01*
X93446600Y-117735985D01*
X93446600Y-117354985D01*
X93700600Y-117354985D01*
X93700600Y-117735985D01*
G37*
G36*
X99246563Y-113690400D02*
G01*
X98865563Y-113690400D01*
X98865563Y-113436400D01*
X99246563Y-113436400D01*
X99246563Y-113690400D01*
G37*
D11*
X116546520Y-117063567D02*
X116546520Y-116771033D01*
X117566520Y-117063567D02*
X117566520Y-116771033D01*
X97617693Y-111143167D02*
X97617693Y-110850633D01*
X98637693Y-111143167D02*
X98637693Y-110850633D01*
X99060000Y-100304600D02*
X99695000Y-100304600D01*
X99060000Y-100939600D02*
X99060000Y-100304600D01*
X107194100Y-108205600D02*
X107194100Y-109675600D01*
X107194100Y-109675600D02*
X109654100Y-109675600D01*
X109654100Y-108205600D02*
X107194100Y-108205600D01*
X161039200Y-109718333D02*
X161039200Y-110010867D01*
X160019200Y-109718333D02*
X160019200Y-110010867D01*
X122286233Y-99742800D02*
X122578767Y-99742800D01*
X122286233Y-100762800D02*
X122578767Y-100762800D01*
X129738900Y-101934500D02*
X129738900Y-102409500D01*
X129263900Y-109154500D02*
X129738900Y-109154500D01*
X129263900Y-101934500D02*
X129738900Y-101934500D01*
X122993900Y-109154500D02*
X122518900Y-109154500D01*
X122993900Y-101934500D02*
X122518900Y-101934500D01*
X122518900Y-109154500D02*
X122518900Y-108679500D01*
X122518900Y-101934500D02*
X122518900Y-102409500D01*
X154835400Y-129637548D02*
X154835400Y-130160052D01*
X153365400Y-129637548D02*
X153365400Y-130160052D01*
X146772100Y-102184924D02*
X146772100Y-101675476D01*
X147817100Y-102184924D02*
X147817100Y-101675476D01*
X128352333Y-113764600D02*
X128644867Y-113764600D01*
X128352333Y-114784600D02*
X128644867Y-114784600D01*
X136797167Y-109018800D02*
X136504633Y-109018800D01*
X136797167Y-107998800D02*
X136504633Y-107998800D01*
X161028600Y-128833800D02*
X165028600Y-128833800D01*
X163028600Y-124613800D02*
X165028600Y-124613800D01*
X163809852Y-120778600D02*
X163287348Y-120778600D01*
X163809852Y-119308600D02*
X163287348Y-119308600D01*
%LPC*%
D17*
X119735600Y-118159700D03*
X119735600Y-116434700D03*
D18*
X133705599Y-106496799D03*
X133705599Y-108996799D03*
D19*
X158661700Y-116259000D03*
X160486700Y-116259000D03*
D17*
X147320000Y-120902900D03*
X147320000Y-119177900D03*
D20*
X94564200Y-123520200D03*
X92839200Y-123520200D03*
X87273300Y-116080707D03*
X85548300Y-116080707D03*
D21*
X156069000Y-128861300D03*
X156069000Y-130936300D03*
D22*
X113300800Y-110733800D03*
X113300800Y-112633800D03*
X115400800Y-111683800D03*
D17*
X165456800Y-111527100D03*
X165456800Y-109802100D03*
X125882400Y-118184000D03*
X125882400Y-116459000D03*
X161358600Y-123623900D03*
X161358600Y-121898900D03*
D23*
X113080800Y-108940600D03*
X111255800Y-108940600D03*
D17*
X109615920Y-117779800D03*
X109615920Y-116054800D03*
D24*
X101117400Y-111895600D03*
X101117400Y-110070600D03*
D25*
X129463999Y-115747799D03*
X128813999Y-115747799D03*
X128163999Y-115747799D03*
X127513999Y-115747799D03*
X127513999Y-118847799D03*
X128163999Y-118847799D03*
X128813999Y-118847799D03*
X129463999Y-118847799D03*
D26*
X128488999Y-117297799D03*
D20*
X104824700Y-124740500D03*
X103099700Y-124740500D03*
D27*
X162053200Y-111402100D03*
X163003200Y-111402100D03*
X163953200Y-111402100D03*
X163953200Y-109127100D03*
X162053200Y-109127100D03*
D25*
X123291599Y-115747799D03*
X122641599Y-115747799D03*
X121991599Y-115747799D03*
X121341599Y-115747799D03*
X121341599Y-118847799D03*
X121991599Y-118847799D03*
X122641599Y-118847799D03*
X123291599Y-118847799D03*
D26*
X122316599Y-117297799D03*
D17*
X114080280Y-117779800D03*
X114080280Y-116054800D03*
D20*
X87273300Y-114591476D03*
X85548300Y-114591476D03*
X137513400Y-107035600D03*
X135788400Y-107035600D03*
X87273300Y-123526862D03*
X85548300Y-123526862D03*
D17*
X130890700Y-112342100D03*
X130890700Y-110617100D03*
D28*
X135455599Y-104570799D03*
X135455599Y-101270799D03*
X133455599Y-101270799D03*
X133455599Y-104570799D03*
D29*
X142392399Y-104522799D03*
X142392399Y-107922799D03*
X146507199Y-104522799D03*
X146507199Y-107922799D03*
D24*
X97586800Y-126896500D03*
X97586800Y-125071500D03*
D30*
X118903000Y-108304600D03*
X120628000Y-108304600D03*
D24*
X89242500Y-111895600D03*
X89242500Y-110070600D03*
D22*
X108051600Y-110733800D03*
X108051600Y-112633800D03*
X110151600Y-111683800D03*
D31*
X107750000Y-137500000D03*
X146250000Y-137500000D03*
D32*
X115000000Y-123000000D03*
D33*
X118000000Y-123000000D03*
X121000000Y-123000000D03*
X124000000Y-123000000D03*
X127000000Y-123000000D03*
X130000000Y-123000000D03*
X133000000Y-123000000D03*
X136000000Y-123000000D03*
X139000000Y-123000000D03*
X116500000Y-125500000D03*
X119500000Y-125500000D03*
X122500000Y-125500000D03*
X125500000Y-125500000D03*
X128500000Y-125500000D03*
X131500000Y-125500000D03*
X134500000Y-125500000D03*
X137500000Y-125500000D03*
X116500000Y-128500000D03*
X119500000Y-128500000D03*
X122500000Y-128500000D03*
X125500000Y-128500000D03*
X128500000Y-128500000D03*
X131500000Y-128500000D03*
X134500000Y-128500000D03*
X137500000Y-128500000D03*
X115000000Y-131000000D03*
X118000000Y-131000000D03*
X121000000Y-131000000D03*
X124000000Y-131000000D03*
X127000000Y-131000000D03*
X130000000Y-131000000D03*
X133000000Y-131000000D03*
X136000000Y-131000000D03*
X139000000Y-131000000D03*
D34*
X155117800Y-103192200D03*
X153847800Y-103192200D03*
X152577800Y-103192200D03*
X151307800Y-103192200D03*
X151307800Y-108542200D03*
X152577800Y-108542200D03*
X153847800Y-108542200D03*
X155117800Y-108542200D03*
D17*
X135712200Y-117626300D03*
X135712200Y-115901300D03*
X115568400Y-117779800D03*
X115568400Y-116054800D03*
D24*
X90723400Y-111895600D03*
X90723400Y-110070600D03*
D17*
X108127800Y-117779800D03*
X108127800Y-116054800D03*
D20*
X87273300Y-119059169D03*
X85548300Y-119059169D03*
D35*
X162547600Y-115331200D03*
X162547600Y-115831200D03*
X162547600Y-116331200D03*
X162547600Y-116831200D03*
X164017600Y-116831200D03*
X164017600Y-116331200D03*
X164017600Y-115831200D03*
X164017600Y-115331200D03*
D20*
X149579500Y-113842800D03*
X147854500Y-113842800D03*
D24*
X99060000Y-126896500D03*
X99060000Y-125071500D03*
X95166100Y-111895600D03*
X95166100Y-110070600D03*
D36*
X165467000Y-113087800D03*
X165467000Y-114912800D03*
D24*
X96647000Y-111895600D03*
X96647000Y-110070600D03*
X92204300Y-111895600D03*
X92204300Y-110070600D03*
D17*
X99634121Y-111859400D03*
X99634121Y-110134400D03*
X112592160Y-117779800D03*
X112592160Y-116054800D03*
D37*
X115646200Y-102158800D03*
D38*
X114046199Y-99058799D03*
X111246199Y-99058799D03*
D39*
X109646199Y-102158799D03*
D40*
X115746199Y-103258799D03*
X114996199Y-103258799D03*
D41*
X114396199Y-103258799D03*
X112896199Y-103258799D03*
X111896199Y-103258799D03*
X110896199Y-103258799D03*
D40*
X110296199Y-103258799D03*
X109546199Y-103258799D03*
X109546199Y-103258799D03*
X110296199Y-103258799D03*
D41*
X111396199Y-103258799D03*
X112396199Y-103258799D03*
X113396199Y-103258799D03*
X113896199Y-103258799D03*
D40*
X114996199Y-103258799D03*
X115746199Y-103258799D03*
D42*
X116966199Y-102883799D03*
D43*
X116966199Y-99058799D03*
D42*
X108326199Y-102883799D03*
D43*
X108326199Y-99058799D03*
D24*
X96113600Y-126896500D03*
X96113600Y-125071500D03*
D17*
X104902000Y-123215400D03*
X104902000Y-121490400D03*
D20*
X87273300Y-125016093D03*
X85548300Y-125016093D03*
X87273300Y-122037631D03*
X85548300Y-122037631D03*
X138986600Y-102184200D03*
X137261600Y-102184200D03*
D17*
X128498600Y-100200900D03*
X128498600Y-98475900D03*
D20*
X87273300Y-120548400D03*
X85548300Y-120548400D03*
D44*
X138902399Y-111537799D03*
X138902399Y-112187799D03*
X138902399Y-112837799D03*
X138902399Y-113487799D03*
X138902399Y-114137799D03*
X138902399Y-114787799D03*
X138902399Y-115437799D03*
X138902399Y-116087799D03*
X138902399Y-116737799D03*
X138902399Y-117387799D03*
X138902399Y-118037799D03*
X138902399Y-118687799D03*
X144612399Y-118687799D03*
X144612399Y-118037799D03*
X144612399Y-117387799D03*
X144612399Y-116737799D03*
X144612399Y-116087799D03*
X144612399Y-115437799D03*
X144612399Y-114787799D03*
X144612399Y-114137799D03*
X144612399Y-113487799D03*
X144612399Y-112837799D03*
X144612399Y-112187799D03*
X144612399Y-111537799D03*
D45*
X141757399Y-115112799D03*
D17*
X156865400Y-106385200D03*
X156865400Y-104660200D03*
D19*
X115521100Y-105333800D03*
X117346100Y-105333800D03*
D20*
X138986600Y-103657400D03*
X137261600Y-103657400D03*
D17*
X126993000Y-100200900D03*
X126993000Y-98475900D03*
X111104040Y-117779800D03*
X111104040Y-116054800D03*
D46*
X159619999Y-122118799D03*
X158669999Y-122118799D03*
X157719999Y-122118799D03*
X157719999Y-124818799D03*
X158669999Y-124818799D03*
X159619999Y-124818799D03*
D30*
X121393700Y-114281700D03*
X123118700Y-114281700D03*
D23*
X160486700Y-114760400D03*
X158661700Y-114760400D03*
D36*
X145821400Y-101017700D03*
X145821400Y-102842700D03*
D17*
X129417500Y-112342100D03*
X129417500Y-110617100D03*
D23*
X111453300Y-105384600D03*
X109628300Y-105384600D03*
D36*
X124947100Y-98400500D03*
X124947100Y-100225500D03*
D24*
X93685200Y-111895600D03*
X93685200Y-110070600D03*
D36*
X106197400Y-102465500D03*
X106197400Y-104290500D03*
D20*
X94564200Y-124993400D03*
X92839200Y-124993400D03*
X87273300Y-117569938D03*
X85548300Y-117569938D03*
D47*
X96055306Y-122974099D03*
X96555432Y-122974099D03*
X97055558Y-122974099D03*
X97555684Y-122974099D03*
X98055810Y-122974099D03*
X98555936Y-122974099D03*
X99056062Y-122974099D03*
X99556188Y-122974099D03*
X100056314Y-122974099D03*
X100556440Y-122974099D03*
X101056566Y-122974099D03*
X101556692Y-122974099D03*
D48*
X102984299Y-121546492D03*
X102984299Y-121046366D03*
X102984299Y-120546240D03*
X102984299Y-120046114D03*
X102984299Y-119545988D03*
X102984299Y-119045862D03*
X102984299Y-118545736D03*
X102984299Y-118045610D03*
X102984299Y-117545484D03*
X102984299Y-117045358D03*
X102984299Y-116545232D03*
X102984299Y-116045106D03*
D47*
X101556692Y-114617499D03*
X101056566Y-114617499D03*
X100556440Y-114617499D03*
X100056314Y-114617499D03*
X99556188Y-114617499D03*
X99056062Y-114617499D03*
X98555936Y-114617499D03*
X98055810Y-114617499D03*
X97555684Y-114617499D03*
X97055558Y-114617499D03*
X96555432Y-114617499D03*
X96055306Y-114617499D03*
D48*
X94627699Y-116045106D03*
X94627699Y-116545232D03*
X94627699Y-117045358D03*
X94627699Y-117545484D03*
X94627699Y-118045610D03*
X94627699Y-118545736D03*
X94627699Y-119045862D03*
X94627699Y-119545988D03*
X94627699Y-120046114D03*
X94627699Y-120546240D03*
X94627699Y-121046366D03*
X94627699Y-121546492D03*
D49*
X98805999Y-118795799D03*
D17*
X117056520Y-117779800D03*
X117056520Y-116054800D03*
X98127693Y-111859400D03*
X98127693Y-110134400D03*
D50*
X100330000Y-99669600D03*
X101346000Y-104749600D03*
X99314000Y-104749600D03*
D51*
X99695000Y-100939600D03*
X100965000Y-100939600D03*
X99695000Y-102209600D03*
X100965000Y-102209600D03*
X99695000Y-103479600D03*
X100965000Y-103479600D03*
D52*
X107979100Y-108940600D03*
X109729100Y-108940600D03*
D53*
X160529200Y-109002100D03*
X160529200Y-110727100D03*
D30*
X121570000Y-100252800D03*
X123295000Y-100252800D03*
D54*
X129566400Y-108294500D03*
X129566400Y-107794500D03*
X129566400Y-107294500D03*
X129566400Y-106794500D03*
X129566400Y-106294500D03*
X129566400Y-105794500D03*
X129566400Y-105294500D03*
X129566400Y-104794500D03*
X129566400Y-104294500D03*
X129566400Y-103794500D03*
X129566400Y-103294500D03*
X129566400Y-102794500D03*
D55*
X128878900Y-102107000D03*
X128378900Y-102107000D03*
X127878900Y-102107000D03*
X127378900Y-102107000D03*
X126878900Y-102107000D03*
X126378900Y-102107000D03*
X125878900Y-102107000D03*
X125378900Y-102107000D03*
X124878900Y-102107000D03*
X124378900Y-102107000D03*
X123878900Y-102107000D03*
X123378900Y-102107000D03*
D54*
X122691400Y-102794500D03*
X122691400Y-103294500D03*
X122691400Y-103794500D03*
X122691400Y-104294500D03*
X122691400Y-104794500D03*
X122691400Y-105294500D03*
X122691400Y-105794500D03*
X122691400Y-106294500D03*
X122691400Y-106794500D03*
X122691400Y-107294500D03*
X122691400Y-107794500D03*
X122691400Y-108294500D03*
D55*
X123378900Y-108982000D03*
X123878900Y-108982000D03*
X124378900Y-108982000D03*
X124878900Y-108982000D03*
X125378900Y-108982000D03*
X125878900Y-108982000D03*
X126378900Y-108982000D03*
X126878900Y-108982000D03*
X127378900Y-108982000D03*
X127878900Y-108982000D03*
X128378900Y-108982000D03*
X128878900Y-108982000D03*
D56*
X126128899Y-105544499D03*
D21*
X154100400Y-128861300D03*
X154100400Y-130936300D03*
D24*
X147294600Y-102842700D03*
X147294600Y-101017700D03*
D30*
X127636100Y-114274600D03*
X129361100Y-114274600D03*
D20*
X137513400Y-108508800D03*
X135788400Y-108508800D03*
D57*
X161478599Y-126723799D03*
X164578599Y-126723799D03*
D58*
X164586100Y-120043600D03*
X162511100Y-120043600D03*
M02*
